<mxfile host="app.diagrams.net" modified="2023-08-11T03:19:05.306Z" agent="Mozilla/5.0 (Macintosh; Intel Mac OS X 10_15_7) AppleWebKit/537.36 (KHTML, like Gecko) Chrome/115.0.0.0 Safari/537.36" etag="hRRJBJ_qKK5naxdqTBdc" version="21.6.8" type="github">
  <diagram name="Page-1" id="c7558073-3199-34d8-9f00-42111426c3f3">
    <mxGraphModel dx="1434" dy="765" grid="1" gridSize="10" guides="1" tooltips="1" connect="1" arrows="1" fold="1" page="1" pageScale="1" pageWidth="3300" pageHeight="4681" background="none" math="0" shadow="0">
      <root>
        <mxCell id="0" />
        <mxCell id="1" parent="0" />
        <mxCell id="wlViJ_xfUhJ4NJeLA0QH-106" style="rounded=0;orthogonalLoop=1;jettySize=auto;html=1;exitX=1;exitY=1;exitDx=0;exitDy=0;entryX=0;entryY=0;entryDx=0;entryDy=0;fontFamily=Helvetica;fontSize=11;fontColor=default;strokeWidth=2;strokeColor=#EA6B66;" edge="1" parent="1" source="4" target="wlViJ_xfUhJ4NJeLA0QH-103">
          <mxGeometry relative="1" as="geometry" />
        </mxCell>
        <mxCell id="wlViJ_xfUhJ4NJeLA0QH-107" value="【2】xmp cli&lt;br&gt;触发 jenkins 任务命令" style="edgeLabel;html=1;align=center;verticalAlign=middle;resizable=0;points=[];fontSize=11;fontFamily=Helvetica;fontColor=default;" vertex="1" connectable="0" parent="wlViJ_xfUhJ4NJeLA0QH-106">
          <mxGeometry x="-0.2711" relative="1" as="geometry">
            <mxPoint as="offset" />
          </mxGeometry>
        </mxCell>
        <mxCell id="4" value="本机" style="whiteSpace=wrap;align=center;verticalAlign=middle;fontStyle=1;strokeWidth=3;fillColor=#FFFFCC" parent="1" vertex="1">
          <mxGeometry x="40" y="250" width="90" height="61" as="geometry" />
        </mxCell>
        <mxCell id="37" value="" style="edgeStyle=none;noEdgeStyle=1;strokeColor=#990000;strokeWidth=2;entryX=0;entryY=0.5;entryDx=0;entryDy=0;entryPerimeter=0;" parent="1" source="4" target="wlViJ_xfUhJ4NJeLA0QH-98" edge="1">
          <mxGeometry width="100" height="100" relative="1" as="geometry">
            <mxPoint x="280" y="190" as="sourcePoint" />
            <mxPoint x="236" y="280.86650485436894" as="targetPoint" />
          </mxGeometry>
        </mxCell>
        <mxCell id="wlViJ_xfUhJ4NJeLA0QH-100" value="【1】git push 、 git tag" style="edgeLabel;html=1;align=center;verticalAlign=middle;resizable=0;points=[];" vertex="1" connectable="0" parent="37">
          <mxGeometry x="-0.1355" relative="1" as="geometry">
            <mxPoint as="offset" />
          </mxGeometry>
        </mxCell>
        <mxCell id="wlViJ_xfUhJ4NJeLA0QH-110" style="rounded=0;orthogonalLoop=1;jettySize=auto;html=1;exitX=0.855;exitY=1;exitDx=0;exitDy=-4.35;exitPerimeter=0;entryX=0.75;entryY=0;entryDx=0;entryDy=0;fontFamily=Helvetica;fontSize=11;fontColor=default;" edge="1" parent="1" source="wlViJ_xfUhJ4NJeLA0QH-98" target="wlViJ_xfUhJ4NJeLA0QH-102">
          <mxGeometry relative="1" as="geometry">
            <Array as="points" />
          </mxGeometry>
        </mxCell>
        <mxCell id="wlViJ_xfUhJ4NJeLA0QH-111" value="【4】返回 tag 对应代码" style="edgeLabel;html=1;align=center;verticalAlign=middle;resizable=0;points=[];fontSize=11;fontFamily=Helvetica;fontColor=default;" vertex="1" connectable="0" parent="wlViJ_xfUhJ4NJeLA0QH-110">
          <mxGeometry x="0.0004" y="3" relative="1" as="geometry">
            <mxPoint x="33" y="24" as="offset" />
          </mxGeometry>
        </mxCell>
        <mxCell id="wlViJ_xfUhJ4NJeLA0QH-98" value="gitlab" style="shape=cylinder3;whiteSpace=wrap;html=1;boundedLbl=1;backgroundOutline=1;size=15;" vertex="1" parent="1">
          <mxGeometry x="270" y="70" width="60" height="80" as="geometry" />
        </mxCell>
        <mxCell id="wlViJ_xfUhJ4NJeLA0QH-102" value="测试机&#xa;54.179.75.93" style="whiteSpace=wrap;align=center;verticalAlign=middle;fontStyle=1;strokeWidth=3;fillColor=#FFFFCC" vertex="1" parent="1">
          <mxGeometry x="430" y="300" width="90" height="61" as="geometry" />
        </mxCell>
        <mxCell id="wlViJ_xfUhJ4NJeLA0QH-108" style="rounded=0;orthogonalLoop=1;jettySize=auto;html=1;entryX=0.5;entryY=1;entryDx=0;entryDy=0;entryPerimeter=0;fontFamily=Helvetica;fontSize=11;fontColor=default;exitX=0.25;exitY=0;exitDx=0;exitDy=0;" edge="1" parent="1" source="wlViJ_xfUhJ4NJeLA0QH-102" target="wlViJ_xfUhJ4NJeLA0QH-98">
          <mxGeometry relative="1" as="geometry">
            <mxPoint x="190" y="420" as="sourcePoint" />
          </mxGeometry>
        </mxCell>
        <mxCell id="wlViJ_xfUhJ4NJeLA0QH-109" value="【3】git pull 拉取代码" style="edgeLabel;html=1;align=center;verticalAlign=middle;resizable=0;points=[];fontSize=11;fontFamily=Helvetica;fontColor=default;" vertex="1" connectable="0" parent="wlViJ_xfUhJ4NJeLA0QH-108">
          <mxGeometry x="0.1017" y="-4" relative="1" as="geometry">
            <mxPoint x="-23" y="-7" as="offset" />
          </mxGeometry>
        </mxCell>
        <mxCell id="wlViJ_xfUhJ4NJeLA0QH-113" style="edgeStyle=orthogonalEdgeStyle;rounded=0;orthogonalLoop=1;jettySize=auto;html=1;exitX=1;exitY=0.5;exitDx=0;exitDy=0;entryX=0;entryY=0.5;entryDx=0;entryDy=0;fontFamily=Helvetica;fontSize=11;fontColor=default;" edge="1" parent="1" source="wlViJ_xfUhJ4NJeLA0QH-102" target="wlViJ_xfUhJ4NJeLA0QH-112">
          <mxGeometry relative="1" as="geometry">
            <Array as="points">
              <mxPoint x="580" y="331" />
            </Array>
          </mxGeometry>
        </mxCell>
        <mxCell id="wlViJ_xfUhJ4NJeLA0QH-114" value="&lt;pre style=&quot;box-sizing: inherit; overflow-wrap: break-word; margin: 0 0 var(--section-padding); padding: 0.8rem 1rem; border-radius: 10px; background-color: var(--pre-background); color: rgb(51, 51, 51); font-size: var(--font-size-monospace); letter-spacing: -0.176px; text-align: start; font-family: var(--font-family-mono) !important; line-height: 1.66 !important;&quot; class=&quot;jenkins-readonly&quot;&gt;/build_xmp/build_fe.sh&lt;/pre&gt;" style="edgeLabel;html=1;align=center;verticalAlign=middle;resizable=0;points=[];fontSize=11;fontFamily=Helvetica;fontColor=default;" vertex="1" connectable="0" parent="wlViJ_xfUhJ4NJeLA0QH-113">
          <mxGeometry x="-0.2031" y="2" relative="1" as="geometry">
            <mxPoint x="14" y="2" as="offset" />
          </mxGeometry>
        </mxCell>
        <mxCell id="wlViJ_xfUhJ4NJeLA0QH-116" style="rounded=0;orthogonalLoop=1;jettySize=auto;html=1;exitX=1;exitY=0;exitDx=0;exitDy=0;entryX=0;entryY=1;entryDx=0;entryDy=0;fontFamily=Helvetica;fontSize=11;fontColor=default;" edge="1" parent="1" source="wlViJ_xfUhJ4NJeLA0QH-103" target="wlViJ_xfUhJ4NJeLA0QH-102">
          <mxGeometry relative="1" as="geometry" />
        </mxCell>
        <mxCell id="wlViJ_xfUhJ4NJeLA0QH-118" value="测试机是 jenkins 的 runner 之一&lt;br&gt;调用测试执行 jenkins 脚本" style="edgeLabel;html=1;align=center;verticalAlign=middle;resizable=0;points=[];fontSize=11;fontFamily=Helvetica;fontColor=default;" vertex="1" connectable="0" parent="wlViJ_xfUhJ4NJeLA0QH-116">
          <mxGeometry x="-0.2668" y="-1" relative="1" as="geometry">
            <mxPoint x="31" y="-8" as="offset" />
          </mxGeometry>
        </mxCell>
        <mxCell id="wlViJ_xfUhJ4NJeLA0QH-103" value="jenkins" style="whiteSpace=wrap;align=center;verticalAlign=middle;fontStyle=1;strokeWidth=3;fillColor=#FFFFCC" vertex="1" parent="1">
          <mxGeometry x="240" y="420" width="90" height="61" as="geometry" />
        </mxCell>
        <mxCell id="wlViJ_xfUhJ4NJeLA0QH-119" style="edgeStyle=orthogonalEdgeStyle;rounded=0;orthogonalLoop=1;jettySize=auto;html=1;exitX=1;exitY=0.5;exitDx=0;exitDy=0;fontFamily=Helvetica;fontSize=11;fontColor=default;" edge="1" parent="1" source="wlViJ_xfUhJ4NJeLA0QH-112" target="wlViJ_xfUhJ4NJeLA0QH-115">
          <mxGeometry relative="1" as="geometry" />
        </mxCell>
        <mxCell id="wlViJ_xfUhJ4NJeLA0QH-120" value="将 dist 放到&lt;br&gt;各环境文件夹&lt;br&gt;（如 minping 环境）" style="edgeLabel;html=1;align=center;verticalAlign=middle;resizable=0;points=[];fontSize=11;fontFamily=Helvetica;fontColor=default;" vertex="1" connectable="0" parent="wlViJ_xfUhJ4NJeLA0QH-119">
          <mxGeometry x="-0.36" y="-1" relative="1" as="geometry">
            <mxPoint x="18" as="offset" />
          </mxGeometry>
        </mxCell>
        <mxCell id="wlViJ_xfUhJ4NJeLA0QH-112" value="在 jenkins 工作区的&amp;nbsp;&lt;br&gt;XMP-Build-FE 同名文件夹&lt;br&gt;中执行打包命令" style="shape=parallelogram;perimeter=parallelogramPerimeter;whiteSpace=wrap;html=1;fixedSize=1;labelBackgroundColor=default;fontFamily=Helvetica;fontSize=11;fontColor=default;fillColor=none;gradientColor=none;" vertex="1" parent="1">
          <mxGeometry x="690" y="300" width="180" height="60" as="geometry" />
        </mxCell>
        <mxCell id="wlViJ_xfUhJ4NJeLA0QH-115" value="nginx 支持&lt;br&gt;各个环境的静态服务&lt;br&gt;（如 minping 环境）" style="shape=parallelogram;perimeter=parallelogramPerimeter;whiteSpace=wrap;html=1;fixedSize=1;labelBackgroundColor=default;fontFamily=Helvetica;fontSize=11;fontColor=default;fillColor=none;gradientColor=none;" vertex="1" parent="1">
          <mxGeometry x="980" y="300" width="150" height="60" as="geometry" />
        </mxCell>
        <mxCell id="wlViJ_xfUhJ4NJeLA0QH-121" style="edgeStyle=orthogonalEdgeStyle;rounded=0;orthogonalLoop=1;jettySize=auto;html=1;exitX=0.855;exitY=1;exitDx=0;exitDy=-4.35;exitPerimeter=0;entryX=1;entryY=1;entryDx=0;entryDy=-15;entryPerimeter=0;fontFamily=Helvetica;fontSize=11;fontColor=default;" edge="1" parent="1" source="wlViJ_xfUhJ4NJeLA0QH-98" target="wlViJ_xfUhJ4NJeLA0QH-98">
          <mxGeometry relative="1" as="geometry" />
        </mxCell>
        <mxCell id="wlViJ_xfUhJ4NJeLA0QH-123" value="" style="shape=image;verticalLabelPosition=bottom;labelBackgroundColor=default;verticalAlign=top;aspect=fixed;imageAspect=0;image=data:image/png,iVBORw0KGgoAAAANSUhEUgAAAX4AAAEBCAYAAAB/rs7oAAAEDmlDQ1BrQ0dDb2xvclNwYWNlR2VuZXJpY1JHQgAAOI2NVV1oHFUUPpu5syskzoPUpqaSDv41lLRsUtGE2uj+ZbNt3CyTbLRBkMns3Z1pJjPj/KRpKT4UQRDBqOCT4P9bwSchaqvtiy2itFCiBIMo+ND6R6HSFwnruTOzu5O4a73L3PnmnO9+595z7t4LkLgsW5beJQIsGq4t5dPis8fmxMQ6dMF90A190C0rjpUqlSYBG+PCv9rt7yDG3tf2t/f/Z+uuUEcBiN2F2Kw4yiLiZQD+FcWyXYAEQfvICddi+AnEO2ycIOISw7UAVxieD/Cyz5mRMohfRSwoqoz+xNuIB+cj9loEB3Pw2448NaitKSLLRck2q5pOI9O9g/t/tkXda8Tbg0+PszB9FN8DuPaXKnKW4YcQn1Xk3HSIry5ps8UQ/2W5aQnxIwBdu7yFcgrxPsRjVXu8HOh0qao30cArp9SZZxDfg3h1wTzKxu5E/LUxX5wKdX5SnAzmDx4A4OIqLbB69yMesE1pKojLjVdoNsfyiPi45hZmAn3uLWdpOtfQOaVmikEs7ovj8hFWpz7EV6mel0L9Xy23FMYlPYZenAx0yDB1/PX6dledmQjikjkXCxqMJS9WtfFCyH9XtSekEF+2dH+P4tzITduTygGfv58a5VCTH5PtXD7EFZiNyUDBhHnsFTBgE0SQIA9pfFtgo6cKGuhooeilaKH41eDs38Ip+f4At1Rq/sjr6NEwQqb/I/DQqsLvaFUjvAx+eWirddAJZnAj1DFJL0mSg/gcIpPkMBkhoyCSJ8lTZIxk0TpKDjXHliJzZPO50dR5ASNSnzeLvIvod0HG/mdkmOC0z8VKnzcQ2M/Yz2vKldduXjp9bleLu0ZWn7vWc+l0JGcaai10yNrUnXLP/8Jf59ewX+c3Wgz+B34Df+vbVrc16zTMVgp9um9bxEfzPU5kPqUtVWxhs6OiWTVW+gIfywB9uXi7CGcGW/zk98k/kmvJ95IfJn/j3uQ+4c5zn3Kfcd+AyF3gLnJfcl9xH3OfR2rUee80a+6vo7EK5mmXUdyfQlrYLTwoZIU9wsPCZEtP6BWGhAlhL3p2N6sTjRdduwbHsG9kq32sgBepc+xurLPW4T9URpYGJ3ym4+8zA05u44QjST8ZIoVtu3qE7fWmdn5LPdqvgcZz8Ww8BWJ8X3w0PhQ/wnCDGd+LvlHs8dRy6bLLDuKMaZ20tZrqisPJ5ONiCq8yKhYM5cCgKOu66Lsc0aYOtZdo5QCwezI4wm9J/v0X23mlZXOfBjj8Jzv3WrY5D+CsA9D7aMs2gGfjve8ArD6mePZSeCfEYt8CONWDw8FXTxrPqx/r9Vt4biXeANh8vV7/+/16ffMD1N8AuKD/A/8leAvFY9bLAAAAOGVYSWZNTQAqAAAACAABh2kABAAAAAEAAAAaAAAAAAACoAIABAAAAAEAAAF+oAMABAAAAAEAAAEBAAAAAFzSJyYAAEAASURBVHgB7J0HnFzFkf8L5ZxzXOWcUEZCEklEIUDkZIM5cML+2/jO9vnOZ985n3PgMGCTTDQIgYhCCAUUUJZQzjnnLK0k/v2tVS1vR7NJmp2d2a3+aDTvve6urv51v19VV799c4HkTBdETqPHkct+6Ag4Ao6AI5AmCHwW0TP7uFzkIkQf/ZQ5cx4p4oeOgCPgCDgCaYIARH86fPg20tdvI34jfMi+bORj1/n25Ag4Ao6AI5D6CBjR830q8sEIkD6D+I3cIX3OIX6SGQD3/LPw8P8dAUfAEUgHBCB8SB7S59t4/uSZc70QjpX8lei/+tWvNn4kpCpVqvTi+mef6cqAMp4cgWwETp825yH7kh84AjkQKFMGn7Fw6fNp5fMrilxhsbzgAg3SfHbkyJF5vwnp0Ucf3RrkZa8EzNuH9CuEzwWrVq36TevWrR86ceKEOOlHoffjKAI+N6Jo+HEsAmeIJ/Zyvuc5/Ux3OgHsXLGkXoUKFWTNmjV/bdu27SNBFICeCJ9TtgTIju1XrVq15/Hjx4WPJ0cgNwSc+HNDxq+fK1GBXE7i1yulGtDzwTILz88ETg/H5cOH0A9cf9rWYtmev9/QARZPjoAjUCwIZEUoiqXplGv0fEnfOnSG04nqGM8r+1s+F8uE2C3fnhyBPBFI1KTMsxHPTDsEEjEvnPzPPbwTb8Kc4XSc/GxuJ9RjKdsa2AX/Tg0Ezop0nr0eLryiMXdX9owohCS7yX2VWAjQSmhRmwuJ6h7TMxHTPFH6JFNOorE8o3sOfrdQTzL75W2dDwKJuhsSJSf0pYgm6vmg5HVLAAIxvkkJ6FH+XUjWveTEn/9YFGuJs7z9ItLmfNo5n7pF1B0Xm0QEipKsilJ2EiEqUFPJ7KsTf4GGpHgKnUWoCfTStUcx8s5qrwDdPpc6BRDrRRyBbASSSYjZjSb5INl9jMb4k9xVby4vBJIWN49L/jkj/rktuZ308xpBz0skAhBj0u6JRCpeAFnJJn1Uco+/AAOT7CLFP8FzUnqMbVA4cpZINkLeXmlEoDgIsqhxLq4+Jdzjz80yR69bZ+MRXLw8uxYdhHh1o/kcn2u9WDkFPae9vPSKpw+yrY7Vjy1n+QXVIzHloPbPPX/IPzfPv9Q+fpEYoF2KI5B0BBJK/Pb+FogrSl4Q16lTp8TeN2Hl7Dzaa8qRTAZ1KR8lP/Li1Y3Kya2eyY2Wze04qqe1H+1XtJ61l5telk8dk2X1rQ59j82jDPm5tWsyiuY7Pvnn8PbjLQeKRhmXmooI5OoNFJGy1l66zzvrRxHBlJ/YhBA/pARJjhs3TpYuXSpDhgyRHj16SPny5ZXwP/jgA1m+fLlceumlsnXrVlm8eLFUr15drrvuOmnSpImWQdG9e/fKm2++Kdu3b5dBgwZJr169ZMaMGfLpp58K7w6iHUiwdu3a0rVrV/2El8nlIEvKQKAffvihtpOZmZlNmtTr0KGD9OzZU9uPR7LogQzqjRkzhlMZNmyYTJ48WeVeccUVUqdOHe0veZQ9efKkfPzxx7JixQq5/vrrpXHjxtn5lKEd+v32229rH43oyeOYvoQ/q5YFCxbI4cOHs/W1/C5dusjgwYO1TG46Uza3RJ09e/ao/mDAuBQ85aD50JeC10yJkmF8CpTSrmMF6lXRFSoorkWlAe2n65gVN3ZhTBJC/BALBAiZz5w5U8KL3uQ73/mOhBcDybx58+SVV15R0rryyitl4cKF8t5772l5SLhhw4Z6jOGg7FtvvSXbtm1Tcu/cubOWf/fdd7Uc8im3b98+NTK33XabIBPSNO+cecYxJIohgoSrVaumpEe9999/X0aNGiXXXnut1KhRQ0k5Sqb0gw8y1q1bhzgJb7iTadOmqTEYOHCg1K1bV8toZviP+osWLZKJEyeq0WvatGkOfSi3a9cuGT9+vBw4cEDrly3LX1CHd1+H71q1aml5dDMczThYPsaFvKiuKqAA/9GXLVu2qPENL+ATDEmlSpXOSVYBmkudIgGvAifKpiuRFLiTJaxgOo5ZYeZkEQ5XQojf9MOTHjBggEDUePmQ1ujRo5XIH374YcnIyFDPHe/96NGjMmfOHCWhevXqqdc8a9YsJUjy+UBY9sK4m266SVcReOKsCP74xz+qkaBNDAxlo+nYsWMq4+abb1aPGuKEfH/7298q+ffv319YLSAPD9iIFr3Qu1y5cjJy5EglW4gZ8o+GYpC3e/duoR0MCHpSN1YP04m6lMGYoZORPe1iuCZMmKD5rBhY7aATJE9+zZo1VdfcZFsbuX0jo3nz5tp/VlvI7datm1SsWLFkk3/OSFVu8Pj1NEHgrMXmWRfSoCMxczLmNGkdSCjx41lDaqtXr5Z33nlHPf8lS5bI8OHDBU8ZoiFBdHjNkNDOnTulfv36+r1y5Ur10LlmCS8X4sJo4KlC1K1atZKXX35Z1q9fr2RrZaPf1IPAW7RooeEdiJp2WDWQOGclQhjpwQcflDZt2mg45He/+500a9ZMQzYYMAibFQKyzNvev3+/PP/884KhgswbNGighoE280r0gzARKx2MHUTONYwchoZjQl+dOnXKQcrIPVfSRx/qE+Lp3bu3HjMmXCsVnn9x3Vl5TQTPKzQCZ3H8WRcKLbL4KsTMyZjTpOiVUOKHGAlz3HrrrQKBTpkyRfr06SNXXXWVEg+kTRlIFE+d8AjhFEiX0AyECjmxEogSHXV27NghGzZsUA+besTMIVxCFpQ1UjbUIDZI+7XXXpPp06erwaD+oUOH5K677tLQUXhPtRofi6ujH3sUfOPJc4yBICyEPBIyCclg2IjN0z8MFmEeCJxy6BKrD3XRk36GH0WQypUraxk8f+RD+iab/RAzNHj+rAIyguEzHZBV2IQ+rBwuvPBCbRcMkQf5u+dfWDS9fDIRyMHxOU6SqUWC24ph+5jTBDd2triEEj/iIRO8WX4AAG8Y7x4vG2KzRBkIc+PGjTJ79mzp3r27xvfxhvHQ58+fr0WN6CDExx9/XGVBYBgIC8VAkBY7p41GjRqpR01dyhLe4RsZGA/qsgdBqAdSRY61Q6OcI5NrHJMsn28MAfsYrG4wcGxiEz+H/DFitEOfNm3apESPDIyZyTl48KCWo20SWGFokI2erHYwEPSFc3AkzJSIhDwbD8aGNqLjkog2UlZGsu+slAUivRQrKTwfF/WYORlzGrdKoi4mlPghL0hq7NixugFLXJmwAiERCM6IFOXx1gl5sNmL94n3TdyZcEzU26cs5IR3TQiGNpCVETxgVgrIf+GFF5R8kc+TQJA/5SBwvGXkQtjE4F966SV9Qqdv375K0sgvTEI3npBBf9qBwDlmn4FVCCTOauCTTz7RfuBNE9aiHP1Al1tuuSU7xk8+Bg+Dgb48NcQTPBA+RE0/CP/wfb6JNnjyCCOFgc0IGIIZ7ZTMVIhbqcRiUPQjWwiUC6XMWbMy/wuFkl88hWPQyvu0yFRMGPFDTJAim7qEeNjkxat+7rnnNB7P0ySQtyVIDvLlcc3XX39dDQWkbaEbyhkhQZiXX365lofAKQNhQmTt2rWTL3/5y9kxdkiWeDa6GGnSNvUgZYwHT+jgkZO4jhwShsGO9UKc/5BJ+xg4vGZ0NKNCmxA8xD506FDNQ3eMAmEmEuEWdI4aOMJKRvI85dS+ffsc4Rfknm+iX4SQWE1ZvB9dSn6K3FlGHLE21Em/8NMAzMK9YCmCsl06r28bqmwh+V/ILpr6BzFo5X1aJN1JGPFDXMuWLdPn8AknjBgxQr1bnsB58cUXNdYO4UCElOWbeDPeLo9xEvphhcCTMuRb4pgPT+Dw9AzkzTlkS6I+K4BoItZOGciO+D4hHo7RBaMEefOYJ3F28vHOCd1MmjRJn7Mnn2RtR48xWDyZwyOpE0Ncn0S/2SSGwMnHwNEe9UkcQ/wQOB/O0Z9j2oqWY38Dg2KeOPl4/ISUYv9mQYUX4D/kE/JCR/YUwDoWswKISeMin88n7UTMaRp3rHhVPzO/TYn4sH5uHKxc/t/xJeVfL51KxPQx79Osjp3hpcL0MkZsdtWEET/eMn/wRNz+gQceUPLDK+ePtHh6B8+ejUQjNQgNEoIkeQqIODhkBEFBnhgGynDMh2TEma19OIDUIFJLRqRWB53Qg8Q19hvuvvtu3VxmUxfS5w+r+AOtjIys0IfV5Rv5pgft49HTp82bN8sbb7yhfytAWAbvGaNEopwZJs6jMkw216PJrk+dOlXmzp2rbZIPDv369dNVAwYVWYVN1EEfjF3Hjh11tVFYGV7eETg3BJivhSH/ws/vc9OrdNdiRNh1ZaexcvhUCCGQsSFc0g+CLkyCfCFwQiDE3u2PoyBNHruE0Alj4I1DuK3CI5l42fyxFp44TwPhvfPUDd4xRoHyxM2JqZtMSDW/BNFhgFg9QHhGvHjRtBn9oy4InLKUIwyEAcM4EL+38AzXLTTUsmVLjb9Tj3z+KIywDfri8RNWgqBj9aRf4IBs2seAWEI/NnXpq61WLA/8WCkRk8fAnGtCLoaJVQMyPTkCyUOgMPPNiT/PcSnkvYvTu2f37pmBw0YEuSfC52j4ZCaM+FEWYoVUMAJR4sObxXO1axwbIVue1aE+1yBDrlm+laedgiSrF1sWuehhulhblKNt05N88kimhx0jw/LQy/pN/cwzhiZ0QOvaf7H9suv2Tbsm067Zt2HB97km2iedj4xzbdvrOQKOQPEgoMS/Z89ZxJ+wUA/dggTjJYiTj6XY4+g5xBSVE1vXZOT3XdB60baRGT2P6hE9jpaDsK1OXrQc269Y/aPGKDYvEedO+IlA0WU4AiUDgc8fri8Z/Ul6L4xQ8yL9pCvlDToCjoAjkAcCTvx5gHPOWecRkjnnNr2iI+AIOAIFRMCJv4BAFbiYk36BofKCjoAjUDwIOPEnEncn/USi6bIcAUegiBBw4k8UsE76iULS5TgCjkARI+DEnwCAfWM3ASC6CEfAEUgaAk785wm1k/55AujVHQFHIOkIOPGfB+RO+ucBnld1BByBYkPAib/YoPeGHQFHwBEoHgSc+BOBu2/sJgJFl+EIOAJJQsCJ/3yBdtI/XwS9viPgCCQZASf+cwRc4/tO+ueInldzBByB4kTAif9c0fed3XNFzus5Ao5AMSNwFvHztkl7hW8x61ZszdP/rJevObsX2yB4w46AI1BkCJz1WmZ+qIMf/OAd86U18YrkJavWSb1a1aValcr+DvskTwT95YDC/HZHkvXz5hyBhCEQfMvicC/PYnf7UZHcfhQkYR1OZUHB4z9y7LicOl0tlbUscbqxyjodPrraKo67ocQh6h1KeQSCg0OEoUz4JDPSchbxpzxQSVIwmYOQpC6ldDMnT56SLTt2yaZtO2Tf/oNysgA/sZnSHXLlHIF8EGBRWz5EVmrXqiEtGzeUhvXrJI38nfjzGRzPLloEMLDHw+8Bz/50mRw5elxaNmssndu30RuiaFt26Y5A8SPA3N+6Y6csXbNeDh09Jm1aNEkK+TvxF//Yl2oN+NnKLdt3yaEjR+XCrp2kWeMGUin8QLQnR6C0INCofj1Zu2mzrAzkX61KJWlUv26Rd/2sp3qKvEVvwBE4gwDefmYI8WzevlPatGwmLZs2ctL32VHqEKhSuZK0atZE6tWpLRtDqNN+zrUogXDiL0p0XXa+CPAEFTH9po0aSvny5fMt7wUcgZKIQOVKlaRB3Tqyd+8BJ/6SOMDep5wI4N1khnBPxQpO+jmR8bPShACr3/Lly4V74WRSuu0ef1Jg9kYcAUfAEcgfgWQ9xezEn/9YeAlHwBFwBEoUAk78JWo4vTOOgCPgCOSPgBN//hh5CUfAEXAEShQCTvwlaji9M46AI+AI5I+AE3/+GBVZCXby+dhr/TlOxWR6pqJurpMj4AgUHgH/y93CY5aQGjzGyJ9rHzl8RPbs2y+VwnO8tWvVDH/AVEF4NXYqpczMTH222F7gl0q6uS6OgCNQeASc+AuP2XnX4DUFK1aulg8mTJYNGzbqa1lPf3ZaGjdqJJcOu1i6de4YDEHF7D/kiK4Eon/VF71uSkXzuRYtE83jOueWHz02WXwfP35Cxn80WXbv3i0jrr1K6tSuJfzRVXEmDNGBAwdk27Ztqn+DBg2kRo0a+jrx4tTrXNqmL0eOHJHt27drXxo2bCi8Gv18XovO/Dp+/Lg6EBXD6y9sjAuiH2N77Nix7LmBQ2KOCHMEffmQ0BH5nnIiAE52j6TC75uYLlEtnfijaCTh+FS4seYu+FTeff9Dada0idx68w1Sq2YNORpe0LRo6XIZPeYtIeDTs3sXvbEonxlWBqdPnZayZcvoX7dyIzOYp8K1MmUukJMnT4bzz6RsubL6cjO70bmWeTJ+XeozKXkrJjJ4DTc39MlAGmHeStmQx+8yMIl379kr28KLpCCU4k4Q/ssvvywffvih7Nu3T9WpVq2aXHzxxXLXXXdJvXr1ilvFAreP4XrppZdk2rRpasgYt7p168pVV10l119/vRqzAgs7U5BxnTVrlvz2t7+Vtm3byg9+8AOpWrVqgcWsWbNGvv/978uhQ4cEg/rNb35TevbsqXNl//798tRTT8lHH32k5xdddJHmO/nnhBfsPvnkE70v+/btq2Oas0TxnznxJ3MMwo194MBBeee98dIgvJjpquGXSJPg5eM5fRY8/pYtmknl4OkfC95aZiDz4K/L4qXLZNLkaYF4d0jDBvXl8kuHStvWGbJq9TqZ/+mi4IHXlqXLVsjOXbslI6O5jAxeeaNQDgJftCSr7vadO6VRwwZyRajbqlVLWbZspaxYtUaaNmkkS4KxaZXRUtq3ayOTPp4my5avDN5iprY14prh0rx5E73JzetLJlyxbeGJvvLKK/L8888LZN+/f381gPPmzZPXXntNi3/pS1/SPAhQDVnAEULldRD2SggMJR9wz8L+Mz3HsEXLmLeGHK5TlmM+GESMJcbRsOHaiWCkkc01ypu82L5s2LBB/vd//1fmzp0r9evXl44dO6rcZcuWyRNPPKErgK985Svq/dMX5KJfbF+Qa+2ST1kMInJom3MSOsXqbQ6CFjjz39GjR7XuwYMHZcuWLTJp0iTp2rWr9nPv3r0yfvz4bNnNmzfPlm+40B59p20+6Mbqg7bMueAa2ICdpdzqk0958umD9d+OzehYO2Bg7dvYgh0ptn30i+KKPpQhIc/yOLf+cEwb6ENZypkulKHNjRs3ytNPP631a9WqpQacvFRKTvxJHI3Pwk2xffsO/Qy/bJiSPhOZG4MbpkrVKnLJ0MH6owzlwqRatXqtvBZWAM2aNJHBFw3Q81defUPuumOU7AqhlxmfzA7eRB3p2aNb8M7qhfM5Uj94jMMvGyobN28Ndd8OrzluKoMH9peVQdbLr46Ru26/WXbs2iWz5y6QWXPm6aqD0MIHEybJymAMenTrEiZqNZk+c46M+3Ci3DLq+mxiSyJUcZsCp9mzZ4f3meyVAQMGyN13360kv2LFCpkxY4Zwk4EnNyKEOnr0aFm7dq2SZ+/eveXWW2+VmjVryvvvvy8ff/yxDBo0SK6++mot/9xzzwne7o033qg3NHUhNohl5syZ6oVjaN588009x6tr2bKllu/Xr59itHz5cnnxxRdl1apV6mXjEY8aNeosz51VC8Zr+vTpSqr/+q//quTPHICwf/WrX8n8+fO1nxAJHjz6QCjVq1dXg3fzzTdLnTp1dN5QB/3XrVsnTZs2lWbNmmkfjMRo74033pApU6YIhN6+fXu55ZZbpHPnzmeNLfjRJv3mmLYxBshauXKlGiSMrhE8A7UrzCcMMl4uuDCfwIrx4ZzVB7p26NBBxo0bJ4cPHxY84XvvvVe94R3BqaE+bVGeFQr177zzTh3TTZs2af8WLVokjYKjdOGFF+r4cvytb31L+wBerATBqHZwhoYNGyY33HCDsEp59tln9btHjx4yceJE1Rf5l112mY7np59+qnow9pdeeqn2e/Xq1arT0qVLte+Uv+2223S+MXfee+89adOmjeLJXAOTa665RsfzL3/5iyxZskQNxGOPPaZzDLzNQYg7uZN80Yk/iYDjHRA2CV9hotXWCYVXMWvu/OC1r5QTmScC6ZfR1cBFA/rJ1OkzpWaIXV8ybFAwEg2lY/u28vdnXpCFny4JK4NKwaPIlCGDL5IBfXuFuOwJ2RF+yGTzlq2y/8AhmTptptSqXTPUHRy8/frSweouWhLWERfInj17Qt7FcumQQeFGrSyr1qyVIRdfJP1691S99u7dL0uWr5Dj4ZfINPaURJxyawpCatGihRIvN/DOsJKBBPBIuSkhdQhr4cKF8otf/EI2b96sRAExQcqEVvCiIWZuXkIZV155pXpmrBogAEgc72zy5Mm64W7xbkgLo8N19IDcJkyYIBDED3/4Q6lcubL85Cc/UUNDnJ62MUjE7++//37Nt35BpJAFiRAVspFJIlSFwSFBYLT5s5/9TMkKorO+sCfwyCOPqHfPyoE+Ux6jRx3mFWQN6Y8ZM0b++c9/qoeNV/vuu+/K+vXr5T//8z+VvLSxyH/MU/rTunVrxQzCZUWCoUImhAeeEBnEilEiZAX+rVq1UuNFexipXr16qcFBJmEsPGXGATKnP1dccYUSNsSP/hhTDJnVJ/9vf/ubvP3226oT3jb6gG+XLl20v5T/n//5H92HAj+wwEiBBeMJ1hAxuGDMWMkwbswhxheHgjpghUyuYXypg06MIfJwOJg/rNY++OADxYO5AtbsgVH/jjvuUHnASVvk0edUS078SR4RbhxdHp74PF5OnJ3JdyyQLCGdjZu2SLcunWRdmGAnwqT5aPJUvWlPhYl8+OgRWb9xs2S0aK6eeeuMFnqDlSt3VOrXqys7wwRkoq0NNzZ7ABMmfSzlwwvQTmaeDD90clTWbwg3XAj7VAk3dr8+vYJ32ETLs0rYtXuPLAhGZVO4MeaGFYF6KGHDgT2HVEiQ7e23367EAQHjYXLD4m1Bng899JASD0QEsY0cOVINAqGP//7v/9awBV4+NzYEAjEwFiSO+eDJco3xwDNlRYAnh6cMAbPZ+aMf/Ug9UeLdeKkQCGQOmVx77bXqaUJMtPnWW2/ptYyMDG2H/xgfCJy50CSs5qIJAwCxkjDOr776qnrZrFZuuukmJTxIjjYvueQSzcNgIf8//uM/VCZ6EZKhH3jAr7/+uhoq4v0QP6sN9hXwvjFKFi4xPahnKwvqYiTx2OfMmaOrFwwtxpMEjuDJPgA4oQeGhpUPxElZyI820B9DYHs0jN2QIUMUaww42GH0aJMyixcvlk6dOukKjc17DCzGmlXX3//+dx0rcGQ1gyEEI/ZHwOPnP/+5vPPOO7rPwbgyl1kljhgxQq8/88wz2qcf//jHusr46U9/qgaBushiBcGK7cEHH9S59Pvf/16mTp0qgwcP1naZGxh4MKf/rGowZhiJe+65R8eJfrNqQU4qefuMmxM/KCQpMfjE9suVKyubt24NS+7W6un16t5VOndsF26QTHnznXGBnDeG3/sNxiBMHB75ORGerIHEPwubta3DjdU4/ExbheBplC9XPntCcbPiYVBeiSusANjs5amcrA3bULdVhq4coLpq1atJ1eDpU4F2Jk6ZJovDngB7DnXr1Qk3TOswebdmE2OSIMq3GcIY3/72t5XUCe9ARpAQhoAb8Lvf/a6wPIdAIQEMAjcjxMSGMJ4qxAtWiteZFqPn4Eci9s6eAasMPFBuZEIUyMLY0BYeL/LwEDEWhJYgawwBiXxCSBAaRE9iHkDA6EWdaIJIWcmgDx4k5IfBwwCxWYtH2717dw1tQVJmQPr06aMkS78JV4AH+q4L4R88VYgTrxkdCK2Qh2xIMR7x0ybhMUgVnPHE8WohaEJqJIwkciF0SBziw6umPHngQgJPyuG9gwPeM2MBNlwnHEZ9jDXGnPrUAUO8c3DCAOC9sxIhHERoCxzBCANDfxhbZGLo6Sf6IhNMMWTU79atm2KCp47RZTxpo3HjxrI13JMcs1JjXDjHANE+feHbQj/gDCaQOuPF2OAEMAcxCIwvGGCoMJqplpz4kzgi3MwNQ9iFp3lmz1sgXTp3CPH7xmFSVpMaF1QPz/Pvky2BbCF6JjUbtzzxc+UVl4bv6kriPAZaLcRAdwZPR58DjaM/7dQJoaS6YcJdefmwsASn7vEwodcEwqoqm0Ib5cITQiSMyfbwQyjTZsySyy8ZIv37XhjyyoaN3umydVvWI4ZxmiiWSxDY2LFjlRSvu+46gey4hieGx8VNyY0OMYCBERTKcuNzDU/NiJ0bk2ukWAKGOLhpIX/KQyiUhaisDiRMKIAbH1KAYKwcMgmVQFSQjLXJdUgDoqEeYQoIkWskVg145tQhbAD5MResL7RNX0iQnuVjiGgjqiP6sFLhOsQFkdEviJ6QBsSH7NhkciAwQjwLFizQVQJ1iXWbTNpCBzbWWWHQVwwzuBAOiSb6A5bUsaeMrD6GEkPAdfYoqI8RQQ/GiISelCchy47pI2PKN3MBQ0Y9DD7tWf/4ZrVGHlhTH3K2Ngx/DAjzh8Q3epDQC2MIzmCODtExsT6hLx/kkkx/PUmh/5z4kzgYTAZi88TWX3xltIwZ+65cFUidp3X2hj/ien/8R7Ih/ARbrfCHXHjzPbp2VkLeFZ7YqR+88K3bdsikKdPlmqsuD5M3PLFxZnJZF5DP00FMSurOCBu0u0O4oF6ou2XrdiXza7VuuTAhsyYm/zPZTwTDQKyfz86du2Vh2As4eOBgeJQ06wmWmKasyaR+c1MTxuEGhxzwbPHG8bK4KSFvbnBueMqwEsAr40Yl5AE+xJXxBLkhWdJD2BAHpIj8aAJH6kB4kCDHEAHySHjDPNqIF4lBgFggRh7FJEHqyCZ0gwxLkAeeIuGEiSFkQ7iDVQSEimHDE8czxjjQLl4oXjK6I4++QFyQLP2G1FlpoBfHGA+IEP2pT1ni79/4xjf0G48f3YjHUyZeoq/0if7gyeIFt2vXTo0toR8SWFuohXMMFu2xh0DfkEHiGx0oz7cljtEFHNGDUA7jSogGY8M1xhJSBnc8ejAhTEU/SZA3dQiLDQsbuhhR5oOt+sAo2ma0bTuOfjOGtMl4YRwfeOABnSus2jDqbIjbXgH9sRSvDeYYujCvzLBY+eL+duJP8ggwWXhy5nQI5XwQnpr5w6NP6I+QEMpp0rhR+COpK/XpGrzuiwb0lW3hKSCexmFi4am1ad0yrBgaB8I6Gs4r5JjU3Cjly1cIN0N5rbt95y554eXR+kw+ddu2aRU8l8ayZ+++7LrIbRhi/h07tpc3giH64MNJSv6sSnaE+lPDSoAbl9/BjdyzSUYtqzluSsiHjTVirjxtAzmx2Yd3xtMq5HPzQ/rEgSF3Pmzw4cET5yU0QJ+4gR999FElLwjISJA8PiS+uWmJTUM61P3rX/+q3h6hE8ia1QekTB4boHiC3PBs/kI8xL6jxIBnjI7kU4e9gIyMDDVWEAyGAePBNYwb/XjyySeV/FjRWEyfjWGIlzAUIZLHH39ciZ19BdpHb4wO3i9yIVhWIZRlgxVSi5foM4bDwiPgzjlyIFmSYcQ3BhcCBgvaBVfIjjqWKGcpWhdypD5Ey+oBw2b1yWNVwpiBK/F02sfwkZDDhjGEj7HkqSXmOZgQ6mLMmBNWVg/O/Gc62DXO0Zexo02e2gFn5hpjx1jRNuEvUrz6dg3cMcjoaY8ZDx06NMccsHaL69uJvxiQ51n9vhf2lFZhg3Z3IOH94acHa9aoHiZW3XCzVQ2PX/YLoZ3g9ZcvJzdef41cPHhAILYjUj2EaerVraPhmqphYmEEOGfCQlqEdXj+n7rlypWVm6g7qH+4mY5KjSCX0A+hHsI5hJnqhroYIOTeddsoNTIYoJrhcU48xIsHDQjL7yrBMFVgpivJcjMWV4IQeaqCG4sbG88SQ0r/ucnvu+8+9ZTZJITYyGejE50hYPIxDBgL4uQ8ycMNjneNd0cdZIMl5AzhGWFT5mtf+5o+YYJHShm8Wx4BhHjQgVUDG4/En8knPACBo3c0IZOVyPe+9z1hk5GYNkbMiIfHEHn8D1Jjg5qQEKEUyJ++QGZsyiKfMhzTJqsh4smsgugLZAyJffWrXxUeK2QzF73Qh01KQmXRlQg6giekRf/Jw6CBDQYH7x+ZYES+edsYNnD89a9/raEvyBPsIH/kGZaGgeFLfYwx9XnElqeT0N+ezsIgkM8GKzJZ1UC+jN3T4Tl5EsaJ/Q9WRfSP8UY+Bg+DbG1bf6hDvzjHSJDQEX3tA7mDKU8asUmNPHAYPny46mP6W33Gk2Nkgg1jwkME68L+CnOM8cBIx2KtjSfhP5vD0aZYd7FeYb3HTl+F4DmNDfGqfuG41Cb+WnbWwqXSpH6YhNWqqHVPNBgMBn8xiyPEDVI2TBgGA6+BPEI25DEpSdzw0eOs+mX0OnVI0fzY82ietc1fA5sfRr55LFbW5FKelGjSR+7hsHIZ9/FMGTl8mNQO+xkFSRAhxIYnD3aQAx9uTm48EqEeKwORkY/Hzg1KP3jqxsI71ONmxlulHAnZ3MgQp92whMQgGFYHyKAeN7nF3AkF0Cb5XIOkkAfBxUvgS1k8VNozokUu5EeiDGEMkwtpY3AoY3LxkgmFIIN6hCrwvtEfg4eu6A1uhIOoj27sT8QmMICwwCMjrDhon7a5Tj1i2WyeIst04Zw69J+2kYtO4M45RgNdkcfcwrMHe2TRD8aK+lwHL0ie+uRDxhAwZfCaKU/o6Ze//KUMHDhQ/vCHP+iYkk8fwQoMDHvrO0aVuugENpRFf/AhbEQfzdAwdrTPHEEec4q+0xf0oS36jwPBnGIOMobIZT6gP1jQR3CjHu3YfRSLuZ2v3bhZps6eL9cMHZh9L1veuX4z30MfZob2RwQZ/CUbccpM7mgn/gBCNCWD+KPtMSGMZKPXS/rxuRK/4cJNDW5GzHY9+k1+fjdctHxxHdMX9MxL11TvC30wp+FccIxXH8Noj1KyJwGx8gQQWDz88MPq1ec1/ueiR3HVSSbxe6inuEY50i6T2FPhESgIyeRFpIVvsehqlIS+FKQPeSEYrz5ET4iOlQAbtnjihE348HhmSSH9vHApijwn/qJA1WU6Ao5AQhCA2NmXIebOBj5OEiEswiwW1ktIQ6VMiBN/KRtw764jkI4IQPR8PCUGgaydw8TIcimOgCPgCDgCaYCAE38aDJKr6Ag4Ao5AIhFw4k8kmi7LEXAEHIE0QMCJPw0GyVV0BBwBRyCRCDjxJxJNl+UIOAKOQBog4MSfBoPkKjoCjoAjkEgEnPgTiabLOicEyoS/WPXkCDgC4TUKSboX/Dl+n23FiEDWmy9bhDeGhr/M0ddD+18xF+NweNPFhgB/Yc6PKzVv0ijP13YkSkEn/kQh6XIKjQBvqigf3iLaqU3L8IK6rF9cKrQQr+AIlBAEqlQsLx1aNXfiLyHj6d3IAwE8nUrhdwXw9N3bzwMozyrxCHAv8Ar0ZNwHHuMv8dMp9TuYjIme+ii4ho5A1mu4k4GDE38yUPY2HAFHwBFIIQSc+FNoMFwVR8ARcASSgYATfzJQ9jYcAUfAEUghBJz4U2gwXBVHwBFwBJKBgBN/MlD2NhwBR8ARSCEEnPhTaDBcFUfAEXAEkoGAE38yUPY2HAFHwBFIIQSc+FNoMFwVR8ARcASSgYATfzJQ9jYcAUfAEUghBPxdPcUwGPxpNp9osr9ete9oXlEcW/vn2l60ftYxr1yIr2m0bPwSonhQDn3OVSdkF6St3HTw645AaUHAiT/JIw2pHTt+POtNlKc/Z8qy4WVlFcpXkAoVyp+3RqdOnw5/+y1Stmz8BR06HD9+IhDs6fBukIpyQZmcRig/Bah/5MhRlV8+vFHwyNFj4X07FaVc6ENssrLkUdaIObbc0SAjMzNTKleuFOQUfFqeOnUKtpeyZcqowThy5IiUDfV502FubcW27eeOQGlDoOB3WGlDpgj6CxFBbqPHvCXTZ86RzwJBlwmExadxo0bSqWM7GTywv9SpU0tbN+LiGwIN/8Hn2XlK1yHPrlPmdJC5YsUqLde2TauzXvqErBMnMuXdcRNk7959ctP110idurWDiNOICZ+sFqxtO6dRrvE5fPiIvPDK69KyRTPp0qm9PPH3f8iNQU7Xrp30feJWDtUOHDwkTz71fCjXQS4e1F8qVaqU3YbJxIg8//KrsmTZCrlt1A3Su1d3NRLx2sainVExYHlSlq9YqUTfrm1rOXr0qLzw8mhp27qVDLqonxojbSOrIW03ViZZJHQmLzaf66TYPL3o/zkCaYqAE3+SBw7S2rf/oFSuWEmuHH6J1KtbR44dOy47d++WSVOmCx7slZdfItWqVQ1e+XH1zPHgy5UtK5WCN4xnSzoRDAj1TofyZYJnXzkQKp4yRDt1+sxgAD6TmjVqSNPwfu/YBIkdOHhQ9uzbJ4ePHJZy5cupwcAjr1SpohanbXRlBWKkyEoFPVhJdOzQVnWn8I6du8Iq5tgZA3RB0Ouo6odBQ8fdu/fIwUOH5TQCYxJXdu/ZKwsWLtEVw5x5C9QA1grtWnGMGXJOnjypulQMb/OsEN5iuG/ffpn88QzhvG7t2lKjRrVQt700qFc36FhWyRojd/zEiaz+BXzoH3ohkz7S52Nh9QPuvCIaw0Q+Bubo0TMrs3BcvlwWNll5MZ3wU0cgzRBw4i+GAYM8atSorl4wxHzq1Gk5dOiQrFy1VpatWC2DBvYLXmxZmTBxisyZu1D2HzigJHvFpUOCV91ZNZ40ZZpMmzFLyQ9ZFw8aKH0u7CFjxr4jM8JqAmLbuXO3PPTAPdKwQX3R8E+kr5A5xPfWe+Nl85atcjJ4z3jN1159RTAY1eXDiR9LZiDNS4cNVl0PhxAKK5WWLZpL1y4dZe26DVqnWpUqagjMM966bZu89c44Wb12vYZb2rdvo6GtMnHCSapDIOUFny6ReoGse/fqpsZvVzAUGC0ShLxi5Wp5f/xHqmeFEJq6sGfXgFH/0Nf3ZNaceSFUVUb27Nknd95+k6wN7bKSapXRQg6F8NH4jyYH+Yt1ldKoYYNgVIdJh/ZtZfuOXfLK6DdCmz1k9tz5smXLNiH/xpHXSquWzXU19Mbb7+uKAoPTtEkTufaqKwJGrc4YhgiYfugIpBkCTvzFMWAheqAeZ/BiiW0r8R8+HDznndImhCnwVj+cMDmQ7xTp3q2LDGzWVxYvXhrCIaPli8HTJf+9EKrp0a2rtBnWMhiLVfLeBxOkRfOm0q5Nm2BA1qj8Lp07hJh5ZQ37ZP+kG6GL8A9CXb1mrZYbOKCvHD92TD6eNlM99ZHXXSXbtm/X2H3myUz1sk8H47Ru/UapXKWyhli2BqKsElYgECwpBIGCV39IQy17gyc+OIRa0HP6J3Nk27Yd2k5oNmcKFwjPLPh0kfTs3kV69+wus+cskIXBEDQJoS/i/Vu2bpPnXvyn1KpVSy6/dJjs2rVLpkz7JKw8ymuoad36DdoOfaW9TZu3qtEgfDQ+YDht5mzp27uX1A+GZf6CT+XZ518JxvALqs/CYBD27zsgffv0UtynBrnjgoG55abrZXJYfS1bvlIuCYavYth7mf7J7BAe+zAYgLukRvVqcVcvOTvnZ45A6iLgxJ/ssQlkR6hl244dMuatd6Va1apyKMTM12/YqJ79qJHXqUc5dcZM6dShvVxz5WVSp3Yt6RJCGI/+9SmZEYi0ZctmgaiPS0ZGc+nWrbO0DV5onTo1NeTRrUsn9XA/O31KBvTvLVWqVg6riRBmCV4wiY1cC1ewIQvJd+zQLnj3J0JMvJK88/54GdivTygf4t3ho1Yj1GN3gVAN4Rf0R97noZsLdEWxavXaYBw2yF23jZJeIU4P0TeoX18e//uzKo/2o+nUyVPa710hzNWhXVupVr26tG3TWj5dtDQYjv5h1VNGvfGTmafkpuCJZwRP/GAIZRGeORX6R18xcvx4xYB+vUPIq6waNHTdH8rNmDVH+gSP/urhl0r1EDpr2yZDHnv86bAimqurlvIh9NOrZzcZevFF2p8jYRyWLF0ewkrHBOPFBnHHsDqoW6e2rkjWb9ikxoXwlCdHIJ0RcOIvjtELzAHpHQ5eKelUINh27dpIz0DinQPBbw8x8337D0iXEFKpV5d4dRmpV6eOtGrVUrZu3S79A6E3btxIXnv9LZk3f6GSZZeOHTWkg+eN5/tZYF3i1UePHJNnX3hFdu3eq547XvRto0aGmHU5aR5WCI0bNdRN0IqB5Hp07ypvvTsuePs7AoESTy8YOJRjBUGsv2owZKwCqoYQEAaiXdhgrht0J9QTJUwL88wKHj4rnnkLF8mKVavlQAhrYQTXhU/7tm2Cx79dmjVrLA3r1wsEX17K1aopI665Msg+rcYGI8a+Q8VgxE4GHdAFo7Rr127FlxVTrZo1FMMGQUbLli10FdG+XetgQCpoeAujwKY7+y18s3/QLWxUL1y8JBitf4Q+ZOiKgE1n9hPolydHIJ0RcOJP9ugFzoD0IFy8+8aNiL/zo+NlNSzD5u0JNlbDtcq6EXnmaZOgZ6VASMSba9esKfffe4csWLRYPd4PJ07W/YB77rxFiQy+hpqIdWM0eGKoSpWq2lN+5rB82Mwl8fgoukBklIdYlZDDZicef86UVS7ntc/PkIFubDBfENrMIsfPdOOZjVHk5kxhg/nAIfk0hLDQk1BWKKQyKDd37gJp1rixPvZapXIVYklBZpYENqM5ORVwyuopp5/ryzEbupgaMKRpy6eP+/Zl6jmrHzAlkY+OrGIwnKwmHrz/Hlm0eJmsWbtO5s5bKC3CU0xfuvdOqRsMhCdHIJ0RcOIvjtELRARB1g7eKySCxwuBKXeF/2qH0A5P02zYuDmEe9oF0q6iBLg1eOI87bN9x059Eqd/CG+wEbxt207565PP6EZwk0CWWWQeRAYiw+tnU/h08JBJZS4oo+EevOPtQR6PZuIJ4yVv3LxFPfe64XHSnSGWzqoDIkQesXg2mfHsWVXkSIFzMVh1QkjkUAix8LRNowYNaD7E0PfL3v37tI9WC3l41guD4SoX6t133926WoF8eQqHp5I+CRvU+4cckJrBW2eVw1M9tWuVCX8/cEQmTJqq+vYLsXnta8COb01BF1YBhMfKlCmrqwcIm7AWMsCuVsCdzXO1djk6kmWUTwSjsXHT5rBqqaqb3fzNA4bo1TFv6qY19Rk/MyYxIvzUEUh5BHhuzVOSEYAw+GicPBBu1nfWNdiyRniipWMI+Xwye64sXrpCdgSyYnOR+Hm3Lp2V/EaPeVuWL18VHuc8HYwEjylW0I1XPHw84v0HDp4J2ZxSY1G9WrUQ566mxxAjj4ES0pn88fRA+JuV6D78aIrUD0agWbMmapAgP57e2Ro2WHlskuf+1ToFjrU+AB1GBS+5QwhXVa1aRT74cJJuBG/evC08jTMpGIJQT5NRv+gfgM2Zv0Bat86Qls2b6RM1PH3UPLTdt3fP4LEfD8/1r9QVzM4Qtpk1e56GaBYtWS5swtYI+wHE4MuVLacGanvYM8EoGRljhHhKafLUGbJy5Rrt67RgULZu2y69enTXx1/BPZq0bhgX/j5g/oLFMvad92X3rj26aqpUmT9QK6/1LgjG09qJ1vdjRyBdEHCPP8kjhWPKM/fEwCHgwDM5EoTCZuWIa4bro5k80UIdPPVBYcOzb5+eer48kNnLr72hz57zqGaDevXkohD751HMtoFMF4XQyZNP/UP+9f99VZo2baLGxRrCYycWzxNEq9as1adqTgSyqxVCSDeMuFrDUJAbj0E+/dxLSuZNmzTWPQZWHNB3lfB0D140nj4b1BgbYvmjbhihhPm7Pz2mm7CsJpqFRyGrhKeLbKFAH3l2f++e/XLxgAHBaFXMJm089/r1wn5GRks1dP2DVz90yEXy0eSp+mgmcvjDtO7hsdaqYeOaDduxb4/TPxL7ly/do4aN1VL1oNPIEVeFR1Dflieeek5XBIS4Lgurn25h72T7zp2hbBiDYLCy0gUa26dfyB0YsHzltTfl93/5q/aD5QGb5exfYFyd+G02+Xc6IsA9jNfPewLCnSkVwvPkYwMp9AvHpTZBpLMWLpUm9etIzUAOibzJkcVjj4R3eCwQTzle0nKETUK4hTALhEsISAk0VEAGz67z/H/FYEgIG/HBmPCHVgeCx0/MHQ+ejdxoQjZPEp0M4RZCPjzBwuOehFWQQRgDb5jrbAqz8VujZnU1ODxHzz4BfyhWIRApm6r7wiOR1UNfKlYsH9pE3oGg9z6VUzN45rTHpjKPllpIhlAPfVPPPRg6jJslyrNiOR2e3KlZo6aGufaGVQN/BAZmrFyqnjFAR8MTOPSVPYl64S+Q6RfED07IIQ9ZPKnD3zvQP8JfmQEbQlIYOwwCZQkFHQlYs4eCPabNPXv36goAPcG/WljReHIE0gUB7s89e/bMbNas2Yig84nw4YmSTCf+OCNYlMRPc1l/zBQ2EmNCDbGqQOJ4mpBa1urgTDgIGYEpISdkIA8P3eRBrlkfnrbJGc6wNqwM59SzcwiQD4k2o3lcs/yoPtHjz+XQbpYe0Xockz4v93l7WTlZ/yOTFG2f42hb5CPH/kbB9iNMR/Kz5JyNIYYmK2ST9aoKk4U82tHzoAMbz8gzfQwbLeD/OQIpjkBuxJ/TFUzxTpQU9bKemImJ8cTpnBEQWdFjPT9DzhAVhzzeaClKfHYt9ju2TOw55a3NvPKi5TjOWTY+qZ9djis5k7XN1ajM6HXLO3UGCzvn21K0fPQ4FjPKR9vRczMAinH+42Vt+rcjkOoIZLlVqa6l6+cIOAKOgCOQMASc+BMGpQtyBBwBRyA9EHDiT49xci0dAUfAEUgYAk78CYPSBTkCjoAjkB4IOPGnxzi5lo6AI+AIJAwBJ/6EQemCHAFHwBFIDwSc+NNjnFxLR8ARcAQShoATf8KgdEGOgCPgCKQHAk786TFOrqUj4Ag4AglDwIk/YVC6IEfAEXAE0gMBf2VDHuOU9T6XyNvD8ijrWY6AI+AIpBoCvNIlXnLij4fKmWv8chQ/w8c7XDw5Ao6AI5BuCPCSNj6xyYk/FpHIOdYyN4sZKeaHjoAj4AikJAK5cZjH+FNyuFwpR8ARcASKDgEn/qLD1iU7Ao6AI5CSCHioJyWHJb5S5xx2CnsUvksRH1O/6giURgSc+NNg1NmYP3nytJwMP0XIj7gUdK/ZnkoqF34jtnz4iUcn/zQYbFfREUgCAk78SQD5fJs4cjxT1m7eIRt37JX9hw/n+nOKse3wk4zVwm/PNqlbU9o2bxSOK4XN6thSfu4IOAKlDQEn/hQf8d0HDsuCletly869ciLzpJzmJxYL6roHkj985LjsDj9qvnX3funRvqUagXMOGaU4Vq6eI+AIFAwBJ/6C4ZT0Ujjmx06clIWrNsiGbbvl5KlT4afL9efL+a/Aib9BOJF5Srbt3ienl38m1Xq2l1rVqvrfJhQYQS/oCJQ8BPypnhQd01Mhlr9myw7ZGjz9kydPFobrz+oRdgIDsGvfQVm1cbscP5Hpf59wFkp+wREoPQg48afgWEPUpwNRb9m1L3j9iSPpU2HVsDkYkuMhZFSYVKZMGSkbNodjP1xPVNgotz80MT3Jp/2CtpefPJOb3zd95FNcKbYf+emTX34y+5FIXQo67kXdv0T2qah1zUu+h3ryQqe48gLz46EfPHJUTp0+LWUKuSNrr5iIvVl4qPPgkWPhyaDTuoIoyFYBsvbs2SNHjx7VegYJsnmdRfXq1eP+SbiVK8g3+pw4cULKlSunn9g66HDkyBE5cOCA1KxZUyqHDeu8Un7y8qobzUPO3r1ZK666desm3QDQ72PHjqnBK1++fNjUPyU7d+4UjsEhdnxZGTJW4Fi7du2z8qN9K8pj9MrMzJTdu3frHKlVq9Z56UK/kUe/Mf7FldADfBmXOnXqnFefiqsP1q4TvyGRgt8Qj27kFiKmTzcqVawg5cINcvT4cX38M7trgekxJAUhfOpwA0O4f/nLX2Ty5MlKfHbjQfr16tWTK6+8UoYPHy41atTQGwKPiHrcHPax9i2Pc8vjGzKbNGmSdOzYUbp06aLEZTKog1GYOHGivPrqq3L//ffLgAEDlAQowydW3o4dO1Re586dVR46044lZJIU3/Ade45M6nCT/+53v5MNGzbIb3/7W2nQoIHWMd1VSPjP9OCbPJNr17nGMcn0iObFyqMcOmHo3nvvPWnYsKFcfPHFsn37dvnud78rHTp0kEceeUSNLm1Rn/Jbt26Vn/zkJ9K8eXP55je/KVWrVkVUjrZNN82I/GcYWHnTyfS1fM6tn9ZutG/Ip+yWLVvkZz/7mbRt21YefvhhqVSpkrYW7XesLtSLykI+ZdatWyezZ8+W3r17S7t27bIxjKiv9aKyqcvH+mN5nFse33Y99tjKqIDwH/Nh06ZN8pvf/EYNMPOBPlm53Ppi+XzHpti2o/lWj2vRcnZOPtdJ0bJ6oQD/OfEXAKR0KcLUgvQv6t5e6tasLuNmLJB9Bw8XesUQ7S+Tav/+/UpCN954ozRr1kwn2uHwWOnHH38sTzzxhBqAwYMH6w1vqwNuFFYD5p0jB+8ZQ8IxL47Ca4XUFy1aJP/4xz/ksssuEzzr+vXrC/K5sY4H40UdSLdfv376DUGYXiaPshgfyi9cuFDlYZAwTo0aNcq+SbhBzStGPxL9w6NEH/RGBiscdCAPvTmGePH6qlSpItWqVcuGibxDhw4pSaGHeeP0jetcQx4eOZ4iOkDqtAkO6I03S58sUXbNmjXaDwwiBIo8dNm3b5/qhWywgODRCaz79OmjGFo/0J96Vs76bO3wTZ+QSR10Q1crTz/JP3jwoOrHasLGhnbpB2NAsjFADnl9+/ZV7DknoS8f+om+9NsS7aIDKxwSfUFX2p01a5biAF7gxyc2kRftK3qb4QNL9EQ2bZts+sI19Ed3vpFDPnXJjybDiTLoxYoGeZQ1XCFjK4dscDRdouNLOZsfOFHoyDnzgfrgw7GNB23SDnOTfPLoE4my5JkhiOqc23HOnuVWyq+nBQIVK5SXzq2aSZN6dXRjWDdxE6Q5Ew0i7d69u052bhIm4WuvvSbbtm3TSbtq1Sp5/vnnlbCY7IMGDZIbbrhBb9SVK1fKc889J8uWLdObq2nTpnLLLbfohH/xxRfVQ/zggw+UlK+99lr17jt16iRLliyRdcHju+KKK2Tx4sXSq1cvbZ9rGAvy0SMjI0NuuukmvXmRh/f7/vvvK1Hi/RL6IEEuv/71r4Xww9e+9jW99uSTT8ratWvVM23VqpXMnDlTXn/9dRk2bJjmc9O9++67Mm/ePL3ZMED33HOPEiyrldGjR8v06dO17TZt2sjdd9+tXvny5cvlqaeeUszmzp2runz/+9+X1atXy9ixY5U4wAGMLrroIiUfyIEPWD766KOyefNmJbQ//vGPWg4ioQ9///vfZenSpXrDYzAxyhAHeGCcGZ8ZM2ZoPzBYkNiFF14o9957r+Zrx8J/yGP8WNUxZtRDb8r3799f+4I+jB1Gp0mTJjJ16lQdW1Ze9H3FihU6phin2267TccI0kMXviEvxuOVV15Rzx09WY3deeedatCQz9i+8MILOg6QIPnXX3+9bNy4MXuO0RZG+ytf+Ur2W3MhOwwVOv3zn/8UVnuQ+MCBA+X222/XcWfcmJfr16/XbjPGt956qxpJVhLIZV7jgLC6Y1UxcuRIzY8lU3CB8Jl7tEnfevbsqTi1bNlSSRk59IX20IWxZa4zB+krCWOIYf/b3/4mLVq0UHyYS127dtV6N998s9bDwKAf8x0ZzE3mBm1++OGHaoAYh1GjRglzqaCp+HatCqqhlzsLASaPTSDLrBBIv0vr5kr8a7ZslwUr1ib06R3aw8NbX6I8AAAqbElEQVTgxuPDDcKNjbfBjcQNR1iEG5WJ3rhxY52wECgTGuLAc4M0hw4dqstmrpGY+BgWvHMIHGJYsGCBvPzyyzrhCV1ASBAmOnDj/elPf1KyJTRECADygbwgacrjRbFKQF7UmzaimDZtmnqfyGXlQnuQDzcaNxeGitUHNyhEyzU8bzyrt99+W9vmOmTz1ltvCTc9ZIOOhAEIdSBrzpw52g+IjxsTA8AqCa8SHGgfgqd9PDkjGkgYXMEFwmjdurXWoX/c+JAwZAWpv/TSS0oc4IYBo20MxuOPP646EI6DlOnzG2+8oYbS2uEbw0n79IN+9+jRQ9vEODFGYE6/CPe9+eabasjRlTGAOCFpxgD86DuEB+FTB10YL4h3/PjxahBZldDeH/7wB51LlP/973+vTgFykAfekCI4MZcYT74ZW4wVCd0hXoiduYcBGBaMNStG9GT+ME8xvujC+BAy4/iZZ57RlQtjCC6MKeMN6X/yySdqMMHTcNIGz7TJWE6ZMkX1ZIzo12OPPZbdZ3ChXdrDUKILhiIqD7msfpgP4M69RFkzmLt27dK2qYMs5jcrGsJNE0PY86OPPhIcI1aX77zzjp5zj8bqa3rHfrvHH4tIGpxXDuGcU2GQM8PTOfgP5cqVlU7B04f4dx84KItXbwx/uHWswJMgvy5zo0EO3KgQHzc9ZA5p4WlmBHIlFg3ZfP3rX9clvhE0XjweCeXNi4Qk8YwJGeDhcFNz8+HN4+Ux0SE4jAoxbW4uPG7a5UbAo+JGufzyy+WLX/yikjOkCllgPIYMGaI3Lx7uiBEjVI4ZSoiUNqkPgdIfbn6W6hACOnCd8BCGgwT5fOELX1Byox5eO4RHvydMmCDt27dXjw99icfjjUOS6IT3Sv3/+q//0raIEdPmAw88oGXx3H7xi19o/zBiED43L3VZCbD3AWnjAWJISLRB3JxQCWEPiH/+/Pm6nwERWmgDosCoXnrppVoPQoM8LfSiF8/8B960/W//9m9KzozlT3/6U/VqCeORD/7oxIqM8cLIMP6scNAZ0sSIQYSQHpjzgfzBA4NCWeYThMVqEfwog8Nwxx13qFcLITKOGARWL7TP6oYVJEYM/anDNwTJHKN9VnC0wfzB6NF/rmM0cUaYLxgh+oZs5iR4IYd61MeQIpM5QD6GJprAAMxZ8YEr8iB95gWODf1APiurSy65ROUxbuDF3GbuW0I37iHGhHkOfqxSDTcrZ+d80z7jftVVV+kHx+LHP/6xhjdZQRU0OfEXFKkUKcembc+OrcLkEFmyJhD80ePSrEEd6dqmmb7OYcbC5bI/xPWZVIlKTDjkMUGZ9JAANwtLVTwQCJwbhesQIgTKMZOamw8vhngvNwVhloxAmGxQQtDIYzmMfAwAJMkxRoKbEVKFkCALrkNqtMsNC7FTH10gDUI9EDs6kKLy7OahLbxKls94ihAQMmgH/bjp8ei4adGFBKGjL+EhCBniZtVD3/G80W/MmDGqB+ckyAfDQXsYE8ibPAgHffEw0RWSo1+QBX3jGF3pL+1yTnmOwZljdIAY0QMDSkIfMCFRl7bxnPHCf/SjH2n73bp1i7vZTR3wxqCgJ8QCwVg4ATzQDayuvvpq/UZf9Ifguc6qihUIOmEQWNmhO/MA4se4sipkg54+EF6in3iylAMnxhMDDJ4PPvigtolezCfK0J7NFeqSmGNgyhhi0MGJPmBoqYNeGCqImdUOZTGS6AxeyGGcMQ70m35ibDAAELa1o42F/zhnHtA/ZFCXYzx32qCPzHcMFbjRf+RwjfmFIUEvErKYo+hL3xk3sMkrUQeMmI98s0phRWh7J3nVjeY58UfRSINjXtnAI5ndWreQCuXLyo49B6R3MATlww2ybG2IBx86GnqRONIHEpugeDncXJxD6Hiqn376qawL8UduQK4z0Vlyc1NlBILHW2di4nnjReOhEE6AKPGCfvCDH2hZuxlsCLgBWLJz40NClmiDm4gEQVCPa5ShbW6kvBI3F8QJyUGK6MaNBykStuEG5uaHrCEZEjpYO5zbMasg+smHPqMz7bPCgZA5t37wjY7UQS59oB6yMHBgEw1J0Q79ik2URx/y+CCXFC1LOxAhexuEJBgjVknE/OkzXj3YWR2TA/Ehj3NwQk+O0ZV2IVVID/lcowxkbAm9qM84WKK+4WT1TBZGAyLEkCMLo2GJssixvtp15FlCDuVYBULApjtluI5MjBDhJ+YrY4zzwpzEEFmiXBR7zkmMT2yiTfoMVrRDWdqmLPcAfeU6unNOwpBA1BgK6kcT7TIHkWPtUd/mBmU5jyZkRHExfaNl8jt24s8PoRTLP306eEnrt+hE6RZCO50ymoVXMmTK9IUrZN2WrKVrzNxKSA+YbNyYTF4mIpMfD4/NWrxkSJpreIQQGcSAR42XC2EQsmCS/8u//Ivqw+YXsU0IiZvRbhZuGJvoRmrWAa4z4SlPom3CI1zHg2epbRu25CMLEo8mynKjEq8nzMBSHY8Qg0Ycltgp/SQ/enNFZXCMbvQZcsRb5DFTyBRPGOOGMbHQjBES8vDEMQ6EPDA+YAchIwt8YhP6QmL0g+P8EuMEaeBd8nQT/WCjEr1+9atf6ZhAguhqiTpghWfOyoHxogyeNjqjG+RiBMM4Q2aQHONHX9ERb5o+Mz42dtRndWKYEwKh/+uCs0BdCBE5bI7j/WcEZwFSJnxFHwgdoh99R0cjR3TnGvgjn7LoD6lD9mzYM1c5Ry9WhGyAEr4hn3lZEDwNo+g3YUycF+Y/cpiH9IkwDv1l/gwLew2sBLgPMLyUs3kblUXfDFcwA1vqoCf9ZZXHHEl0cuJPNKJJkJeZeTJ495tCS59JxxZNw/t81svqTdsCOXzuGSdSDW42bmy++dgNg/fHOSSB90aMHU+eshAIHjSkiAfMExCEg7jJuRkhCMgAUsF7YvKzVCZMA/HQhrVDXzimLW4syB4PmXAJdfH42APAk2fpyzkJYkEe8V1uKJMHWRDGQFe8MsI8EDJeMk+0EAvm5jWiod1oMgzQAS8SgqV/9GXcuHFKLMRrjYStLyzNiVOzaUo56qIf8W+e2DD9rC0jAogK40D/DAcrY+dWF91ol6U/MXR0gvToC+OCd0nfjExNDt8QJ5uexNQZCww3YTE2Ha0d5DM+bNCyaUn4hHN0pT3mBGEyxomyjCtePQaIvoIL7bMhidFlHAgDck595KDHxLCBSduMJ0YK/dEnGhZBPmMGybK3wN4KbdMOoRaeMMKY0m/bIMW4kEddDILNa8MPHMjjE73GdRK4EQbCSbjuuutUBnF59lLYrGeOs8dBf5hzhLTACKNA+SjuUUw5xnjgDIAB9xL3DnozFoxjbHn0iV7jvKDJib+gSKVYOch/SdjEXbl+i76EjYlaFIkbl5sLkmNiWmJyWsgE4ufGxovl5mVpTcoI3hs3H8QBsT399NN6wyAT8sXTJrbJzcAqAaKGjPHMuAEgSvL4cPNDzhgL5BEDhqS42SEZCIENUHRFNwiFsAbykE173CR8IAOMBzcjsgnLQEZ4cBgCiIi+4mUjz2Lr9AnZ3IQQKKT0xbC5zNMnPEJKeXRmEw/5kAw6c41EG2yOghcbkpAD7WCYeFSWY/Qj8U099kEgEjzgL33pS9kGCgxJ9MuwAgd0Q2dIg/AabTAelEcXxgM9rB1kcEzbjDH7FjwhQ18YUza1Ma7IBDfkUB7j/dBDD+nTOnjXXKMMeLB6Whc8ehLzErn33XefPl3DeHEN/MACo8s5m91gyJNZ9ImxIJ9xZ2x5goXxxMiQZ4acb57UgWAxphhhcOMR12uuuUaxZo6xsY3hACvOWZXxOCT4cg1MSPQP4wVWyI4m8OW6GVFw5Zj5yNyn//QdzNjLYCOfxPxi/jN3o7iDOW1bCIg8K0uI7s9//rPeYxhAQonUBzfG2OYK35wzRszlgiZKMoNYY7KTVSF4CmMDCP3CcalN/HXrrIVLpVXTRlKrxuex0GQBwvjxRs23p80PL1Y7IIH6cm2ayVLQAQ+0J5XDZL5ucC+pXa2Kvg8oV8FnMpAP8eFFM7mY/JaY9HiWXOPGgSxYBuMRQRJMSCY1NxOeFYRHHl6/ERSTmcQKAFkQK3UgYG488ukfy18mP+0w2U0eXiPn3KyQBPXRGXnojW4QNDpEE2SDPiTqkmgT3WjDiAWdaIu+I5tj+sgx7VlbrHAoS9gBAqC+4QOR8bFxQi+W/tShbfSjzdiEbPpMX9AXuZwb3sizNsAJzClrutEX2mDDkTwIGGyjY0hZQjrsB0A63/72t1UGeEFK9JtE39DBSIprjDcY0gbHkCLl6TsbqN/73vd0ZcA+DmNEWcaLPlCWvnOdRD8I8YCLEZytJAxzmxPgYFhq5fAf84O6yLBVAvVtnJl3HNMn+sw5eoIJ+lDWxpx2bL5T1hJ6MHbI4YMMruEAYWwMV/qCLoRoqE8b5EfnIPrTBrjSLu2TGHPGjX4wz5hPjB3tMEfIA2trj2NkIM/GyvTlm3kXMJ8Z5IwIpyyF2QTMdOIPKMSmYif+oFDmqdMyef4yWb+VuH3+sd3YPsQ/v0Aa1Kkhl/TuLNWrZHnA8cvlvGoTlskeTUw2uwHJs/PYY+pE85jcJpNjkp1zzDXK8235Vt+uRc+pE1s+Ki9Wb8qTrIzlR2Vau7Fl4tWjDOWRY+U5jyeP+nadmzlanrzYZGVNH85Juels8siPluXY9DRZyIGY2FzlFRB41j/60Y+yPVPKWztRudQjRXVDppXB++ZxSuL2PGJoIRfKU87K2nGsLDu3tjk32RxHr3NOMl3Io2xUdvQ8ehytFy0flaXCI//F0yM3meiSlyzLi7ZtOlmTlLFEORLXohiYTtFrVic34v/cfbOS/l3sCDC8/HpW03q1ZXv4AZXDRxPzTD4/wdi0fm2pUA4vpuDGJN6EAqTYCRs9jx7HlmXi2iQmjxTbRmx+XvKoH1s+Vh5lYlNsmdg2KB9bJt41KxPbr3jyqG/XY8uTF5usrF3nPJpi800XylhZ2iFF8/RC+I8yeJKEm/BMjURiy+dW19qw8tTHU2VzklDLsBB/x7jkpSd1Y/Ojck0237mlaP1YXaPn0WNkReuZ7HjXLC+2Ptdjr0XrR49Nhn3nlsd1S9Hj3K7Ftm/l8vp24s8LnWLMKxtu1lZN6su28Ljmuq07wlKYv+o8N4WYRmWDIakfvP22zRsKr3aIN6HOTbrXSmcEIA1CJ1/+8peV9AkrnM/cQF5GRob+UREhjGiIK51xKmm6O/Gn6IhC1hXKl5PubZsH3/wz2bxjj76CobA/vVjmgjLq4devXUN6tGsp1UMs+Hxu7BSFy9U6DwTw0m2PIRFzg1g3xgRZiZB3Hl3zqrkg4MSfCzCpcrl29SoysGtbWRt+jUt/bP1QIX9svUrWj623adZIqlaumMc2car02PUoDgQSTdDnEn4ojn6X1jad+NNg5CtVKCftmjeS1k15H/zn8b+CqM6PuJQNHh3x/cLVLIh0L+MIOALpiIATfxqMGns9Rt5hT7/wGrPkLnwtr+EIOAIlFAEn/jQa2KzNfqfwNBoyV9URSEkEcv5VS0qq6Eo5Ao6AI+AIJBIBJ/5EoumyHAFHwBFIAwSc+NNgkFxFR8ARcAQSiYATfyLRdFmOgCPgCKQBAk78aTBIrqIj4Ag4AolEwIk/kWgWkyzexWLvYykmFbxZR8ARSCME/HHONBqs3FQ9fiLrV6t4xYMbgNxQ8uu5IcBf7fKXttG/3jVnwr5zq+vX0xMBJ/70HLdsrXmF9Kr1m8L7+8MPZ4Tf4a1c6fNfmsou5AeOQBwEIHpeDc376O0975xD9rxRk3fu8JI1PrzPx52KOCCm6SUn/jQduGy1w817KPz4+rHwow4YAU+OQEEQgOD5wRE+RvbUs9cyswLgh0IwCPzQBz86ww+kWH5B2vAyqYuAE3/qjk2BNeNvef3veQsMV6kvyK828UtdePqk/MI5GAbesW+//OTkn/5TyIk//cfQe+AIFBgBI3E8+VjCj4ZzLO5vZThndUCK/RnBAjfuBVMGASf+lBmK1FTEyCB2868g2p5PXeRbfcgqNpHHJ16y2HW8vFS8Zr9QVdSvMjby5vdpjdAND/L4nVfIHc+e39aF4C1RnjKsEvixFvuNWMv37/RCwIk/vcYrqdpyo/OD0tzs/Cyf/TB2QZSgLj/ybXUhi8KkaP3GjRtn/5A1MsizH9aGpGITsWj7Ue3YvFQ7R/9NmzYpmfID9LkZs0ToTVv8WDgJIo+mjRs3yhtvvKG/v0tYZ/DgwXLLLbdobN/KUQfjhAzb8LU8/04vBJz402u8kqYtNzne31/+8heZNWuW/OpXv5Ju3bqd9fuilDPPHOUgZT5sCD755JMyc+ZM+eMf/yitW7fWTUTKxK4eYutThhj0X//6V5kzZ478+c9/lubNm2dvQhKmgKT+8Y9/6DWMihEZ3+j5/e9/XyBSVgvmSVs7nFOOD7paXY6tLNcoH823PJNj5fkm2XWTa/m55VEOw/qLX/xCDeu3vvWtbC+bPJNDu9E2tLHwH/mkaDt6Ic5/lMHTt75bEXTG03/77bdl9uzZ0r59e8kIP504efJk6dSpk/Tt21ef8LHytIkBQZZ7/YZK+n078affmCVNY8gC8oeE44VbUIQnP/bs2ZMd/4UMIFwSdfEeqb9+/Xp9QoT8unXr5iCT3bt3axnq8PRIvXr1lMyojwExwiWfZCQG+fTr10+J3n4rFmLC2yfhxbJKqV27tpIk7VCnVq1aqktmZqZ6rvv371cy4+cH0Q0yxLhAiOiLh0s/WfWAA/0ln5UFPzHIb8uiE31lJYJc9CFcUqNGDdUlXh56IANy5ZjHJ5GDPpQ3/dCfcrSNfL7xuNGP8rRBW3klMIwX16cOMsD8xhtvlEsuuUSWLl0q06ZNk1WrVsmFF16YrRdlzRhZ/834kOcpfRBw4k+fsSoWTbmxIcLYxHWI6eOPP5ZXXnlFNm/erKTQrFkz+eIXvygdOnTQepDUW2+9JYsWLVJCw3O/5557pHfv3kr+69atk+eee04WL16sTXTs2FG+8IUvKBGZBx3bNue0D7l2795drrnmGiVCCIzrEOjatWvlscceUyL/6le/qrr83//9n0D+yJ8+fbosW7ZMVyKsaDAwGcHTvffee1XmihUrdMXB6mHBggVa7wc/+IGSIf2B/DEE119/vQwbNkwNwz//+U/56KOPtJ8Q88UXXyx333239pO8iRMnah4kTh444D1/+umnaqwuv/xy2bp1q+L5ySefqE4NGjSQq6++Wq666ipt4+mnn5Zt27ZJu3bttA/oPWDAANUbo5VbAhvaik0YBAzHyJEjFTuMJeOJASbGD56xCVmMvaf0RcCJP33Hrtg1x/t85pln1Du99NJL1fN977335Nlnn5VHHnlEyZYYP4SHVwvhEUL4/e9/Lz//+c/VS4WMV69erTFlOjRp0iTh2le+8hUlnXjEYx3HqGBQMBAYAUiMb7xU9gX4TJgwQVq1aqVe7ZQpU5REWZFgqAhDrVmzRvr06aP10O0Pf/iD/PSnP9XVCrIxABAqRDt//nyBwDFq/fv3V4PwxBNPaL8gVcsDi4ULF2pfMSYYAfIwauRhSMAEOVzbsGGD6o4H/+KLL8q4ceO0Dy1atJB58+ZpyAwZvXr1Egwl9VmFYDw5BnNCNFdeeaX2A2KOl8ArNyPO2OzatUtee+01NTgPPvig9OjRI1d5sauweO35tdRFwIk/dccmpTWz0AGk2aRJEyVPSB7vlc1KQgEkiHjUqFFy0003qecLib788stKuhxDrsOHD1fPGZKnHl4zYQaIKrdEWch2xowZ2iblIDxCM4R38JBvv/12Wb58uTz//POaBwnffPPN6slSl5XBbbfdJiNGjFDixfMdM2aMzJ07V8ND9BGv94c//KF+E4snHISnTjipa9euasDeeecd6dKli+oDWQ8aNEjxIGRCOcJceMgtW7bUPAibPAwT/aAdPmyGY/gwBt/+9rfV4LAq+fd//3ehDWLuYEJo6b777tP2IX72M9CZMA1455byMqLUIbyEEb7iiiukZ8+e2auoePLykxWvjl9LHQSc+FNnLNJKE258whCEOSBvCJMwBUSF92gJEsYDJxYOMeMpjx49Wol9586d+tQPYRnCC+QjA9kYj7zCCZSF5PCgifPTDuQJmbdt21bzCDvdcMMN8stf/lLV4RiytSdb8KIhYeLr1EW3N998U8NEhDqQCQFmBIMBKeKZkygD+bIHga6sfDp37qzEjreOl85mNvLQhRg9BuH9999Xgm7Tpo3qTNgLGSTaJ4RDn/G00Yk20BdZhGDYZ8Bjx/hwDaNEuAm82UcBk7wSj43STrxEXfYJwGjo0KH5kn68lUM8uX4tNRFw4k/NcUk5rbjRozc7RIFXDqnihRILJ3SxZcsW3XS0DkDEEBR1zVuFLPHs+SCHPK7xjYdMKIZVBEYkr0R52oSoID8jPmSRkA8pW9u2wWwyMRymG3UhehLkyzlEyaqE+hAm16nDOW3QJkYNfTOCccBLZwWyZMkSXYVwTEiJVcZ3vvOd7DzCQOwx8EQPXjqyaI9ViLVrOtKWtW+kjV5Wh3LWX6sT75syjAXGI15CNoaQVQXGiOO85Oa1sogn36+lFgJO/Kk1HimpDWRE/BkPnWMIAVLlyQ889Icfflguu+wy3bjkmhEUneEpGjZu8b6pS2gC8iHsYV4tIRM2FyEmymJQKM95fgnvHd0IMyGfRD08dmSNHTtW4/PoyyOLePCQG32gDmUgbkgdQkb3pk2bZrcN6ZIgOowSbdx6661aBjzY3MZThuwJk1x00UWaT4jpxz/+sWKEt483z7PxhJYwaOSxqUx5Ejrj3fNNPisMDBHGAW8fHc0waYVC/kc/WEGAAymW1DnHMLL/Aj7E+KPG1Jqz8UdWrAwr49+pj0D+d1bq98E1LEIEIEIIkji5hWtoDq8Tb5lEqAcSJ2RjXvW6sAkJwUM0r776qnr7yGKTk3oQHnWIXY8fP16fLIFcCaNALoRvIJbc4vyUwahQF5I1gkYfVgsYoqfDEzAQ+gMPPKByWJ089dRTaqgoR7/QBx3xcglB4eGzEU28HQ8cnWmL8MqQIUN08xMdWeGw2Yuh4zFIZFGf2D2brBgFdEIXVh3RPMicPAwMONJH2oHc6Tebzi+99JIQEmJDGuPGHglki05RTNDN6tOn3BJY4sUji/KxpI0cjA77HPQ1Nt/kUo5xQpan9EXAiT99x67INYec8HLxvgnh4LWSuPnZROVRRZ4EwXNlc5GyEBceK0/IUAaCZC+AGD6kA7GwOZoRQiMQCJ4lj3O+8MILSn7IuOOOO9T7hQiJg0NI0QQpYYTQi8cZIX5L5OEtQ+Dk8agnXj7XOYZU2YDGIEBeyIBkiZETi7/zzjuz5eKp0w4J75dNYGRD9mzCUn9Y2OPgkU6IG2NHeOdPf/qT6ozn/MXwaCsywI88/piN/rAZzOYzRhADQL95lp7ypInhqZ8PPvhASZjV0LXXXqukb6sCDAYJDMGI+lHjp5kx/1GHlRB9YAxjyZ0xYSObchgZykQT5+TlZRii5f04dREgGMpalkcB2JGrEG6WsWFg+4XjUpt4vfGshUulVdNGUqtGtbNugFQCBu9t9uKV+lrmPl3aS7Uqn8e6E6EnniwkGUsCkAZkiLeMQeAc4oLU8GjJIwQCIZLHc+8QPwQF+RtxkY+3jQHBm4XsISfy8ei5Fo9obDVB/dhEXfRAb8IjkBgJXZFHn379619r2IlHR8mH+DFQEDH1wZVy1I+GWJABcdIf+oGxMO8XfQk7kYfRoy980//c8tCL/kPaYEaiXfsjLjC1jWbGADn02eQafuhs9VVILv9RHv1pA3mxxgJdSbHjbefowsfK5dKMX04RBJib4W9XZoZ5NCKoxAYPr2TNzOlKpYiyrkbqIGAEE08jyABShAhIkAjXIGoS5MCHa5Th28pwTOIcsuXDNSMUjiEyzuORO2RthKuCYv6jPrrzzYdEeQiSczMI6IoXjUGI6kY5iD1a32QgB1KP6koe+vLhSZvC5FnfTU/05hMrB5k2HoYJOsfTE33iJcMbWRgc5HAcq6/Vtf6DB2076Rsy6f3txJ/e41fk2tuNX5CGjIysbLy6sWUoa4QX7ziaZ3KtXG55Vi42n3M8eVYD/DEUIRgMiOlk31Y/9tzatfx48s8lL7adqNzosbUfey22vumQ2zckjrEBB8gfo4dMk2tGgPocE07CQGLwonm5yffrqY+AE3/qj5FrmEAEIDcI7LrrrlPCx/MvLHEmUJ1iE4XnD5mzQiHsQ+iM0JhhgXGA8G1l5YRfbENVJA078RcJrC401RGwuL15uamub1HpZwaAME685IQfD5X0v+bEn/5j6D04BwRKO+HHQuYEH4tIyT7P+uuUkt1H750j4Ag4Ao5ABAEn/ggYfugIOAKOQGlAwIm/NIyy99ERcAQcgQgCTvwRMPzQEXAEHIHSgIATf2kYZe+jI+AIOAIRBJz4I2D4oSPgCDgCpQEBJ/7SMMreR0fAEXAEIgg48UfA8ENHwBFwBEoDAk78pWGUvY+OgCPgCEQQcOKPgOGHjoAj4AiUBgT8lQ2lYZSLoI/2Mi9/9UERgOsiHYEEIcDbaHn7amxy4o9FxM9zRQCS58NbHO1VvhgAJ/9cIfMMR6BYEeBe5QeQYpMTfywifh4XAcjdXt2LF+FkHxcmv+gIpBQCud2nTvwpNUypqQyTh58chPgtxJOamrpWjoAjUBAEnPgLglIpLmOkD/Hn5j2UYni8645AWiLgT/Wk5bAlT2lihHj6TvrJw9xbcgSKGgEn/qJGOI3lE9bx8E4aD6Cr7gjkgoATfy7A+GXRJ3c8pu8zwREoeQg48Ze8MU1Ijwjt2CObCRHoQhwBRyBlEHDiT5mhSD1F/Bn91BsT18gRSAQCTvyJQLGEyvAwTwkdWO9WqUfAib/UTwEHwBFwBEobAk78pW3Evb+OgCNQ6hFw4i/1U8ABcAQcgdKGgBN/aRtx768j4AiUegSc+Ev9FHAAHAFHoLQh4MRf2kbc++sIOAKlHgEn/lI/BRwAR8ARKG0I+Ns5S9uIJ7m/ZcuW1Rb5S2D+LiB6TsYFF1ygL4CzvxkoU6ZM9jXLVwFn/ivMH5WZrGh9jtGFD/nxUrQNylg5q0d+brKRx+8VeHIEUhkBJ/5UHp001w2C3LJli776oUaNGlKtWrXs8+rVqyv5Hj16VDjmQ9q/f78cOHBAKlWqpPn8ehCES+IacqpWrZp9TTPi/EfbO3fu1F8fMpLnGoaG+pUrV5a9e/eqMeI6ZcgrX7681K9fXypWrKjXkEE5Xl9BHfpQq1Yt1XPfvn1aHyOADBL1GjVqlG0s4qjmlxyBYkfAib/Yh6BkKgCJ8g7/1157TdasWSPXX3+99OjRQ1588UXZsWOHXH311UqmEyZMkM6dO8uoUaOkXLly8vbbb8uCBQtkyJAhSqazZs2SQ4cOSe3ataVu3bpKqshp0aJF9uohFkHaPnLkiLz88suyZ88ezd69e7fW5wRZF198sYwbN04NEXJpG3Lnc9ttt0m7du1k3bp1MmXKFNm8ebPqALmj68iRI2XSpEkyf/58JXiMFQbBVgdf//rXtS0zWLH6+bkjUNwIxF/rFrdW3n6JQADvuUuXLkqahD/sh5/r1Kkj7du3VxLdtm2bTJs2TfCe8fRnzJghGzdulA4dOkifPn2kWbNmUqFCBRk6dKi0bt1a5s6dK88++6yWtRBMLFhmdFatWiV9+/ZVIwLxY0w4X7t2raADBgSjctlll8m1116r+dRFF8j89ddfl4MHD8r9998v3/jGN1QXDAqrlPXr10vLli2zDRT9RP727dtVNyf92FHx81RCwD3+VBqNEqQLxAfxDxw4ULZu3SqTJ09WTx/ivPvuu6Vp06YaQsHTJrSyfPlyDbU0btxYibdKlSrqNTdo0EC99m7dummYB6/71VdflWPHjuUZZ4fAkYGHjuHgg7HBo586daqGbTAqtE94BjKnTPfu3YU20Z9rHGOwCO+g965du7QcdVgVYIwIU7ECwRDUq1cv3zBUCRpm70qaIuDEn6YDlw5qQ57E0wnrELIh7PPQQw9JRkaGkjb5kC2e9+zZszW0A/GuXr1ajyFvPnjleO+QLd+2CsAz54McS5SvWbOmlh02bJgSNysJEisEiBzPHKNAYg9h/Pjx6tnT9ogRIzSPMNWAAQNk4sSJaniI20P0bdu2VdkXXnihEn101UG4hzZZTXhyBFIZASf+VB6dEqAbpIyXD2mzMQsJ43VD0OTxlA+EOm/ePL2G1wyZGpnjbRNjHzNmjK4g8KhvvfVWNSgzZ87UlQTev8mjHcJCkPYVV1yh8gnbkFgtYIguv/zy7PKcsyphLwDPHSODTqwE+vXrp0TPngPG6JNPPpHevXvLLbfconmUI7RDQl+MCcSPLp4cgVRGwIk/lUcnzXWDACHd9957T5o3b66EzKYoxxAziTJ46MOHD1fCxVuGoCF/iJVwEeGUu+66S8NDlLeNWDxsQkP8PCTXIV/KQ+CcU99I3OpxjnwzOqw4unbtql46qwc8/E6dOmmYiY3nSy65RDeeMS6cv//++3LdddfpZq7JtLbQC72R78kRSGUEnPhTeXTSXDc8/Q8//FBj6oR42LBlc/all15S4sS7ZgXAZi5eNwTKkzJsqBLSgWzJg5B5LBTvHI/fCLdnz54ak4+FCfLlww/Fb9iwQWUhc/HixWokMBboRhvIXrRokcrlsU1CTrSBgRg9erTqN2jQII3zs/KwJ4BYibBhvGTJEv1GFgaM1Qt1PTkCqYyAE38qj06a6wbZEibBA4dUiZtDyIR6CO3wjDxkzlM9bN7ifbMJDLmyJwBp8ygoJP3mm2/KsBBGwQPneX4SsuKRLN48xoGVACsMdGAl8e6776oBueGGG3TDmVAR7b/xxhtaHk+dFQMbueiMgVi6dKls2rRJ22GFQV2+kY1cHgklYTAI+2DgqOtev8Li/6UoAgQjy4RP+fCpHD4Vghc2NtwM/cJxqU2nAgHMWrhUWjVtJLVqVMuON6ciIHiesxevlGOBiPp0aS/VqlROiL6QJ8R9PgSGDLxuEgRtpM91jvnmYx485TAKdo3rtG/nyIhH9NTLLSEv2gczFsgkj8SxJdqE/MGVp5Hw4glXEb+H0MmjDIkyfEjIQDbhHsvXDP/PEShGBNjzCk7XzDZt2owIapwIn6Phk+kefzEOSklvGgJk4lmCHPHq4yUj39zyrY6Vs/P8viHq2ISMWN2iZciHwNmLoByb0iSOo+1jhCgXTdH86HU/dgRSCYGcszaVNHNdSgQCsUQYex7byfzyY8vnd56XvLzyTG60TPQ4Xr5d829HINURIMzjyRFwBBwBR6AUIeDEX4oG27vqCDgCjgAIOPH7PHAEHAFHoJQh4MRfygbcu+sIOAKOgBO/zwFHwBFwBEoZAk78pWzAvbuOgCPgCDjx+xxwBBwBR6CUIeDEX8oGvDDd5Q+WPDkCjkDJQ8CJv+SNacJ6xCsInPwTBqcLcgRSBgEn/pQZitRTBOL35Ag4AiUPAb+zS96YJqRHePrRF5IlRKgL+f/tnUtqAkEQhofEKLgIBLIJZJMjZJW7eQIXydniTRJBXfgYU7+xZJy0iIGRfnwNhT09w0zX1/p30yNVEIBAFAQQ/iiGIc5OhIKQxdlTegUBCFxCAOG/hFZh12rVr2iZl4ZCLgwT7kIgOQIIf3JDdt0OK+ywEp8g/tflztMg0CUBwjJ3STeTe3tMe2XQUuKRUHjiTFzFDQgUQQDhz2CYb2xLRtblv+79Ra8yajWzWjEJZPAFwoXiCCD8iQ+59uEfH+6rlaUR7PW6TfKtbR+ZhF8m0ffUiIljpPsQyJKA/2bbziH8bSKJHeu/9i/PT5Vlr7UV/3FqwK5cOfVl6up53BcCEPgfAb2fW1o+7nbh5W6bSKLH3W70JAqFbkMAAkECCH8QC40QgAAE8iWA8Oc7tngGAQhAIEgA4Q9ioRECEIBAvgQQ/nzHFs8gAAEIBAkg/EEsNEIAAhDIlwDCn+/Y4hkEIACBIAGEP4iFRghAAAL5EmgK/9bclFEgAAEIQCAvAkf63hb+2kIAIP55DTjeQAACBRPYa3ptCA7a7sLvs8GmYD64DgEIQCBXAtJ21/lKsXp0oNlAJ+rZbDYZDodvVi+23Fr8m35/UA0Gv1YsCByHAASSJzCfzyfmxMrMtX7rQdrUIOHvjcfj99FotDXxf7Xoi11G+rXHxVk2dV1Np9/V13BQ1esl8efjHCZ6BQEInCCgqL3a4lksFp+m6R/7y3zVvwvhLnGXadtHE4HH9r3b19Ve5ARgflMgAAEIpEbAV/YSeq30VVRfm+32+l3Qm+Iv4Xfzdr/OTlEgAAEIQCBiAhJ+Nwm+m7/gPdrKaYq86qz0Ix5ZugYBCEDgDAFf+fsk4J9/tnCaK/tm/cz9OQ0BCEAAAhESkNh7OdR/AE4F2gC9kyKiAAAAAElFTkSuQmCC;" vertex="1" parent="1">
          <mxGeometry y="481" width="309.91" height="208.5" as="geometry" />
        </mxCell>
        <mxCell id="wlViJ_xfUhJ4NJeLA0QH-124" value="" style="shape=image;verticalLabelPosition=bottom;labelBackgroundColor=default;verticalAlign=top;aspect=fixed;imageAspect=0;image=data:image/png,iVBORw0KGgoAAAANSUhEUgAAAz4AAAFaCAYAAADfMYi9AAAEDmlDQ1BrQ0dDb2xvclNwYWNlR2VuZXJpY1JHQgAAOI2NVV1oHFUUPpu5syskzoPUpqaSDv41lLRsUtGE2uj+ZbNt3CyTbLRBkMns3Z1pJjPj/KRpKT4UQRDBqOCT4P9bwSchaqvtiy2itFCiBIMo+ND6R6HSFwnruTOzu5O4a73L3PnmnO9+595z7t4LkLgsW5beJQIsGq4t5dPis8fmxMQ6dMF90A190C0rjpUqlSYBG+PCv9rt7yDG3tf2t/f/Z+uuUEcBiN2F2Kw4yiLiZQD+FcWyXYAEQfvICddi+AnEO2ycIOISw7UAVxieD/Cyz5mRMohfRSwoqoz+xNuIB+cj9loEB3Pw2448NaitKSLLRck2q5pOI9O9g/t/tkXda8Tbg0+PszB9FN8DuPaXKnKW4YcQn1Xk3HSIry5ps8UQ/2W5aQnxIwBdu7yFcgrxPsRjVXu8HOh0qao30cArp9SZZxDfg3h1wTzKxu5E/LUxX5wKdX5SnAzmDx4A4OIqLbB69yMesE1pKojLjVdoNsfyiPi45hZmAn3uLWdpOtfQOaVmikEs7ovj8hFWpz7EV6mel0L9Xy23FMYlPYZenAx0yDB1/PX6dledmQjikjkXCxqMJS9WtfFCyH9XtSekEF+2dH+P4tzITduTygGfv58a5VCTH5PtXD7EFZiNyUDBhHnsFTBgE0SQIA9pfFtgo6cKGuhooeilaKH41eDs38Ip+f4At1Rq/sjr6NEwQqb/I/DQqsLvaFUjvAx+eWirddAJZnAj1DFJL0mSg/gcIpPkMBkhoyCSJ8lTZIxk0TpKDjXHliJzZPO50dR5ASNSnzeLvIvod0HG/mdkmOC0z8VKnzcQ2M/Yz2vKldduXjp9bleLu0ZWn7vWc+l0JGcaai10yNrUnXLP/8Jf59ewX+c3Wgz+B34Df+vbVrc16zTMVgp9um9bxEfzPU5kPqUtVWxhs6OiWTVW+gIfywB9uXi7CGcGW/zk98k/kmvJ95IfJn/j3uQ+4c5zn3Kfcd+AyF3gLnJfcl9xH3OfR2rUee80a+6vo7EK5mmXUdyfQlrYLTwoZIU9wsPCZEtP6BWGhAlhL3p2N6sTjRdduwbHsG9kq32sgBepc+xurLPW4T9URpYGJ3ym4+8zA05u44QjST8ZIoVtu3qE7fWmdn5LPdqvgcZz8Ww8BWJ8X3w0PhQ/wnCDGd+LvlHs8dRy6bLLDuKMaZ20tZrqisPJ5ONiCq8yKhYM5cCgKOu66Lsc0aYOtZdo5QCwezI4wm9J/v0X23mlZXOfBjj8Jzv3WrY5D+CsA9D7aMs2gGfjve8ArD6mePZSeCfEYt8CONWDw8FXTxrPqx/r9Vt4biXeANh8vV7/+/16ffMD1N8AuKD/A/8leAvFY9bLAAAAOGVYSWZNTQAqAAAACAABh2kABAAAAAEAAAAaAAAAAAACoAIABAAAAAEAAAM+oAMABAAAAAEAAAFaAAAAAEuD14sAAEAASURBVHgB7L0HdFzHebc/RGXvvYKdoiiRapSoLoqqlig5kiW3xIr9xbGTf3Li4xzHTj85Psc5J1/iEjv259hxUaxqNUqiuihSJMUiihK7xN577wAB/t/nXQxwsViQAIi+vyEXu3vv3CnPzJ07v3lnZtuFqq5d4mvyc+KwPoqACIiACIiACIiACIiACIhAiyVwNpGyis95iYMIneQrp/x7wos+ioAIiIAIiIAIiIAIiIAIiECLJYDQKbMX71H0+HsUPlHwIHZyE694nHc5ERABERABERABERABERABEWiJBKLQ4b008UIE4c4ifKK4QfTwHeGDiwKI4ziJnxQH/RUBERABERABERABERABEWg5BKJlB5GD6OE96pwz5d/9gH12UeNC56tf/Wr/73znO9/s0KHDZWfPnm3HCw9yIiACbYNAWVkc+Ggb+VEuqhLIyYljVVWP65sIiIAIiIAItHUC7dq1O8vr5MmTS7/3ve/9+89//vNdlucKS1C09iB6CuzVbt26df93xIgRXysuLg4meto6H+VPBLKOgO7rtl3k1uC37QwqdyIgAiIgAiJwDgI8BwsKCsKGDRt+NmrUqL82rwiaYnuVRhNQXNuT06lTp0mInlOnTp0jSJ0SARFobQQkeFpbidUvvRI+9eOmq0RABERABNoWATSN5Qitw1QXtE5ZnBMRLT95mtpmWOREoI0RkOhpYwWq7IiACIiACIiACJyTQLmmiUYenw7Bl+g4EIVQPFbtndHETJ2o5PE44liTPwJNnov+k5ElzyePJz/X97pkGHX5nMxjpusypQd/MS/nO58pTB0TgQsloBmrF0qwdV1Pe1NTW9O6cqLUioAIiIAIiMAFE0DbVMwBTxc+FScyRcMDlYXR6Ytn4/H4sD1XRz+5sBr/+I2vGCfHY1jxWPp7vCbGxfnaXJcMJ14b0xHDSPqJn2N850oXeYthxuuSYcYwkufi+XOFm+5f30WgtgQkempLqm35o61Rm9K2ylS5EQEREAERqBcBtE2FvkkKn3OGxoP0zTffDKtWrQo33HBDuPTSS0N+fr4LobfeeiusWbMm3HTTTWHv3r1h5cqVoXPnzuGuu+4KAwcOdD8Efvjw4fDyyy+HHTt2hClTpoTLLrssvP/+++Gjjz4KJSUlFcKle/fu4eKLLw4TJkwIHTt2rCYmSMvs2bPD8uXLK67jWLdu3cLYsWPDxIkTQ9euXatdFzNIh6C0tDS89NJL4fTp0+Hmm28OCxcuDLYDRJg6dWro06dPRZq5hrAXLFjgeb/jjjvCsGHD/PoYHu979uwJr776qr8nhSFxXXTRRYE8rVixwhkkOyR8Js0wJf1JYZgM/1yfSd+hQ4ecBfEUFhbWmPdzhaNzrZtAta1Iqh1o3flT6utGgHYh2dbU7Wr5FgEREAEREIG2R6DWwocHqC0SCosWLQqffPJJ+OY3vxnGjBkTli1bFp566infPeHWW291MYK44aFru8OF/v37+8OX7wicGTNmhG3btrkwQhBwPf579+7tYoWOPwLp9ddfDw8++GBAaCCiuB5HOvBDWK+88oqLlC5durgQ4brXXnst3H///eHee+91IcF18dp4Pe8cs90eXOxMnjw5vPfeey4errjiitCvX78q1xAfgo/4Lr/88jB8+PBqwufAgQMBAbh79+7Qs2fPkJeXQkt6EW+7du1yYcTGEYiyKI443759+3D11VeTrHo7wieNQ4YMCZdccklGwVjvwHVhiydQTeNUO9Dis6AENgIB2jnaGDkREAEREAEREIHUTge15jBp0iTvoCNUECZsFffcc8+5kPn617/uQgcLCp37EydOhA8++MA74VhQsOhg3cEygh9ePJTjDnLTp08PiA78YTX6yU9+4hYZLEvjxo0LZ87w20OVjuvZee6+++5zyxHnER8//OEPXWAgZhBEhI9lKj78uQbRkZubG+655x4XML169fL0YvGJFhfe9+/f78IIKwrhJM9XpiT1CQsSYY8cOTI89NBDFVYj4kXozJ071+PAonTLLbe42ImCjPDxE+NOD/t834lj0KBBzhbLG+FQVvZbTFUE3PnC0fm2SkAqqK2WbG3yJfFTG0ryIwIiIAIikA0Eam3xAQaWlwceeCCsX7/eLSsbN24Mq1ev9ulh119/vXfm8YeFg848FggsIFhQEBFYiviM6IiOTjuvoqIiF0kIGAQEgurjjz8Ox48frxAt8Rre43VMOxs/frwLoyNHjni8x44dc0FDGEuWLAlf+tKXfLoZFqH//M//dIsMVqG33347HD16NHzmM59xC00Mk+uffPLJMH/+fBc7ffv2rdX23lyPtQdLFkIEMYTIIk+IRM4z9S85hY9jdEziK5nHunxmmhzCkfDgzDuiMdNUwbqEK78tn0AVWVPlC2mvdqDlZ0gpbHACEj8NjlQBioAIiIAItEICdRI+WBLo0GPR+P73vx/mzJnj1pa77747YDWJVhmEDRYHRBHiiDUsTGnDIsPxDz/8sJp1A2HEFDhED9fxmelvWC2Ilwd3uuMYU+eWLl3qcW/dutUFFlPkEBis4SFexE0UIIgxxFeM5+DBg4H0IxR4ERdT1giXKW3Tpk0Lmzdv9jVFSRGWTA/X4ThG2v/7v//bpwXyHbH4qU99yuPn+zvvvBO2b9/uQovvsGIt1OjRoz3+9DzW9jthYeFC/OCw/OBY7yTLj6Noc3+q3RFWB+REoCYCtBGxrarJj46LgAiIgAiIQFsmUCfhAwgenFhAWJeCeKBjn1yzwsMVd+WVV4adO3f6dDfWxSBOsEpgoWHzg6RDbPzyl7/0tUJcj2WGdwQW8cyaNatiUwDiZupbXCPD1Dn8Yl1h0wSu3bRpk1uKWGfDK/mw5ztig2OZzpOWxYsXux8sQUyZIw7CZHMC4kK4IYbwSzhs0oDjM1YnLGJYeHDkmSlyMQ1M48ORfsIiLVjLGsIRHuuw4tQ8wozxNkT4CqMFE7CylxOB8xGgjVCbcD5KOi8CIiACItBWCdRJ+PDAROywxgcLzeDBg92ywHQyBEns7AOLdT1YehA87L7GRgJMSWOzAwRD0hEufocOHeoPZaxHCCQ2T1i3bl147LHHAtYcRALTt7DYIBy4DmsJVo44Re7pp58O8+bNc8GSHk8yzpo+0zEgb1ibsBqRJ/KGRYY8ILBY38SucnwmTd/4xjd8ihthIsoefvhhv574uX7AgAEulkjvjTfe6FMDEXSxE0I8nLtQR3iILqxOMGJzCe3wdqFUW+b1kjkts1yUKhEQAREQAREQgZZLoE7Ch44808DeselaWHTYkhpRwnoYpoUhSmIHHkFw1VVX+W5pL7zwQti3b5+vpcEagWBIOq5hR7hrr73WBQyiIHbYCffLX/5yYN0N/lhDwyuKGqbeIUoQPoRbZGuF2Ehgy5Yt/p1jMT5EW/ycjD/9M3EzLY8NFHDEFa8lX2yKgBWL46QJsUP+cFh4EHFxjQ/n2RgBUYJD+LEGKLn2hnDiefdUjz9R9LCBBFPbKB/Em1zbI1BN9JTXrbaXU+WoMQjEtoa2SU4EREAEREAEsolAnYQP1hdEDFYMtoum80+HH/HzzDPP+DofLDFREDAFjM43Vh/WmmDFYb1NfPBG0HxHCCAa2NWN71GgIHIQWEmHyIligWlpcTMDppGx7ohzWDx69OjhIggxgNWGLavxgyjBEU8yLXwm/Vimnn/+ebfqIIJYp8T0tjhljc0JEDvRER8cYnikLwoxOhcxDt4JB/EEw3gcMYRoTG7bHcOu7TtCjS2+EY0IzmhFinHUNhz5a1kEqogcqz9yItBQBFJtQ5r4SfvaUHEpHBEQAREQARFoSgLMLas6vywVe62FD51+dklDBDzyyCPeUUcUsHCfNTv8wCc/Oso21qydwWHd4RgL7RFJiA/W4MRpavhBGPAdh4DglXQ8nKMI4ngUEvEaNiF44403/BLOIaA++9nPVmyNzQ+TMjWN9CG8EB3xWt7j55gOzt95552+hmfmzJlu3WI7bAQFmwfgSGMyTX7Q/hAW4fBKd/E4v4PEWqGkHwQi0/xYK5Up3PSwMn3HqoTIZDttiZ5MhFrfMcmc1ldmrS/F1LLq7VXry4dSLAIiIAIiIALnJ8ATD9WRb68O9iqwDQJmmJXlaqZ2JR0d8rVr17p1halliBpECR34Tbbwn22rWctCBxyrDutL8MOGA2xygJWFdT9YZxBPnMM/57DCjBo1yi006cInmYbkZzYX4LpoIeIcAgWrCXEhUkgfu8Phl3Tx454IuOiHdUNYZhBE7LTG56KiIhdPXEc62fWNNUe8YEK+sEylp5Md31gDhPAiHiw6SccGCcSRzhU/hEe4F7L7GvnjRfyIt9RobjIF+tyaCFQTPbL2tKbia2VpTRM+aV9bWWaUXBEQAREQAREIhWawsNlQCwcPHDjdcBTb66S9SmotfGAYd0hDBCU7/tGKEo9h+UBE0PmO5+I1CCXCwS/H0s8TT21cvI7wkp18PhN2TAv+4nn8kja+x7iJK/0z57kORz5ivrk+5stPJv7EfMWwY5zRC/ESZnp6OV/TNfHa2rwTLi493tpcKz8ti4BVvzRX7UDaeX0VAREQAREQAREQARGIBMrX6y+0jdiqCJ9aT3UjIDr9mRzCgVd06Z+T3+mYY6WJLv3aePx877W9Lhk3YSa/J/OT/Jz0h2BJXlNTutLzle4vKcbSzzXEdwmehqDY/GFI9DR/GSgFIiACIiACIiACbZNAanFN28xbg+RKgqJBMCqQWhCQ6KkFJHkRAREQAREQAREQgXoSkPCpJzhdJgKNS0DT2xqXr0IXAREQAREQARHINgJ1muqWbXCUXxFoCgKyKjYFZcUhAiIgAiIgAiKQ7QRk8cn2GqD8NysBiZ5mxa/IRUAEREAEREAEsoiAhE8WFbay2rIIaDJbyyoPpUYEREAEREAERKBtE5Dwadvlq9y1UAISPS20YJQsERABERABERCBNktAwqfNFq0yJgIiIAIiIAIiIAIiIAIiEAlI+EQSeheBJiIga08TgVY0IiACIiACIiACIpAgIOGTgKGPItCkBKr/cE+TRq/IREAEREAEREAERCCbCEj4ZFNpK68th4BET8spC6VEBERABERABEQgKwhI+GRFMSuTLYWAT3OT6GkpxaF0iIAIiIAIiIAIZBEBCZ8sKmxltQUQkOhpAYWgJIiACIiACIiACGQjAQmfbCx15VkEREAEREAEREAEREAEsoxARuHTrl27LMOg7IpAwxA4ew6LjnZzaxjGCkUEREAEREAEREAE6kMgL/2ijh07hvz8/JCTk1ETpXvXdxEQgXICZWVnw+r1G0Pfnt1Dx/aF4VwiSNBEQAREQAREQAREoDEJtGYzRmMNFlcTPnl5eQGLD+9yIiACtSdwprQ0HD95OpSWltX+IvkUAREQAREQAREQgQYkwMBr6tWAgTZlUKbY2tm/nJyGl25SN01ZkIqrzRPQNNE2X8TKoAiIgAiIgAi0SAL0QU6dPh227twTtu/eF44fPxFKz7auwVikTn5efujVo2sYMrCfzaLp4QaZhgIu4dNQJBWOCIiACIiACIiACIiACDQDAUTPseMnw5oNm232yckwbNCA0K1b55DTrvUtXTldXBJ27dkbVq/bFE4MPB2KBg8w8dMwUCV8GoajQhEBERABERABERABERCBJieA6EEsbN6xM5w0i8/kSRNCr+7dbc1+6+3mD+zXO6zbtDVs2rojdOzYPvTr1aNBuLY+Gdgg2VYgIiACIiACIiACIiACItD6CWANOXbiRNh/8HAYVTQ09O/Tu1WLHkqks222NnLY4NCje9ewbefuBtswSsKn9dd35UAEREAEREAEREAERCBrCdjanlOnzdpTHIYO7N9mKCB++vbqGQ4cPNJgeZLwaTCUCkgEREAEREAEREAEREAEmpYAy1/4SY2ysrJQWFjQtJE3YmxM4Suw6XolZ86EhtreWsKnEQtMQYuACIiACIiACIiACIhAYxNoKGHQ2OmsT/gNmTcJn/qUgK4RAREQAREQAREQAREQARFoVQQkfFpVcSmxIiACIiACIiACIiACIiAC9SEg4VMfarpGBERABERABERABERABESgVRGQ8GlVxaXEioAIiIAIiIAIiIAIiIAI1IdA6/1lo/rkVteIQBsgwC4nuLNnU8v9+NaQC/888Ab4k0pmu4p0NkCQFxREenqcozFsiewyZbRauVuGYh3I5L82x9LDrM010c+5rvUamlZP43V6bxkEYvmlp6YudYowov/k5/Qw+V7T+ZrSEcOI4cfvNYUTz2fje00M09mdi02Sa/JzpmvOdb6mtBBOXdKTHm8M90LCSA9T37OTgIRPdpa7ct1KCdDos63jiRMnw6FDh0L79u1D927dQkFBvncsWlK2zpwps+ScDTm5OaGd/WtuV1pa5twOGjc0Y4/u3ezXoDuE3Nzc5k5areI/Y+VebL/Mvf/gQefZ3dLfoX1hyMmpv+GeMHF1ZVBqW6aWlZZ63Jmu5XzpOc7XKsNtzFPssMUOXHNmz9uRkpKKjmgU/zkmZCjP2tSpGEZeXqobUVJyJuTl5WZsh1J+q59n613qIPdjSienhnH4TpORa3U7hg8v6tVZu49za4inOZk2V9yxHHiP3EhLncrSuJbY/RpZn68sKTPqSHo9SZVnqcVenpYIJUNZxlO1eSdvpWcsXMJpJe11TfkiL7iW0A7UlMa2flzCp62XsPLXZgjw0F+3bkN44+05YcvWbaHsrAkLa0QHDhwQbr35xnDRuNGhsKCgojOTbFhjYwsMjvO9pvPRTwRX07XxeDKceE1xcXF4e/a8sG///vCpO6eFnj16+O8LxPNN+U76+GG3WXPmhfcWvh9O2q9bIx47deoYrr36qnDTjdeGzp061ZpbMu2RJcfi58gjnTF+IjM+46JfPqef41h0Bw8d9nJfvmJlOHnylIuKHj26h2uvuSpcZ68OHTpEr+cMM8bH+wkL5/U3Z4Xi0yXhrjumhs6dUwyiHwJMTxPniq3DvGDhkvD6W7PC6FEjwwP332P8OrpfP29l/86788Ocue+FSyeMD/fcdbsLzIoEln9Ihs11fK8p7uTxmtIVw4/hpIefPB8/1xRvMr5kOFxX07lzhUWZrVrzSRgyeGDoYz/GZ4HEJDT5O53Vvfv2h5/996/DwYOHQrschiXsnx3v3q1ruOrKy8KN111jvwVS6GnLlH+Sv3XbzvD4U8+Hhx+8j/5oeOypZ8PDn7k/DB0yKBVeIo8bNm4Ozzz/YvjCZz8TBg7o5wxLrB6tWLUmPP3MjHDa6gze6Tin+LYLedbBHTduTPichUn9xs/7H3wUPvpoRfjSFx/2OhXLOkKM35NpTpaXVbJqFt7k+fTr0sOryW+Mv6nfEYbbduwMP//lb8PRo8dSZWkgc3JyQ48e3cI1V10Rrp0y2X4HJd+fFVHgxnSSH17rNm4Kz7/4avjCww+EY8ePhWdnzLTPD3pZ4Tfmm7qzddv28MJLr4YpV1/p9zfHOH/GhMmyFausTjyTKEePNuTb77BMuvSS8MCn7wn5JpQj15iOyJ1w4ud4jvAPHDjozxMG+O66faoLtGQY8ZqYTq6Nx/hswVL0Ffmofj5z+1NTeKkwqfUpVzWumsM6fvxE2GzPbtraIYMGxsub7Z10cx9y3yUd+UZgRiGcPJfpM4NchIN/ruMzLt/qXZIhx4gT/7yif443pZPwaUraiksE6kkA0fPhR8vDK6+9Hfr37xvu+9SdoVv3rm7BWP3x2vD0szPCg/ZQueTii7wxoSHzH/yyHzTLsY4NjRENUBkPfmtw+EzDw8OAhycjqNF5Y8gobPq1Fibn6CCV2fl27ey63NQDD2sKXYocO8ZDjnjoXO3YucsfiDHspn4nnzTC7y16P7w7770w+crLw8gRReG0/br1ytUfhzfeeiclgEw8FJhoTHLj2lyzVvHgxTHKybH4nU7EGRvlxg+OEUmsW87VvsO81K6h7OhtcY7OXHSphw6j3VXLKJ73d3u27t9/IPzu8Wc9H9dfe3UY0K+fpf90WLNuvdWHt8LJU8Xh9qk3uPXP029p8nIi/VaujPxGd6bU0mNlRUe3uPh02LV7TzhlYZFmvPEDePCiXiTrTbye97OWnwOHDoa1JsL37TsQpt1ygwsfzsGHTv68+Qv9fN8+fVL5t3Mxbs+v+eOhh3/SHNNbUSeNFfyio1OV4kodq7yW89Q7yoG004mnPhNernX+6JHzmbLz835t6l6Ix1MP6hQzyjL1PdUZoI4nrRjxmtqEBb/YccDK+PIrb4RbjVXXLl2a9QcGYV5s9Z8O7MiRI8LlEy8JeXbPnikp9WOvvf526Nq5c7j88onlAoa6kKrjMf/kCzEyeuTw0MmspvutY4q4OXnypNd1ygSrwVkbnKETftwGG9Zv2GwDEKe8SAmHMAfZL8zfaR1Zvu+zev7izNfCxReNC5dNnGBpyndrNuVB+XF/9ezZPRQVDam457gu2c4RJsdi3aFuedtEOqxsaZ9wMT+UY6ndE6n0VJZXZZ20tq4sZd3gOuogbVtdrClc11gu3m/btu8MF188Lky0gYYceBn7jZu2hJmvvhW6du0SJl5yMU0Qt0NF3skz+YFVJxv4GTViuJVpYdizd2/YuHGLtTGxrGj7uB/O+r3AgMmmzVvD+HFjPczKvJ21WQiHw+49e8Pdd94W+vXt4/HhqZ2xpy2AW2xHy6wdYvCOsojlxTnSjz8caeQY7djAAX1NNJmAM0e6cdQznlPx+lgX4BLb7lQ+GVSp/IFPPufm5lncKZFCeN4WeZqsfC29tNWERzpT/qtaQqnfZWVcR/pTz4nItDIsu9byR1jkiTr+9jvvhqKhQ0I/41FYmG959Kw0y5/169eHH/zgB2Hnzp2efxJBeXBvX3LJJeH+++8Po0aNOmfaeF68+eab4dFHHw033nhjuO2228J//dd/2fOlOHz1q1/1cJIBHDhwIDz++ONhyZIlHv706dMr4k76a8zPEj6NSVdhi0BDELAG88iRo+HlV98MvXv1shGvW73DQOeDBzQd+TfNCsRoUnyoMLo8x0bdd9lDqH+/vtY5vTEUFQ21zsemsHzlarPAdA+rVn9iHdf9YfjwoT4q37d3L+ucloXVH38SZtu1PMAG9O8XbuXaYUPCxx+vC+vWbwyDBvUPK1d97MfGjB4V5s5fEFavWetiol+/Pm7hGWyjWakHWqqj0RAY6hvGGXuo0QmgQ36pdQBGjRjmDxu49evTO3Tu0tm/85BbaSPQ785d4HnvboymTL4iXGkdQDi/8NJrZuEY7uISkcRD/pnnXwq33ny9i6bX3pjlo6AffLjcO5LXXHW5W5g+/mSdPajLwijrJN5x2y3WAeht38/YaPfHVkbvhb1mFRtkVjsvo2FD/SFKXnl4IkpmWVls3bE9PPKFz4axY0Z5p5kO5ahRI0Ivs6Th6JRQ9stWrDaBtyDs3bvPOok9PD2XT7rER++PHjvuD90VK9fY6PnpMMwevseOnQiF7a0zYXHxIKdukKZ99nCiDFNpGuJl6RGV/6Gj0bVrVx+5XGP5o17ya+GkYdv2HeGAWRLIE8fowjA1841Zs8OyZSttRPm4WwCn3nSDddbGhk/WbggwwoK1bPnKcOTo0TB29MjwKbMUde/WxdP45qw5dm6VdaDt2p49w9Qbrw+TrHNMx2Wt1Uk6E4g4OltYPnfs2B3un36Xdco7hk1btppl6x07tiv0sTo+xUQulqi9+/b5PUWdWPz+By7Ux40ZHa6bcpXX/0/WbQhdTKTAYOIl1qG0DsFG6/AR1k4T9H369HKL4SUW1h7jPfO1Nz1NixZ/EHbu2uP87rn7Nnpv4bEnnzWhvcbzTjo/ZR3D9jZNkY5Sczg6jFh0EC7XX3e1WQSwFJeFj9euD4uXLA2HDh9xa9Cbb8/2TvO4saO987Zj1+7wkuVz+t13eOdz6/btXkdTHU06dznWhpR6eb41613vRNP+DBwwwMsKhtHxuU+v3qHXlJ5W53Pdij3HBidGWppuvP5aa/OOhFdfn2Xey4zdJ1YPjntnG7axvq+xNmnWnLledoMsjlEji8KePfvDH9x/t9+zCxcvDYs/+DCcsDpHO9end++Qb1aDm66b4oJ8qd2rc02kHz12LIwcXuRtHeJq2bJV1nbu8c76KhsgGWd1irqG3wP7D4ZuZhm7xtqG67CmJKzsMW9N+m43WIcO7cMYs75eb5a6POvQ015x/y+1wbLDh4/6i8GfLiZor73mSh+J32Pt+1vvzLV74SKvi1t37LB2wUbqrS2gPLzzbvVz65Zt4VVr27bZeaYHDxjQ389xPt1xrEunzuGKSZeGEda+RodPBPCu3bvNcjPXLJ+DwnK7nxkY45lx521TvbP9htW3K6y9vfiiMSHf8kF9mzVnfhhq/pk9QIf8wIFDVqZLre3pHA4dPBz2Htgf7pw21ers4UCd45nGNGDCud7K54hZwhYuWuL3L4Nxa9dvCB0tHAaRsJhzP2KhHmwinPZzt93Lo0eO8LJ9//2lbqkttHsV/7QN1HGE5mtvzvKBgu7WDmIlJaydFtacufOt7Rvo1q9dO3f7MxQrVYeO7cNTz74QaH9Xrfk4HLR77POf+bSLuuZqB07YgMSKFSvsebHX6vg4mz0y0AXL5s2brXyWWxtwMPzjP/6jD+BQp6gX3LdR4PHOi3ZygN1/tM0MfqxZY88Ye3ZxD+O4lmcDjjhj+FOmTPFjTf2nshVq6pgVnwiIQK0IMMK+yx4AO+11+WWXuOjhAcOICqMtPIRvn3ZzuHj8OH/orVu/KTzz3EveSF15+STzVxKe+P3zYdu2Hd4hZjR+3nuLvGM2wkb5lixdHuYvWOyjshtsysPvn3vRpyNcedkkFzNPPv2cX8uDcpE9CJ594WXvGBUUFNr0q9nhQ+vM0lm55uorvMNMx/CwdV7pKLQEx9SKEcOHWefnhE/DeMU6U3RgWR9zg3UULraRS0bsVptYfPyp50KxjW5eecUkO9/e87pk6bKUZc3O0+nCggP/U6dOho+WrbCHwxGfZrLIOs8Ioe3WwcbqAKeP7OE+ysTSaBMpiIoXX3k9HDYRS2efMuJBDufjJkCeMM67rbOV7FCUWNltsPIcbCKCKUQICUYnedjQCZl60/X2QJ7sQotpQ4TBKCTpp0P2e4tjqU0NotPItDYE7UB7wE+6ZELYbQ9pHsDUDx5MCFvSz7S/Ky6b6B0GwqNTn0wTZUr87a2zNf6isZ5HHmY8EHnYIVCGDhnsI81cd7qk2C1u71gHZpCJqeunXO0MZ7z8mj0Yj3lniHS9bx1uxCiC6z2bSkcHnHTPX7Q4zLbOxBDL/3XXXO2j2TNeftWE/jHvOD32xLPu7zKzXNCBf+6FV6xOf+T3BuL9d0/83vJ42jtCedbpfc7K5ZN1670c3lu4OLz+xtt+T42yzg7p+H+/sGlDVh6Mkh+3DjNWiOMm3Hbv3hses7BKLD90qhh4eG7Gy96ROmwPeO4hxG+/vn0DAoo43nhrtrMbNGiAd7YQiAim5r43KBfKkOlR1AM6oNTP+QsWhS5dO4fRJjyxGtBJ22OdRawclhEXCEw1o1wQs1j9eMfZaQb33RoAc+rCVdb+YE2YNftdr2fuMfnHrqEzlepop7ojpI0RfjrhdHBfeuVNu1/W+9Q2BPVGa6PoRGF1eNym11F/KXvy4/ecdeROWOdr8ZKPrOxeDT2sfUScIoZftMGL9es2ebv2kbVb1EEGP5iGBYOnnnnBhc1WE+9zbADkJbtfEXLHj5+0ejPTrao3mGjqZusqX3vjnbDOBpIY1GhORyvL/cvgmJelTX37aPmKsHDx+z7djQGXEmvT6PD7FGnzy7163BittPsfMXD06HGfRh0tcuQnp12uh/e7p54J240NjPuYlQJhz9RbxHOmFv6MtT9YAHlmxRdtSLHdN9SV+fbscauilQvPrK1bdzhnnmfcYx/YdMaUNchElz2zEKfMIiANPANPWruLEH7LBkMWLHo/tDcBj/Xyfx/7vU9p5t5ECM40C+scGwQizo9WrAqvvTXL6wUDHQwoYYHds3e/n587b6FN3Z3twphBF9qPX/zqURNeu8IEm0VhlctE+FtmfT9ogx67/Rl5wETBFdTvzp1MGL5t1ywLx+x+enfuQp9J0LN7d28fqacvWVxYmPqbtb5Ll86htwmEATYgEO/D5qo/fq/Z/Ydguffee8Pf/M3fhG9/+9tuiUG07DCxi/h57LHHwne/+92wYMECT+ou4/LDH/4w/Pu//3vAaoTY2W/C9JgNIOC4n2kfqWcce+WVV8I3vvGN8Gd/9mfht7/9rfvn+cT55nCy+DQHdcUpArUkwIOl1BpdTOT0Knrb+gAaFR4S71vjzEg54ofRtL69e/soJKIGK8a0qTfZKEw/e/jsCf/zm8e8g4pp/dSpYu98MmLJA2C/je7zgKFDzogmU3FunXqjT6mikf/Vo4/7taRlv42uXW8PfjrczFNet2FjuM5GwrBuMJ8XqxNTyE7bmhrvCdUyn43ljc4QvK647FJ/KPLQpePLg7SvWQfo4LOeAX9YSnhgTv/UneUjjAeso/tM4KEIRzoXTKuIzi5xEUKnkBcWk/aFdv09d9hUsENuhXjg0/eGyVdcZh19pun0cIsZnU049+zVI9x2601uhRg7ZmT49aNPhOX2gKaMGY3nocR1PIDoiPKQIA044sZ1tFHEzu06utDkId+5c8dw3z13ubWFzsZjTz7j+cLCt2DxErN4TTBrw6328O1klpEx4Sc//x8PB2vYu5YmLCLTLE2kgRHk3/zuSUtTykIY13z4BRY/68nouDxrYmmXdVgQYlhzVppAvMGsCB9aB5lk0jGkQ3WlsWaqF/WGTSWYnsl6ArgxleYWswBhWYEdnTE6DJMuneDTsq66/DK/tqNZcJiO88zzL9s9cdA760zJ+eLnHwzDTBjRkdljlhwsXsT5/gfLfA3TnbeZldTEB+lE3CHgETYIVDrFt958Qzhm4m1deUf+blvzxNQcNg55ztY7sBaG9QsIUSyuiMdduwjrRQvrA7MCjvewxplF7ja7d+gsk6cNZmlkZBrLwBLr0E289GLvQHKvUOeay1G34PPWO3NcYPKde5YO8g3XXWsdtD5u0XSRXaXOp6ZHkXTSX2LT43jnel4I4FVm/aWefuYPprugRKycso4RAySZHNdXY1F+DAGDsPniZx/wUXzKjSlvTJ2j/eO+Y43ZAJv+y4ADI+6nLV+HbTSdcsGqee+n7vC1SyOGF4X//p9HPS6sA4jeYUMHh9tvu9nLiDUXlCfWcvLBfXfLjXeFqydf7lZMNpPBYsu6GdacLDJhbo2cvSjHTBLADjeBY6oV6cUCQZ5IzSm7n2Ez1azRWJjJL2US2w9Plp1nEAd//GM6aSwHK0rjftrE0nof7Pk/X/qCW2FP2XMHK+orr72ZynZa/mij6CjzzKB9wBEnazxZ34OlBTfY1rphBeE+YAAKiwtT3LDKYQmizJmOvHHzFmuLengeUum3NBprrDgMZH3piw/5wB+WHsPga8wGWN2l7Xtuxive9g22+55nZBe7D++567bQyzr5A20mA4M6WIFpQ0k3gy533H6LrQE96c/MTRb3I3/0uTBs8GC3nD3x9LMpa7ZZnHZax//LX/q85cMsUdbmYO3luUv7xn3AwA/549nDs+Y9W1vKlNnJV04KW8wCPbxomD2rL/epuQ6kmf/AZ8uWLbZ+7iMvv/feey/0tv7Etdde632NpUuXmiD9wK1CHDts9WnevHnOle97bMAOC9GwYcPC5MmTK9oDBigIC4HE/YRViGl1WJhg01xOwqe5yCteEagFgfhI5aHAQ6nUOho4f7iZgGH6Eg96GvrN1lG8yKYIbNi02TvkdIRZDErjQweChpyOQFdGdM0CgaWowI737dPL15HwsFlvo6kWjY92ci3Tv+K1TFlhFzmmfzH1jcbyjmm32OjfIRc72838v8SmlbDaB9d8XQGPvsofOsw3Xn9NmDB+rOcViw8CDcvBIeuY3XzTdW7VomOKdQUBxLSpCTYN5DUbzaNTmGl0ioecO8sy6ySuMkvLUOtM8cCmgzB+7GjnzEP75huv9WlzzPdmehZCYta7c33eOuxPWhwbNm21KRPFPvWEcK07aR2CPO8IUP7ElqLrsVoZpNYQsWZj29btZum5zKYV9ff09+9v6bfRSiw9jGZjVWLaG6KGNAwdOsim/RXZ6Hqel+U6K3usXG/PIU153vGgc8zaDRYyVxE+pM3y3tvEHPEtX7XaxcAnazf68eE2ZW+lWQuwVlKPrpl8pU9VYaolo6gf2VQiOja+jszCoS4yjZDRUFghwBDldIym+LUHnNkOe2hyLcKfDSu2WJ7hzTQVrGfU5fEm6N6zBzPhk3Y6yXOtU+L12eosnUAewgg/8nSxWa1Y1A/Xnsamf39GZvt6eKSDckcYYg09Zp2id99b6IvF2eSBKWFHbESTqWBMh0EIMs2G8iSMNZ+s9bn91AUe9PDt0L6DM4qdzFRJNu1f4mbE9eKLLgqXWZ1IrfGxzs/WbTbVdZ13GBFx56zzXgeS6UZMnfZpgHTsmOqISO2X38fq/SS/3+qWZ7MqUj52z9IpjZZW1nGdtHpJezPCpu8yKAFXeF80dpRvmMA6FKwNd91xa/lAQoEvJqfdwppEOqmLWDBee3O2HWNk+ng4aXWO9pN6R5281qY29etrU1OtHWS63stmfcKijhUFUd7fOtCZGCWpNPZnmBbagMuE8ReFSy9FgLO4PCUaVptlZF7/RSZaRnlbkp6WZBsdmzL8cG/DeIcNfPWye3yMDbx0tA1MGLS4xOo4swa8MUoLkHu3c+cu4Y5bbw59rTxwpI9pncNMDOy1ATzuU54/Pe0+4Z5ABGHhoU0aZ+nEorTJxEE3W5u0zaxB4y8a53W1IirqrpVPXytL2jdmIuzZs8/qyHCzFg/wtgur8SRryxnkYB0ilvJB1k7RplOnsLryTDhx8oRZrgu9rWZ6G+0Ae5Cm2p9TYbg9L7GAc08zw4GZDFgDEV4LFi0JeUs+9HqJpYr2CosPnMZY/hgIom7wPGEAgbaavNO2kgbih3Pd7okKCg32gTTSHs6cOTPMmjXLnwWI/KFDh7rQISKe9bzIB440x2OUOcex8HIsOsJFEM2fP993oL3vvvvC5z73OZ8G9/3vf98HXqLfpn6X8Glq4opPBOpIgGkxWHNoSJjzPGpUkU9pY1Ey6xlocFj/w1Q2thimk07nAFHEw4RGapg9JGj4GX3ioUFYOM4xZ9ne/LN38O2a5LVF1on1nZjsgcCoGbuhmW9v5ObZ1JgVNhLOqCIWjWHWEWEUrbkbc8+c/eHBQgd40ftLfHSuyB5kzBcfax3Vy80K9ILtZMROUSzkZrS76sPorOeVkXssL0nBQf4ZKY2OEVOsB2w8QWcCfgX2sGV6Ayx4MdpJ+KwNQlAwFYApJqnF+CEMN3asn6IzkAoaa5XttGUdACx+iFDLEAXl+eIhM3/B+2Hx0g/DfXff4VYGyiblJbWhAt+ZYkLHnYR16pTqdKd2BDSLkT3U6STxHQFdYIuHsUhRP0jziOFFYWB5mmJe4zvnme5GZ2u2TWPDesbUP6aKIGBw8Mfis8KmUbEWo2ePnmZp6+0dRzoshIEfpqjl2DvfeVEn4Yhox+L0zrvzQi8TJdQzOp3M4+eBS93v1LG7l41fa9fQaSVM1oHA2YKzjspRP46ffnYvdbUOTr51gHH4pyRTC/Hbubj3UXAuLHfwQZhyPdPzuI8QbUyT6mYdHMoSkUoHHIe/ds4wFQDf4/H4OXWmef6SBuoZ7QKWX+qqAfNpbQcPHfFpOyNMvHiliUm0ayzLVY/Fc+VHYU4HD4sePPlOuXq99BJNXHCejyCjbPrb1EEc5Z1yVrZWpxC/BdaBtIicN+fwj8Mv4pMOL+HwnXuUto96hYiio4qgoW5QXyhPFvjTOeYeQPgwAEKnrrcJ4D/6wkNmtVphg0ObfZoU1tX7773LBVBsTz3yJv5DvqiPI2ztIgMUtPk47hPWw3xgU7AQjhnxA6cGByPaGKzYqTbJ/BqnvAJ7hhhX6nu1q+0AFpxLTXTQdiRdvqWLdgxW3CfUJZ5Czt5DMsFhgoR1pVjdxthACLMRJtrgE/FHR5yUK+KENNBG0HbTtlGvvW5bHIg0yv3kydSgla+ps0jjve1tHPHaf9Lg7UD59bQ/1BWgce8TprcpVu8QzdQh2niO8RlhxPPPDlh7ThtS6PFwjmcxjnuBOkb6Yzr9RDP/gRHTUa+77rowfvx4bzOx8CxevDg88cQTLlY8n5a3pEs/luk7Amrt2rU+wDBt2rQwZswYezZ0sfpxaVi0aFEyuCb9LOHTpLgVmQjUnQBTGZjKgfh43ywqjIAyutmtW5fQI6erz7dmgSYdARpzFuUzSsc0qq7WAaUDsN4sDMxFZkG3t7yeDJrgSkfD1d2mJPBAYboOnVfCXL9+s13bwUZYd7m53h941oAzbWiuWZVYiHz1VZf5qNxcGw1nnnlLcjwUWeS8ect23wyADg0iBCE43Dp+a2xXPCwTjFTuMz6M5NNxY7oSnfOOHTtZJxmxaBsAWFj+rLQHIYuc6RRVPg5Su0LxkO5qYWFhYdSU8zxciIe55tddM9k68b18BJqpETywEWeMJFNudGKiy7dR+TE28s7ubWwawCgo4VNWiJkPPvzIRhlNPNkxHvRM8Yoji6SN9Hfp1MUtGZQbi/KZukHHBSG110ZKO3fp5PWGB3eRjfIxPYbpH0yJJE19eveskqaYNkDQORg3erTN2Z9lGwQs9TUfX/njL3jHxhB5Opn++LYtoh44sJ/VyZtNyHV1f4tsxJSOBS7VffCPFX/II2tsZtliaEaFqc/knwXt79s0JvJMHWVaHFPQ2nW28rH37bbGgWk7nO9h9ZlOxr22UQK7W1GfWZiMGEOs4DifdOnfySdhMV2QTvz0u2+vuDe22ZbOdBBTnc2q4STDbKmfLTtW9qznsA+Wxzg9iboLBzpt1HlKifrEFC8XzRkyRO4Rk6l6uN/LgPYIgcGATcpik+HCcx2ydOXlV3Z6U15THX06a3v3puKhrng8NujCvcY91MHuYdoo33krMMX3lE+FY4CB8kLMYPVjnV+BdeaPHTtpbcRWL1vuVS9TyxR1BaF95NhR3+jihuvMmmJTGJkyy7oudqFrzo0qkvjoY8OcAsOaSRkes/uPNovj3BfRnbI2ByuXeYqHqrxzb9NJZZMPrKaxM48oZDMIrx9Vrqj8wv1MmVBvUi5DHO2qHkMod+vW3a1BzBwgfjY8QYgeMotEusNyR8bybdAES8pes+wgiHMKrM5R1jbFm3u8u+1+SlrO59Lv+6qpS12NOGLDle62fudeG2zqZMKY3z/aafUOKyOW3ZQ7R3wx4Fqk6Xxpbojz5JsBOTYauPvuu50VomfdunVh1apVPoUtskm+05aeiyvnaDMoC+oim+HgKJP4uSHSX58wENxyIiACLZhAqmHqYGsgrjcze+o3FHhAM68bKw/mfKa5pR74+eFSM//T+Tt69Kh3QlhHwfQcHI1O0lLBMZ57xEGj7tdaBztey6jWu++xoDHVqWfEyq+xP4y2n7L1FTwIeEDR8DM6j7kf0UCYsaH0i5rpD3lmOtZC6yyzzoWF6LDbYtMoWNCNiKRTzBQO1qesXvOxjwIzFWaJrRFhJzU6ADzU6ASwuxDrS1gTw6L32PjHvDKVYczoEd5p5LdsWBzO+oO33nnX10Ax/WeCxbVl2zbvUPjuRDZlinU/TDsjvZEd05FYG9PFxMlT9nsnCCeEBGtO3pkzz9cM3WBrrHqbOGHK1vJVa3x6FaPYTKdjtJcNCIbYFBA2R2D6I1M1WAPBmhOmNsZRXdLk9cqmf6TSZPO4rd6wrTDTZ2L+YjFSj+jaMD2EtRIIFMQ1U5wQCnRkqFt0PJkOxsOVxf10gBfZFBFEIZ1VH4GlZ5ZwXEd8dDq5FosBU/QY3X3frj1h19Ipv+Ticf47Jqz9QOSxKxPrpMgTo/WX2Ggx00B5MWWFQQDWeXln3h7M6XlKcU8kxD5yXzFCzVbxbJbAGiLCQqyyGQBpog6kh0Uo8ViqjrTz3e4ov3i8akxN+S21jTjr+pjOtMPaCzrz1I+169aHouFDnB9TchABLGbfaSJi3nxjh8gs79cl8wEnyol6xLRa1uBQD5mOyKYRlEkUujXlNBme+6EipDnqBKKHAaBNti5hsdUHtmD+aPlKn+ZG5x7LNFMnWXDOPbvd8sh0RwZlSCfnmf61fsNGTxflycYiLJan3iTLk8/s9PX072f4mi2mMDGlKmXVBET1NKYluVG/kgKY0K6xgQNlud4GLGbb7oysk2PdDHmiLDfabl1M/SKvrDtBFMXUJ9mXlZ61azq49Za2koEL6grTC2fNnuftZ8ZMWWK4HxCkpKPiZfypQ/7syVCmxM2L+jNqRJGlb58N6iz3KaT5Jkpxbi0pT2wMgmsQNuPHjvH1ebRpLKanzBfalDksXZSX5y1mtDzhfizDZz9kfpPnOUa9wcrHeksGxxhM9MFBa8NIK3zYBjumrTzoVHDlB31TE2NEWfGcTI8jeU1Tf0YY8+zhmcP9Rb0nzwgXjvG832v3GeXLGh+msZ3LkTemxrNxAmWyYcMGD49pdWya0JyucmixOVOhuEVABM5JgEbpctsiFEHxtnWg/+M//589yGyHL3vI97GpQ3ffMc1+hG6jdzjZchML0O8e/703ZAgaOqb8ZgYjfIyGxo4LkebZ/HY6qhznWh6Kj9q1dOD92mGDff0Go72sBWAYj0aRkbgxo0baD9+94ttpM+2JY6wnoUPIw5jrm9PR+DKKzZbEdDhfef0t34mO0USmLCDY2PaYjQ4Y+WUbZ35Qkd2hsIj4ls5m/eplW9xebVOCWPz8Hz/6mW8AwbnO1pnnYQYPt9QA1l6sO6BM2HkIsZJnD0QW1bLhBAt9b7Cd2LDO/Oq3j6c4WxqH2++TsNMP4VU8PO0DU8P+8HMP+Xqk3/zvE5Yfm0ZhDyTyduP1U3zdEELlphuu9Y71E7YzXWrdzhlf8D/VfuOHKWJYPZ6xfP3nT3/hFh+mtTE1j4cTdYlNHhAIv/z1Y54mHnZMn2Ghu6cpUZDUR/JLX4KRYDaPYCckNgxAIDIaSBqYqtfR6gXTMumIsIU601QQR8T7xlvv+Loz6gkMcbxTJ8+U5ppY6uC/6fKeTeljq3HKkgWyMOA++IP7PuVbE79tu4a9ZmFh4Rw1YoSvI6L+TjDRt9HWlzxru6+98NIrPoWOnZXo9LI2jQd91XgRnqlpdpVpybcHf7536Fm7xWYOz8+YmQrLpuUgjJmSk2c8Y1hcm2TE9J8hgwd4fWC6zxce/gPPW3N1fJheyWjs7Dlz7fc0llq6rcNm/2gHWM9xp63dQ2hOtk1LXnz51fCv//dHLnBZ8IwIJJ+8Yrn5Z2NJnWGd3BbbZWuG/cjlTJuCS8cVoXGw0H4stbyM4ZPuYnikDRe/k7bonKnFQz3gt36YVsvCcnZfw5JL2tlMgfhus3vt6NGZgXuGzV+62YjzyJHDXchj5bzZ7hfK8sfcDxYeVlAGDxDnLESnbuCIk4GTwVZ+//vY017fsapi2brJrN1YZZurHFPpS63pedN2JVtgFigj52XJ/cmas9us7ethForLJ15q99/H4d++/2Ob6tnNxHtHn0VAXitZ25pC7r9822nP8o1woM1iAGehDRpx79J20pb54AYJSDisZKx/+fXvrJ0qb/thw3PjMnt+sUkJ24nTnkRXEbcPo9i6QePP7o9MCWbbecoOR3n4venpS+0YRtgIuiuvmOjPPAYBX7D6StuNRZ8t8bl32eKbdbLReZwWnk+p9XpctR3IsTYglj/X4B9ODACNNCHJYBObSbxubQ7nqB9szMIzhnaHY9HBMz4HaaeZucFPBmA5+/Ovfdnjac76Q1qZkvbUU0/5hgW0C1u3bnVhM27cOJsGfrmLHazvs2fP9rytXm0DnCZm+pZPQyX98UW++Uw4rKG75pprwi9/+cvw5JNPGp/jtivjxvDhhx86k+bKN6VDq0LvhO02CiwzM0ztXW2f5URABOpAAFGyeNnqMKRfb5telJpvXIfLz+uVBooOJaKGzhPbl2IypmOKRQIrDQ8kGnpEyh4bNTtqDQ27tNF5ZpoQDTOLuxEomJ/pQOOXBzlWAxp7vjOyzWgglhA6zVyL9Yc42O2KByDX0lFmm1EEGCP/CAmupVPAA4mGjbUZPAya2zHiyNQXpq0w+kx6+Q0JLD7km7QyJ57RY9hivWDaX2978fBi5GubdbQOGHtG+voYFx5eLH5mPQflMrB/f2dDXn2ht03x2W+7HMGC39xhDnuMiy1f4cc0EqZ/cY7OWfKhGZmRNrjuNUsT8dOpIW3Mh4c1ztNvnT4sH6Srkz1kWexPB5YweRB53bERX35MlB3LEB880PHDQx3hx2gri35JE2VPHUimiVFbLEbEgcCjbMkrgpepevhnPjsc6RwxhQ6/WCHJazerj3Ru2A6WThq/m8L1lAP5YsSec9QvwmNaDdPT2GSjyrX29GLL2AMHbWtdsy6RJ+uO+w6EG22B+v/3ta/4j/ySVqa9YH3oYiOZpAd2TPXhd0XY4Yl7AT5xDQLx0uElvZQRC5TpvBBGMizuN+oHls9k+VMWjABTjxhwgB9hH7S0MvqesopVdui9AJvwD/WfLYCxWqVG4encWQfAOvGsVyD/pJn2gimWMIzrGCgP6jlCie2F+UFd3E5jyWfaBjq/TKvkHTHK9NuTxnKgcYzT6ZLZJW7SQni0aYzSp9o62y3Qru1idTwypS5RV3hn6i7im7WN5AMLJ/fJ1/7Pl7zs2HyCaayET3mzvfgwG2D4tO18yFQpLBMMQHCOqYzUC1+HZ20kI9zEQz0gbHYrY5dL8g8n7g1ENHW22ZxljHSyCQBr+ZJlSZ1mShaDNjj8Ye2ljcOyAmPg0ZZxn1LP+Y2eMruPYDigvC3D4oPFGpYMYtBulNr91sPeuTY6yoeBNSyIqR+FjWdSdYt1ddQrLE49eiC8Uu0W9xjlgCCAq1uMrI0+bc86BpcQUzyfaBMoC55nfGbwg3Cop6m6Yff5zj3+zCOdfXr39vYPEcQ21Ai2nr2YrmqblVhbzhRZ8sL0TKbJxTTRDvCswLLJwBBx0vaQxl62wxzTpNkie7tttEIdZA0Uz07qAxbsVP66u7CEADtd8iPUiCM48/yFNfcB62eTbWslsbp/QqhusunoK+2nEj5zz+0uXM8XCr/h861vfcuFDmmLaaHuIHoeeuihMHXq1LB06VLfznqbzVLAgsPgE30B/P/1X/+1X8/Obffcc094+OGHwz/90z95ffv7v/97r4M//vGPfXc3hB/Tj2lLd1t78cgjj/grxltTeteb5XLBB8vDXTdP8WdxTf7Sj5MP+8HUhYMHD55u54rtxd77JdYcSPgYAzkRuGACjS18SCANBA0xDT2dFxoQjvnD3Y5HSwB+7LA9gOxHx/Bv13IuXh/9EWbSb/r35LWM0jH6mn4taeHF6L69+WfCIa6YBr43t/N8WiJ4EJIH2JEnX3RKws2lWKREAg8C8oVfXGTHgzHmFUHE1C0crPjMNbjon+v5jIus+Fw1rhS7GBfn012Mk04A6UawpNKXig//ybLMnP6UNYnr8OvOPsc81DZNSX+EQf5IHyxjHmJ6+R7joj4yaluOyNPPtbzgGl30X+1aysT+gRMO7PA28/U3bXfBm310ep1NT3zBLJCMLt9z5zQXdsnwk0w8zWlllqzvMV+khXREZjGt5wsrnRHfeRFOMq8xz0357nm38rKSS4uW8qssw8jiz30jAABAAElEQVSO/Mf8Jut8ZEMg8XMlp/L2x+MhptS9wvlMjrgiH+KL3yP7GAd+GIRgGupbZun7lJUz2wezIH7mq2/YD9ROtnV0V/kPZSJUOM/gAFO7sFw88oef9emflDV5wRFHaufM8g0Z7BzxJ8uJeHEcY5olAwXJtPnJZvhDOrnXal2Wxp98cx2OPOBi+SU/U1ZeDuaXtV20/8nr0ssylZZKy4oHXP6HwQnqVownXuvhG9skS+oaDkFLbSGlDC7huI72j2oU085xwsUfbRlli+NzKvyq/pNx4i89TR6W5TmWf9J/BZPyNHMOR1rS/XE8/Rhh8yKcGD7+LtSR57oKH0QtPybK/ZR0DM7xW1X9fCCj0EUMU9UQK5QNwiemf9CgQX5+u03DRxT1NsHJ1ticHzJkiLfBXEc8WHy4lmmUxI3FKFqNkvGnf5bwSSei7yLQQgg0hfBJZpUGlcZFrm4E4oOqtbJTuVeWN9bJ12wUf4MJHka8GUVly/bbTQgxei/XdglgleBHJ1mXxiBQe7MAjBhZFG63qVlYHTfYtER+UHa/jebTaWfdAlMur7dpSkzPlBOBtkSgPsKnteS/oYVPM9poWwtypVMEWiaB1tpxb26arZ1ba09/Q5Y/09aw7DBtkI0LmObJlBWmDMq1bQJMLZpuP07KtKeS4jM+xY5pcUytY3BgpG3H/fAD9/l0Q0bjGWVmShLTTuVEQASyl4CET/aWvXIuAiIgAq2eANu6s/6EGScYQBGGySkwrT6DykBGAogb1qmwNie97KkDTCdiLSMbhjAHirpBvdDAQUacOigCWUNAwidriloZFQEREIG2R4B1Azabv+1lTDk6L4HzCVzOx589PW9g8iACIpAVBFIrwLIiq8qkCIiACIiACIiACIiACIhAthKQ8MnWkle+RUAEREAEREAEREAERCCLCEj4ZFFhK6siIAIiIAIiIAIiIAIikK0EJHyyteSVbxEQAREQAREQAREQARHIIgISPllU2MqqCIiACIiACIiACIiACGQrAQmfbC155VsEREAEREAEREAEREAEsoiAhE8WFbayKgIiIAIiIAIiIAIi0PYI8HtW/L5VW3QNmS/9jk9brCHKkwiIgAiIgAiIgAiIQFYQ4Id5O3XoEAbZD/aWFBeHUvsB37bgEDyFBflhyIC+oa45qkksSfi0hZqhPLQoAgV2kxYUFOgXwltUqSgxIiACIiACItA2CdDJ79OrZ+jevZtn8Hw/7tuaKPTo2jV0GtvRBFBe4Oeqa+sKCwsDr3Qn4ZNORN9F4AIJ0ADl2GgLIzByIiACIiACIiACItDYBPLzckN+vomDNtb3yM3NCR3zCj1fdZnIR18sk9VHwqexa6LCFwEREAEREAEREAEREIFGJOBDrW1M9ERcDSnm6jplLqZB7yIgAiIgAiIgAiIgAiIgAiLQaghI+LSaolJCRUAEREAEREAEREAEREAE6ktAwqe+5HSdCIiACIiACIiACIiACIhAqyEg4dNqikoJFQEREAEREAEREAEREAERqC8BCZ/6ktN1IiACIiACIiACIiACIiACrYaAhE+rKSolVAREQAREQAREQAREQAREoL4EJHzqS07XiYAIiIAIiIAIiIAIiIAItBoCEj6tpqiUUBEQAREQAREQAREQAREQgfoS0A+Y1pecrhOBFkwg068VJ5N7IT8GFsOOYaR/T8aT/rkuftOv1XcREAEREAEREAERuBACEj4XQk/XikALJVBSUhLKysqqpQ7hwSsvL8/fo3ip5rGGA4RZWlrqZwkDR1y43NzckJNTsxE5/doogvxi/REBERABERABERCBRiYg4dPIgBW8CDQlAcREcXFxeP3118OGDRsqREpMQ0FBQejVq1eYOHFiGD58eCgsLIynzvuO4Pnwww/DwoUL3e9DDz3kcc2cOTOcOnUqTJ06NYwdO9ZFVbqg4tqVK1eG+fPne5oefPDB0L9//5Du77yJkAcREAEREAEREAERqCcBCZ96gtNlItBSCZw5cya88847YcGCBS4yklYYhBHfe/ToER5++OEwffr00Llz5/MKEK7DYrN69eowY8YM/zxt2rRw9OjR8MILL4TDhw+HwYMHh5EjR7rwSbJJXvvss88G0nfTTTe58En602cREAEREAEREAERaEwCEj6NSVdhi0AzEMCKcuLECRcliJyrrrrKxQ1Wl71794a1a9eGAwcOhMcffzxMmTIldOvWzcUIAiWTBYbjOMIaMWJEuPnmm134dO3aNRw8eDAcP37c48LSFF28JjndjvPHjh1zMRany0X/ehcBERABERABERCBxiYg4dPYhBW+CDQDAYQHL6ayfeUrXwmjRo1ycYOF5kc/+lGYO3du2LNnTzh06JAfRxAxXa19+/ahZ8+evl4HEbR//34/TjhYiUaPHh26dOniOUIw4Yd4EEVR7PCOyEEUbdy4MeTn54eBAwdW+I3+mgGLohQBERABERABEchiAhI+WVz4ynrbJ4DI6N69e+jdu7dbWjp06OBChOMIGaw2iJSf/OQnvn5n/Pjx4Rvf+EYYMGCAW2d+9rOfhSVLloQxY8aEv/zLv/T1PU899ZRbfL73ve9l3Mzg5MmT4fnnn/cXwikKH9YWZbIotf1SUA5FQAREQAREQARaAgEJn5ZQCkqDCDQCAcQN62lYg8OmAnzevHmzCxksOPfdd1/o16+fC6KdO3eGTZs2uUjCH45part37/bjnTp1coHEFDmsOJw7ffp0lVTH+ObMmRMeffTRsHXrVrf0DBkyJOzbty988sknPgUP8SUnAiIgAiIgAiIgAk1NQMKnqYkrPhFoQgJYc1588UWfuka0TGfjhUWHjQjY5Y3tqNmKOr6SyWMKWzyOsInf+cwr6fhO2C+99FLYsWOH7xr3rW99y6fZIaD+7d/+LSxbtix5iT6LgAiIgAiIgAiIQJMRkPBpMtSKSASangDTzG655RbfwpoNBVjXg/jAAvPTn/40dOzYMVxyySUXnDBED9PYWEOEVYnPkydPDhMmTPBpdqwbuvbaa31jBU13u2DcCkAEREAEREAERKAeBCR86gFNl4hAayCAwED4fPrTn/Y1OkxhwyIze/bs8OMf/9h/54cpcPyeD5YcXLooqcvua1x75MgRtyAhhPidHn7kNE6d69Onj3/HCiUnAiIgAiIgAiIgAk1NQMKnqYkrPhFoYgLswsYGBwgQxAlWGNbZsOvali1bXAxF4YPFBrHDd6bAsdsb77VxiB02S0BsEU+8lrD4zvogwsafnAiIgAiIgAiIgAg0NQEJn6YmrvhEoAkJsAnBhg0bXHggfPih0ddff923scYag1WGLaz5EVMca3GYqsZW1YsWLfIpcYiW8zn8IGgQWUOHDvU1PvyA6u233+5baiOCFi5cqM0NzgdS50VABERABERABBqNgIRPo6FVwCLQfASiWGFr6X/91391KwypweKCVQcrzuDBg8O0adP8d3v4fR5+24ff9fnud78bmJbGVtT8OCmbG8TweI+vmLv4HZGFiLrrrrt8Bzd2iSOsoqIit/4gwIg/hhWv17sIiIAIiIAIiIAINAUBCZ+moKw4RKCJCSBA2LgAKw9CJ4oNrDxsNHDppZeGe++9N0yaNMnFym233RbWrFkT5s2b5yIFwXPNNdf4NLjly5e7H6assQsc4SJy+I4o4jvrdgibF5spsNbnySef9C2tsSKxbTZxIK5IE9fKiYAIiIAIiIAIiEBTEmCyPT2QfHvx4xoFx44dm2G/2XG1fZYTARGoA4EzZs1YvGx1GDV0YOjauVOF2KhDEA3iFVGya9cut9ZEwRMDZjoaa3CY2sYPmCJUosWG6Wj8ng+WHn7wlC2vCcvaBBc8TItDELEjHI7f5+E812DJ6du3r6/xQdTgD8HDttbEybWsM2JdEfFhbUKcyYmACIiACIiACIhAQxOgj2H9mYXWn5luYbOr0kl7lcji09CkFZ4INDMBhAei5FybCCBYouAhufhF6CBQmAaHOIrHOYdfruGHTxFFOMQObsyYMf7O+RguP3g6atSoUGTT3Lg+TpdDHOE05c0x6I8IiIAIiIAIiEATEpDwaULYikoEmopAFCV1iS9egxUIAZPJRQGUPMfUtXSHP8JDhMXP+Kkp3PTr9V0EREAEREAEREAEGpqAJto3NFGFJwKtnABCpaFcQ4bVUGlSOCIgAiIgAiIgAtlJQMInO8tduRYBERABERABERABERCBrCIg4ZNVxa3MioAIiIAIiIAIiIAIiEB2EpDwyc5yV65FQAREQAREQAREQAREIKsISPhkVXErsyIgAiIgAiIgAiIgAiKQnQQkfLKz3JVrERABERABERABERABEcgqAhI+WVXcyqwIiIAIiIAIiIAIiIAIZCcBCZ/sLHflWgREQAREQAREQAREQASyioCET1YVtzIrAiIgAiIgAiIgAiIgAtlJQMInO8tduRYBERABERABERABERCBrCIg4ZNVxa3MioAIiIAIiIAIiIAIiEB2EpDwyc5yV65FQAREQAREQAREQAREIKsISPhkVXErsyIgAiIgAiIgAiIgAiKQnQQkfLKz3JVrERABERABERABERABEcgqAhI+WVXcyqwIiIAIiIAIiIAIiIAIZCcBCZ/sLHflWgREQAREQAREQAREQASyioCET1YVtzIrAiIgAiIgAiIgAiIgAtlJQMInO8tduRYBERABERABERABERCBrCIg4ZNVxa3MioAIiIAIiIAIiIAIiEB2EpDwyc5yV65FQAREQAREQAREQAREIKsISPhkVXErsyIgAiIgAiIgAiIgAiKQnQQkfLKz3JVrERABERABERABERABEcgqAhI+WVXcyqwIiIAIiIAIiIAIiIAIZCcBCZ/sLHflWgREQAREQAREQAREQASyioCET1YVtzIrAiIgAiIgAiIgAiIgAtlJQMInO8tduRYBERABERABERABERCBrCIg4ZNVxa3MioAIiIAIiIAIiIAIiEB2EpDwyc5yV65FQAREQAREQAREQAREIKsISPhkVXErsyIgAiIgAiIgAiIgAiKQnQQkfLKz3JVrERABERABERABERABEcgqAhI+WVXcyqwIiIAIiIAIiIAIiIAIZCcBCZ/sLHflWgREQAREQAREQAREQASyikBeVuVWmRUBEagg0I5P/qfiUAhn/X/iQLkX+QNNFdcU/M6mR2opyBSv/LVhLhnuSSpitXpwof5qcY97vPJXrS0QFyNQU/1TfVF9ob1KqweZnlmZ7qNM/jyoWoZHmOlOwiediL6LQBYQoDE5U1pqDbJ9SHN5ubnWSFW2KiVnqvtrZ92u3NycOvsjtjM1hZdn8Zanpdb+asiHpy8ZnmX4TGlZtfySz1zyG+M9hz+4RHdW/hwF/GrDJaec8/n45bTL8Xp1fn+pcju/v9qGV9VfmZVvWYb6kp6+5vXHfVnV5eRYPuwVXSp9tfBXdjaUlpXGyyreq4XXbP7KLH1lFemKH6qnL7M/mOA3ujILK1N46f7wg9+qzupeTrtahIc/4o2tS/A408OjrSJtDerP2mbuuegy5cPjTfijLpG2jOmrrz+7h8rOVuWXMd5m81dq6at6F/mzI/Fscy72rDyvP/NYZvfQ+f1Z2wLn88Vr5yk3njVJVy19F+qPttnqX3zmE1/GeFuQvzOZuGRI35kzZ0KJvdKdhE86EX0XgTZGgIaMV/LBf+LUqfDJxq3h5OniigaPbCNmLhk9PHTs0N5G8M6GEmvwV6zdGE6cOl3FX575m1AbfyY+3F/7Qk8DDdGKtZvCybTw8vPzzF9R6FCY8kdjtTKDv0LzNz7hr/hMSVi1jvCq5qN9QX4YP6ootC8s8HiLiy289ZvCqbT8ti80fyMr/Z0utvDWb87gr8DCGxbaF6TCO1VcbP62hNNp4XVsXxAuGjksFJb7g+9qC49w44MFzh2NR8pfvqevJn+dOrYP44YPtfBS/iiHNRss3rTwOndqH8YWVfo7dvJU+NjKtziDv3Hmr6A8vGMnzN+m6v66du4QxhQNCQX5qXiPHT8RPt683cI7Y/kgBynXtXNH8ze4wt9R8/fJpm2h2MRt9MZ7yt+QQDlTF48cOx4+sfAQ1RX+LOBuXTqF0cMGhfy8POscnA2Hjh4P67ZU99fd/I2q8FcWDh05FtZtxV9ZlfC6d+0cRg0daOHlengHzd96Cw8RHB3l0qOb+RsyMORFf4ePhPVbd4bSNH+9unUJI4YMqPB34NCRsGFbBn/dzd/glL9Sy8f+g0fCxu1V/dEx7dW9axju/nKss3E27DN/m9L9Wce5t/krwp/dd6WlZ8Peg4fD5u27vIMS80HHuU+PbmHYoP4Jf4fM3+4M/rqbv34V/vYcOBS27Mjgr2f3UDSwn7cLsNi9/2DYsnOvd9xivIiAvuZvaMLfLvO3Nd1fbrvQr2ePMGRADK807Np3IGzdRXiVnTvaoH69zV//vt4hY4Bm1979YdvufdX89e/dMwzu3yflz+rSTvO3fU91fwP69AyD+kV/Z8KOPfvDDvObHu/APr3CwH69y8NL+dtu/s4m0ofQH9DXwuvb29tU2qodFueOPQe8bsOF3FDnBva18CxM2l78bbc87Nxb1V+B++sdSGOlv73m72CV8PA3yNJGnt1fyRljstcYJvxZxAX5uc6kX68e7q/Y/e0Ju91fqtS4BwvsXhwyoE/oiz8bcCgpKbGy3RP2Wl2w0+7cX0FeGGpl0cf9tfM2Zeuu3ebvcBV/tFGUWZ9e3V100fZs2bnb6nR1f0MH9A29rc5wD+Bvs9W9/Ycy+LM61dvqNP5OW5u7eceucODQ0arxWhs+zOoU/riXaZPd3+Gq/ngWUEe5l6I/7rUD1ibEEQTyi78iuzd6dov+Ttu9uyvQdiT9dXB//a3t6OLhnTqNv53WFh1PwbO/hNfB2voiuyd7WFtEvDyDavI33PzRZuGPZ8JGa1sOWxsYHeHx7KDNoK1M+TsdNmzd5W1qFX8dCr0N6tq53J89O9ZbeEePnYjePH2d7FlPm9alU0cPj2fMBmv7aMujI16eRe6vY/R3ytvIY8dPRm+p8MzfSGtLO3fs4OEdt2fR+q07wnF71kRHeJ3xZ21zpw4Jf1vMn/mPzv116pDy1759RXg8E06cPB29ebxdyv11LPd37MTJsGXjtrBr954Kf/GDhE8koXcRaIMESq3TcMAeAEetceKhGYUAWWVUh04FjSeusuvhX1PHrIFidCXpjxOxsxp90kCl+yO8VNiVIeMvPV7CcFFW6c0bMtKeHi8jU1WcXUOHLN3fmdJK60zKf+Z4z5TVzh9pTgKybFi81dOX7CgTr/vLwM/DSwRYoz+LIxlxKt6q+aUsUvEmAFrY6Vyiv6SVj8/p+Yj+Esnzj5X+yFmqDqTykfrOX1Lg8SJoyiuJh2cMYrz4oR/p4SX92QVYHchjdIyKVsRbfpA65aPSaf4QM14PMvojFYy0pix/CPry5HkdTVl3uLDcn8db5sI/+qPzRd5S0ab80SHmWDI8/JG+Cn8W1ln7HsujPHnemUuNruPTwqvwR72qFGY5Z8vz6xcSL6PAqbwm+eOv8vu5/CGyYvjl/uw77CqP2yDI2Zwq+SCVfv+m+Ttr/hBtMb/RH+Gl8ucJt2tT/lK1JPXX2w33l7rafRoHFyTxkL1TD7AUVx0lT42cl0fsb+n+UkFUDY9jdfFXmog3Jonr42c+kH/qaUwf5zD0xO/kK9X2Uf+o46mra+3PPFYLzyIm3irh4c88VrWypDil/JGSVFpoSz19JMLSSpJS90flPUg6c0ur+qPkykx8VwvP2txkeO6vIn0erec7z/x5/mO8hEf9M84cwnG+wl/qkP+tyV+SMx4z+aN8IvcYZPQXv3OeeyAZHmmqjT/CcH8WT3QeXrV4U3HAL7qa/aWeMUl/1awdlkDazerh0U5EoqkQMvnzmRBVvZ0jvJiSVH3JFJ63kenhlbfN8erIuUryyIcxqZ6PyvrI9VyT3pYS3pm0Zwd+08PjGI5Wj55Evr062Kvg2LFjMzp16nS1fZYTARGoAwFu2MXLVvsIM6Ms6Y1OHYJqEK+khxFGRiNph7BsMFKOI22MBCYbeBoDHCN3UQzxHetC0h/H8Hs+f5nCIx2M8FULzzxjJYnX0LgV2whkuj8e/gW18tfOrRqV4Z0Npy2/6WVCJxXrR9JfOhfy6/7M+mHe3RFOTeHBJbqUvxJvrOMx3gmvVv4sw4UWb3TwgAt8ko7OTm39YcWJ+aWjU2wj0dW4pIeHP/hVdE1SsTPaT3jReXikLx6wd+IifVX9lZWHV+kx5S/HR6LjUToSqXjjkRjehfkjtJjGTPHS+Smx/Kb7o7OI1Sq6Gv2Z1QKrVXTRX4yT48SLdaNe/hBblFuMoKbwavSX6xaJeLmLt4zhVfVHm5LsoHJ9pnzU5A9rCVa16Gr0Z36SUyjr64+04YizSnjWySbMyO+C/dXA5Xzxkjbirq0/rEhMzY0Oi6l36OMBeyc86hR1K7ra+IMFFnnvuMYL7Z02Lz+3MrwG8Uf6ygexzhlemj/qfOUgRSqRnr50fzzb7B6O5YtP2lw4J+PlHufeTDr8wdkH4+wEYdTKn3kkfZnDy/M2kHhoa708MsbbwP6srSI/MV7aeh9U8COpP57fZvKH1TH2NeCS8dnLs8PK97z+LJ/J8HhWcq/s239g4eCBA6ZbbovthXmqBCISPgZBTgQulAAP0pYifGh8t9kUEl6M/jHNY7BNQ2C6RHSxIYnf43t6J1j+UmTEJfUAjfUkvrdsLibVkr0fS3Tm+txG/Flm07KbOb9Z5i+9jlJ3M9WDdH9e48s7jrG+8y5/DjCJxD9X45IC2IL9tcY2LUP9y1BHgV69PLIrv+1t2tuBAwcW9urVq4rwqRySqlY1dUAERKA1EqCx22/zqnfaPHYEEPOB+9uceUaxki69UUyeS36WvySNys/iUski+UlckjQqP4tLJYvkp5bMxUVkunJOJr78s/xlgGKHUujSpXh1v83n7/xpI7UtuY4qfdXrU/JIprKrtIUmfeqzCIhAqyWAiZfFz8x5ZeFvSvRojKPVFqgSLgIiIAIiIAIi0CAE1BtqEIwKRARaDgHmJjO1rYvtvtK3d3ef791yUqeUiIAIiIAIiIAIiEDzEJDwaR7uilUEGo0As3i72eYKXWw7yeQC10aLUAGLgAiIgAiIgAiIQCsgIOHTCgpJSRSBuhBA+LSznVDa2W8zyImACIiACIiACIiACKQISPioJohAGyPAj0eyqpStOzPtXNTGsqvsiIAIiIAIiIAIiECtCGhIuFaY5EkEWgcBfoNh5bpN4YPVa/0XoiV8Wke5KZUiIAIiIAIiIAKNT0AWn8ZnrBhEoAkJnHXBc6q4uNqPfzZhIhRVIxCI23LG9xhFFLfxPR7XuwiIgAiIgAiIQFUCEj5VeeibCLR6AnSA1Qlu9cVYkQGEDr9Cfvr06XDq1KnyX1e36Yzm2MEvPz8/FBYWBn6sje8q+wp0+iACIiACIiACVQhI+FTBoS8iIAIi0HIIIHgQO8ePH3fBk56ypCDCT6dOnUKHDh1cAKX71XcREAEREAERyHYCEj7ZXgOU/zZHgF/B5iXXugkgao4ePRpOnDjhvxx+PkvemTNnwpEjR0JJSUno2rWrxE/rLn6lXgREQAREoBEISPg0AlQFKQLNR6BdKMjPtY5ynqY8NV8hXHDMSdFDYExhiy4pgJgGxyse4/PJkyfdq8RPJKZ3ERABERABEUgRkPBRTRCBNkSAHyy9eFSRd4YLC/L9/UKyV9Oakdjh5r05XVzP0hjpSIqJ+oSffn0UL4iaczniYnoblh5czGO8BmFTbJtXYOFhWhtre6If3rkeP6z96dixY8W5eL3eRUAEREAERCBbCUj4ZGvJK99tlkD7wgLPW30660kodNAPHjyYcW0J/uhUN3fHmmldpaWl3smPwiKZh/p+hh3CAwGBsKhrPqP4IAw2HkCgwBKm3bp1s99YqrnpxQ/rdQgjPU+HDh0KL7/8cli9enXYu3dvmDx5cnjwwQdD9+7dK0Qu4ocwjh075nGfK6768tF1IiACIiACItAaCdT89G2NuVGaRUAEjABWmHYXRIIONx31v/qrvwpbt24NBQUFVSwHWBPuv//+8PDDD3tHno42L1zsrMfvdMSjRYLzdOh5RVfT+eTxTGEhet57772wffv2cNVVV4URI0Z43OmCIT2+GG98j+mN33lH8Dz11FPhpZdeCrfcckt45JFHKvKZHl4ynVzLeSwyM2bMCE8//XS47rrrXJz88z//c9i/f3/4j//4jzBq1KgKXlyTdHHntiQzPnP81VdfDa+//nro169fGD16dJg7d24YOXKkx0EZETcO/whCrmHDg2RYybj0WQREQAREQASyiYCETzaVtvKaFQSKS85YBziE/LzcC+rwIjb27NnjL4QFnW060HSuET4DBw70LZYPHDgQcnNz3SrCORbY8965c2e3bND5RkgwNYvr6IhHKwThYRXBDx11jnMefwgbziFMYucdf2zrjD/iefHFF8OHH37o5dqjR4/Qs2dPj5tz+ONaLC5YbDK5mF78kl/iJd0cZ2OB3bt3B6wshIeYwREWYUaHdYZ0cQ3io0uXLtWuJ++wRPjwuSZHGKQFly5WOAfnm2++Odx+++1u0SHva9asceFH3NHFawmrrtaqGIbeRUAEREAERKCtEZDwaWslqvxkNYHS0rKwYu3mcLqkOEwcMyJ07NDeO+H1hRKFwz333BOuueYaFxx0wDnO9C0sDq+88oqLoi9/+cs+/erXv/61C4C/+Iu/8ClYiJO33nrLO/2IJaZmTZkyxa9HDGAVwXJz+PDh0L9//3DfffeFG2+8MWzatCn86le/Cr179w5f+9rX3OIye/Zsj2/MmDF+/v3333dhgnUGy88f//Efu1h57LHHwscff+xC5sorrwyf+9znwoABA6qwIB/E8eijj4YVK1a44CCue++91+Mnj7xI109/+tOwatUqn/Y2ffp094OgIM4nn3wykA6E0dixY8Mf/dEfhSFDhrhwiWHAP/m5pvIgTZmEEccRW3fffbeHi9CCM2IxKcLSwyUsrpUTAREQAREQAREIQcJHtUAE2hQBsxhYB/yUvcoaqMNL53rJkiUuXOi8x044AmXChAnhd7/7XVi6dKmLn48++ijwYgocHXJEzRNPPOFWB3YZQzww1evv/u7vwvjx48MvfvELn76FlYR1Kqxd2bx5c8WPcSJIsDQhKoh3x44dYdmyZS5osM5g5SBNrMPhtW3btvCDH/zAwxg2bJhP13vhhRfccvTnf/7nbhHCshMtTb/97W9dlF188cWhb9++LmB+85vfeJzER94XLVrkogsLFEIJC9Bll13m/n/0ox/5eUQVVqh3333XLTvf/va3q1lsalvNiDOTI81wwnrGNLpPPvkkfOELXwjXX3+9880kcGoKK1P4OiYCIiACIiACbZ2AhE9bL2HlL+sI0EGOU50uNPOEg9Vgzpw5bpUhPDrYTD3DKoO4wILz4x//OCAYECgIGiwTfGYhPp1vRMfgwYO9w06nHSsRQmLevHkuXv72b/82FBUVhccffzy8/fbbYeXKlb52BZHCK3bqoxhBVH3+85/36V5MSbvrrrvC1KlTPfz169eHW2+9NTzwwAO+ScC//Mu/eJhYchBXuJivDRs2+DS1SZMmhRtuuCGMGzcu7Ny506eUkW7iYwrdP/zDP7iFCkGDlWrdunVh48aN4YMPPvB0kz9EGEKIqWcLFy70cBuqHDzR5X+Y/rd48WLf2IA0kz4YyYmACIiACIiACJybgITPufnorAhkNQE6/lgyWKCPyKEjzzGER9ydjMX/CKN33nnHjz/00EMucrASsUECAgixw9Qw1szQSUc4YCVhyhZCiYX6THP70z/90/CHf/iHHieWHeLK5LDyED9igzSxLofw165d6xYR3rHmEBfxs9YFaw3ChrQTLhYj4t6yZYtPV2MaHRskkNehQ4e6JYd42DyAzQjwj3hjnQ4v1jZhfdm3b59btUgHxwgb8UWa6iN8iLMmIRPZI/IQPQi5mvzCjbDkREAEREAEREAEUgQkfFQTRKCNEUAr1CQY6pNVhA/iho42nwmbDn0UEHyP61KwkrCNMt8RNbFTzncsPIiViRMn+rodBAnnWSvEon3CQcgQBuFH0ZD8jtCIeePa+Jl88T1uMsA1hE/Hn/VAvDNNLDquY2ocU8UGDRrkFhTEEuINK85XvvIVv550sWECaYnXEBafsbwQJy/igg1hsY4JEcf5ujriQWDFDQ7SrydeGCHO4EbckVO6X74T1rnOZ7pGx0RABERABESgrRKQ8GmrJat8ZSmBdqEg38RJOHeHuC5w6GzTEacjH4UP1yMuEAZsr8zUNEQNO5yxroe1P1h0EBeIEaalYU3BUoIlp1evXt5p53osLliG6NCzfTTT466++upw0UUXeacdiwrraoib6WWIjKQjfUx34zjrgQiHNTuf+cxnPH7ShiUGqxJCAP+IAfLDmhzywbbdXM9UNSxVrFmKu6FlEg6kG5FDeMSJUCJPpI81SogtBBRx1dUhKGGGyxQ3v9/zwx/+MPTp0yf8yZ/8SUarD/HyIqxMYdQ1TfIvAiIgAiIgAm2BgIRPWyhF5UEEygnk5uaECaOLvNPrAqgeHe8kTDrPdMJZw/PLX/7SO9EcQ4Swxoed3p555hkXDV//+tddNMyfP9+nfn3pS1/yTQCYBscGB4ghNjfYZFPOsLRce+21Po0MIfTzn//crST4ReSwOQLTzVhLhJAgfjZHYOMEBAppoEOPFQdr0syZM11I8YOe7LBGGuj0Y51h5zlECet+SHe0IPHOGiM2CcAaxZQ2LCiINSw2iDj8EFd0nOcY4VxxxRW+MQPT2mCAAGJ3OkTiN7/5TU8f/uP1fOZ1LkeeiJ+4yVcm0UJ4nOMVw04Pk+OIM8LKFEa6f30XAREQAREQgWwgIOGTDaWsPGYVgcKCfM9vTZ3i2sJANLBwHmsKwoAXjnCxqrDN82uvveaWE0TFtGnTApsEsDkAFhO+f/GLX3T/fGcqGUKFrayZNhfX9LBlNb9HQ3xYidgtjqlcdNrZtIBd2bDaYOFA2CxfvtzXz3CeHc0QU1iF8MPaFwQXVqc33njDLTJYZj772c9W7OgW88BUMQTWr21b6Oeee87zxh8E2R133OHWIPIf1+ogILBqIaK4li2r2WabTR0WLFjg6SeN/LAra4IQRPF6RAifoyCpiCzDBzgg+OLvIaULFwTWd77zHRdf8EwXU8TBNYRBvHIiIAIiIAIiIAIpAvy8O6tf6Sl1sFeBzc+fYQ/Mq+2znAiIQB0InDFLwOJlq8OooQND186dahyNr0OQ9fJqfV5zqTUp9Qqg/CI61AgKLAvpjo41wgM/CCKmhdEJp9PNdDaO0dHH6kIHHisOAgrRgOWGTjlhcD3nmIpGPKyn4Txh47B8kAZEFtciQrBAcT5ae5gmx7oi0sCW1ITDMaaEEQ9ihRdWmnSHX+Jn0wXiIs2IF9LAVDiOIXKIC0c6sOjwneNYf7iePJOXmD/yzfWki7SSDtKEf34rKFNakmkjLHgRBi5d/CCOcPhLOvjjSBt5iP6SfvRZBERABERABNo6AZ699mxeaM/c6ZZX5siftFeJhE9bL3nlr8kItBThU1JiU6DsX7519NM7zHWFQce5pjBiJ5vzfI6d8HgN3zkeO998T36OaYnH8BvDSobNseS10Q/H+MwruuSx5DWEF8OMfnmP1+OX88m0c47vHOc8Lnme4/H6GDbf+RzPJa9Pv9YDPMcfRBLCCfETwyP8TC4ZZxRqsvZkIqVjIiACIiAC2UCgJuFTfQg0G2gojyLQRgmUlpaFFes22Y+YloSJY0eEjh3ae6e5vtmNHf66XJ9+TfJ78nMMM3mMDnzSxQ49x5L+op/k+UzHMl0T/fGevD4pWuI5xEfSpYeXvD5eE/1zLnl9+rXRX03vCBcsS1iHsDwRFmFmchzHP5YlLF+ILDkREAEREAEREIGqBCR8qvLQNxFo5QRsBzYTPadsA4CyGjrJrTyDWZV8BAxChpErpvjxYnoeIiqKHYQR55leh/ipySqUVeCUWREQAREQARHIQEDCJwMUHRKB1kyAjq86v625BKumnbJE0CCAmMaWbvWJ5a0yr8pN30RABERABEQgnYCETzoRfRcBERCBFkggCpwWmDQlSQREQAREQARaBQFNBG8VxaREikDtCTDDLd0qUPur5VMEREAEREAEREAE2iYBWXzaZrkqV1lLoF0oLOC2th3KatgBLGvRKOMiIAIiIAIiIAJZTUDCJ6uLX5lvawRyc3PChFFFFdtZy/LT1kpY+REBERABERABEagvAQmf+pLTdSLQQgkUuMXnwn/AtIVmT8kSAREQAREQAREQgXoR0BqfemHTRSLQkglk/pHLlpxipU0EREAEREAEREAEGpuALD6NTVjhi0ATE+B3fJjiVpCfp22tm5i9ohMBERABERABEWi5BGTxabllo5SJQJ0JlJaWhRVrN4UPVq8NJ08XS/jUmaAuEAEREAEREAERaKsEJHzaaskqX1lK4GwoLjkTotUnSyEo2yIgAiIgAiIgAiJQjYCETzUkOiACrZsAu1jzY5dyIiACIiACIiACIiAClQQkfCpZ6JMIiIAIiIAIiIAIiIAIiEAbJSDh00YLVtnKXgJsbKDf78ne8lfORUAEREAEREAEMhPQrm6ZueioCLRSAu1CYUGBzXULIUfT3VppGSrZIiACIiACIiACjUFAwqcxqCpMEWgmArm5OWHC6GFm8QkhPy9Xlp9mKgdFKwIiIAIiIAIi0PIISPi0vDJRikTgggjw+z2YfDTd7YIw6mIREAEREAEREIE2RkBrfNpYgSo7IuDz3BoJg3aLaySwClYEREAEREAERKDRCUj4NDpiRSACTUvglP1w6cnTpxvM4oPYycnJ8S2yS0tL/T1+b9qcNV1s5Dk3N1fbgjcdcsUkAiIgAiIgAo1OQFPdGh2xIhCBpiNQWloWVq7bbD9gWhwmjhsZOnVof0ECCAFQbGEdOnQo7N+/P+zbty/0+P/bew/4uoprb3tZsmUV9957twFjm94MBAiBQBoQWkIayc2b5Ka9qTe598sl5Ze8JCEkAUIKhBZC76G3UAzYGBv33nu3rC5/6xlpxPZBXbJ1JP/HP/nss/eUNc/M3nutWTNzune3Pn36hM8OHTo0Kf9DR6b+JTFFcO/eveGvW7dulp2dXf/EiikCIiACIiACIpC2BGT4pG3TSDARaAyB/VZcUmpF/tcca3zy8/Pt9ddft3vuucfWrl1r0eMzbNgwu+iii+z444+3nJycUFbSC0TZ8Y9acI3vGFL8pV4jTnl5eTjfmPgxXz4JMf/UMmO85HXicz7KX1hYaA8//LDdf//99u1vf9uOPfbY4P0hjYIIiIAIiIAIiEDrJSDDp/W2nSQXgWoJoPtX6v/VXq/PSQyBIp8u9/jjj9udd95pw9zQufzyy61Xr162fv16e/bZZ+0Pf/iD5eXl2bRp04LRsGvXLsNQwjjq2LGj4S1p3769lZaW2u7du8M5jAr+snzLbTxHHONdobxOnTpZbm5uSJ8aP+aXjN+5c+cQn/qUlJSEMgoKCkL18NJQPtPV9u3bF/6QFfnwYGGsUR7yETi/Z8+eUDbfOcbLRVwFERABERABERCBtkFAhk/baEfVQgSalQDejTVr1tjdd99tGBhf/vKXbfjw4aEMjIExY8bYM888Yxg7fGcaHAbS7NmzgzHTt2/f4BE64YQTgqGEkTRkyJCQ59KlS61nz5522WWX2aJFi4JHiYyJe8kll9iOHTvsj3/8ow0dOtRWr15tS5Yssd69e9ull15qCxcuDPExlE488cQQv0uXLlVeqVWrVgUjirI+/elP28SJE+3ll1+2xx57LMSfNWuWLV++3EaNGmWf/OQnbdKkScEouu++++zJJ58Msg8ePDgYRpTBn4IIiIAIiIAIiEDbIKDNDdpGO6oWIlBFIE7jqjrRwAOUfbw2GAgYNkceeaRhyOClwUOCV+aYY46xb3zjG3bqqacGYwHD5umnn7Zh7hk6+eSTbfv27XbttdcGQwjvybx58+yRRx4JRtRRRx1ly5Yts5///Of21ltvhfyR+d5777W5c+cGbwvxmW6GUTN58mTDWPrFL35hM2fONNITn+l3xNuyZYv97W9/s5UrV9pJJ51kp59+uq1YscJuueWWsCYJWd55550wdY16jBs3zt5880178MEHg5zPPfec/eMf/zDWK5EeQ+61114LBpEMnwZ2HkUXAREQAREQgTQmII9PGjeORBOBhhNoZ9kds8JUt4wmeCtYb8NGBnz26NEjTBlLrsHBAOratWswkDAq8PTgsbn66qvDFDbWxVxzzTX2xBNP2BlnnBGmwo0ePdo+85nPBG8KnpnFixfbFVdcYVOnTg1G04033hg8QnEzAeJfddVVYXMBjBo8P1deeaVNmTLFnnrqKbvpppuMfNho4YgjjrABAwaENUcYLniS8FgxNQ4jifU7yEd6pt5xbc6cOcFTheHDdQw5PESbN2+2H/7wh8E4azh/pRABERABERABEUhXAjJ80rVlJJcINIJAZmaGTRw1jNX97p3JDEp/I7IJhgDeFgwC1uBg9OD9wIggsJYGAwEvCQYJa2yOO+644BliPQ4GBNPTmKqG8cFaG6afsa4HowljivzxELEWh6lv5MW6IsogDlPdotHFJ4ZWMj5xiE855557bvAWPfroo7Zu3bowJQ45CDG/sWPHhvJJ069fv+Ap4hiPEfkOGjQorFliHdOECRPCZg6xviEj/ScCIiACIiACItCqCcjwadXNJ+FF4P0Esjpk+sn3jJT3x6j9DMo+Bs/AgQOrDBs2CMDw4DzT4GbMmGHXX3+9nXLKKSEORhFT4aJxhKGDYYJBRH6cx7AhxPz5Tn7xeqpUXOdaXfGZ1vb73/8+bFCAwYURg0eHzQmSIVk+8hHIm/ogK+diWRhoyKYgAiIgAiIgAiLQdgjozd522lI1EYFKAu2aTAKlf8SIETZy5EibP3++vf3222G9Dx4SpsA9//zzYZoYXhk2CsBoePfdd0OcOJUMTwqeFTwvGBTNHTCmMKwwwjB0Lr74Yvva175m5513XliHhJeqroDceJs2bNgQ6oMRxJok1hSRt4IIiIAIiIAIiEDbISCPT9tpS9VEBAKBwqLiYGh0zOoQPC2NwYKhwnbPH/vYx8LUMTYvwABiuhoGzquvvhp2RON3fFiTw45vbHGNEcFaG6acYTiwvodd4TCGkoYIx8nvlMd3PuNx8np18TFSiBs9NRgreKnYOGGlrwliih2/PcSan5h3ZMF3ZMIoY0OD2267zW6//XabPn162NQh7k4X4+tTBERABERABESg9ROQ4dP621A1EIEqAmVl5TZvqSv9ruxPHjfK8nKyg3FQFaEBB3h92DKaKWJsVc0mABgMGBrs6sZGAeySRmBTg1tvvTXszEYcdn7jd3/YUGDTpk1hAwLW8pAnnhrW7JCWKWYEfleH7xhJGFJsWFCf+OTDLm9sZvDSSy+F3dhIG8+x0xyeK4wxyiAky+e3ffAQIeMrr7wSPFtM6WNzBna1i+uEQkL9JwIiIAIiIAIi0KoJMCeG6W5MvkcryPKFzA+7MnCcHyuIgAg0gECpeyDenLPARg0ZYF065TXa4GhAke+LihfkzXlLDK/PMZPGWKfcnCbJgZGAZ4QNDvh9HX6vh8X/GBx4hLhOwNghDtfZ+IA4GBAYDnH6GGuAovERf+iUPDCk8A5xDqOH7xzXNz7xmJ7GD6siD5sdYKwxfQ3DhvU65I8xRly8RKxZ4lzcwIHvrAmijshOOurNZ1wb9D7YOiECIiACIiACIpCWBNAnXCeZ4e/0C1xAfo2cXzgvkccnLZtLQolA4wlgilTaI43PpDIlRgJeGYwHPDCs6YleG4ydGDjHdYwd0vCdT/4wZDCU4nfSYHAQYh4YJMm1QPGYNITa4hMH+SibQNmEmAZjiL9YPsfRaIvlY+Dwh2copiePmIZjBREQAREQAREQgdZNQIZP624/SS8CB51AUvlPGhCpBUcjgvPJ4/p8T5ZBfL4nQ2p+qfGT15PHMa/U/FLTJ6+npk/KoWMREAEREAEREIHWS0C7urXetpPkIlAtgVSlvtpIOikCIiACIiACIiAChxkBeXwOswZXdds6gXaW3dF/TyejnWU013y3to5M9RMBERABERABETgsCMjwOSyaWZU8XAhkZmbYpFHDzFfXWHtfW5OcwnW4MFA9RUAEREAEREAERKA6AjJ8qqOicyLQigl0aJ/puxuwTqYVV0Kii4AIiIAIiIAIiEAzE9Aan2YGquxEoMUJhCluFdtMt7gsEkAEREAEREAEREAE0oSAPD5p0hASQwSaiwC/4VPu7p7srA5Vv7PTXHkrHxEQAREQAREQARForQTk8WmtLSe5RaAaAmVl5fbu0pX29oIlVuAGENtPK4iACIiACIiACIiACPhv/QmCCIhAWyKw30pKy6zY/7SxQVtqV9VFBERABERABESgqQRk+DSVoNKLQJoRwMcjP0+aNYrEEQEREAEREAERaHECMnxavAkkgAiIgAiIgAiIgAiIgAiIwMEmIMPnYBNW/iJwiAkwxU3T3A4xdBUnAiIgAiIgAiKQ9gS0q1vaN5EEFIGGEGhnOdkdLSOjnWVoY4OGgFNcERABERABERCBNk5Ahk8bb2BV7/AikJmZYRNHDQ0/Xtrej+X5ObzaX7UVAREQAREQARGomYAMn5rZ6IoItEoCHTIzw+4GPuNNQQREQAREQAREQAREoJKA1vioK4hAWyMQprhpX7e21qyqjwiIgAiIgAiIQNMIyPBpGj+lFoG0I1BQWGT7CgqbfZqbfgw17ZpaAomACIiACIiACDSAgAyfBsBSVBFIdwJlZWU2b+kqm7VgqRUUFVtTjRXSZ2RUPCZKS0uN2XN8b2q+1XHEUeV7MnjeFVf5bJ/ZzjL9r/JUdcnqfY7NHkJ+Xgj5ccxfLK+2jIhD+vrErSkf0mZ62ZTJ5hOHKlBWY+sd5a2p3pwPeXud0imkq1xNZQTlpvbDhshAebQvf3W1MNe5V0PcGiJXtcsh7P8Nqa/iioAItH0CWuPT9ttYNTzMCJS48cNfc2xsgLGzbfsO27hps+3evcfy8vKsf98+1qtXD2vfvnkfH4Ul+624uNw6tG9nHTtkWH5RmW3aWmTtO7SzAT2zg0LV2KZkvdO2PcW2Y3eJ5eVmWvfOHWzd+kIrLd1vQ/rnhPJqyhtjr6Cw3JmWW05WZpCvprg1nSePwqJy2+blFxSWWvcuWUGGg63/Ue8tO4tt+65i65zX3np06WDrNxRZWfl+G9wnx7KcbU3Bq2trtxRYUXGZ9enR0TrltH+f8ptfWGYbaSNvs4G9soPiW1N+h/L83n1ltn5rodcvwwb1cbkONuhDVLmSsv22r6jU74UM74sMQBy8gsm6yO/J1WvzvZx2NqRvTq19H9nWby6wUk/Tt2dHy8v2tYYpYY+3y8ZthZbdMdMG9PLdJw9mBVLK1lcREAERgEDzai5iKgIi0OIEUFiaQx8qKy+3OXPn2aNPPG0bN262DFe2ityL1KN7N7vgvHNs2rSjrWNWVjCwkl4gDK5yTxtDhdeoQqrUa8ThiutMNmvJLntlznabMKyzTT+6p70+b6d9/7fvWO++uXbz94624f1ygsKOMo/iHgM6bfSgcK3c/+MzBnSropJyu+2Zdfa3e5baaSf0s69+fIR9+7dzbNOWIvvL/0y1icM7BzmSelh5ZRnFbhw9OmOzLXcF8EMn9LVJwzsZPrBEEaEo0iZH46OcOMyKXRl86NVNdteTa2yrK+RXXDDMrjx7oHVy5TDKmpqeTJGB67F+4bufj3GJA4v4nc8YYJ3vBts/X9hg/3hspZ3u9b7irEH22f95y3btLrJ//upEGz+sk1dkf1X+pA3yeD7b95TYN3//ri1atNP+v68eYRec2DcYSjQteZeWmb2xYKd945ezrV//XLv1v6Zaf1d44Y+8iAKj/S5fJUqyf1/AKIlyU3asY2RJHuQV43Cd/KIxk2zv9p4XfemtJbvtR9fPtUGD8+wP3zzSenfrGORA7uCt9AzLPGIqN/Ilf0K8xjFn6GeEGKfG6x4hxI8MKvOsyLUy33jN80vyiXVCztjmgYn/x+fyDfvsgZc32qDeOXbx6f3dYG/n8gaxwn8xfZJJ1TkE9zpEriRApsCbS5XXOEdgAGLN5n32+WtmWbYbkH/7n2lurGR7Fu/JRjzkIu1aN4D/41fv2JZN++xnXz/KPjC1p3XwelIsRLgHnn97m33vN7Ntwrju9pfvH23d8jpUykROFXklZQ8yVbKq7npIpP9EQAREoAEEZPg0AJaiisDhQgDlcI97eO68+z4bMmSwffryT1r3Hl3dW7DJHn70X/bYv56xESOG2cAB/V2BLLPtO3ba3r35QVnr1CnPunR2QwKtxZUezu/es8fKXFPOzc2xbm44JUd6UbQ2bC+yx90wuMcV9OOn9bW+7mHY5x6f3XtLrGNeaVDCS0vd6+JGSJdO7a2ne0zC7CovYmd+me1wbw7eomw3JHp3ywqKWrKtKKPAPS67PB7egEy3RiZP7OkemGLrlNveyl0J3uiekb35JUEh7ugj0r08nzz/XLZ+n935r9U2d/52y2qfYV3cczK494Gj1VQVj9XWnUXBo4PSioell8tJufNX7rXrbl9sq9butXPPGGhjBneyDqEC70nJ6PoWT7+voDQoo8jQs2tW8EZt3uFrtjxqf+fCVCKUyE1+jnL6du8YjJ9kWkbUe7r8yDvcjZKpR/WysUM7B2Nh597iwCEaj7sLymybe4SKXE7qkeMM+7kBg/INj10eH2YrNxa4XOVu7Pp1l8OLdjkqmOZ27eAKrkvo5/a5sbXVWRZ6+3V0rwTerc457x/996iGzr5xR5Htzi8NfSXP26KPy8217ZTrstE++9yztM89ZXg6aBc8bxvcc1DqWnUvZ4T3Aw/Ves7RRzzN1Mm9g1ch0yuF96fY+0+3Th1spxt0GD14gvBS4BFDVqZpdXFFvJd7xQh7vUw8hNSBsAcZPXT1PHq4x7DQ+9sW54Z3sp1H2bO3NPRr2oy86AvwyXVPWd/ufg5ggU+Zl1kSPGm0MV44+NC312wpDPHwrm33vlnq8nXyaxhuO/xeeMkNh5v/scRGjexqk0d1sVEDc6u8lcRdv63Cm9fbZcgOTPbbOjdIaMvQT/yTtoEnHYr7hXspt6N7WP0cxm6OywR/vlPHKUf2DJ4z2p1Eu7wvhP7inkDu41xnTb/EgNpd2V/27Cu1FX7fwDknu733Fx8g8dR4D3d6vfbsK/FvFQEv6E6/L4kLK9q3o/Mj/j7vk6F9vO15ntA/uL9T752Ylz5FQAREoC4CMnzqIqTrItDKCKDk8NfUUFiMgrw3TGnrkNXBlZIcGzt6pH3q8ottydLllpOTHRThNWvX2yOPPWlLly23zPaZNnrkCLvg/A9aP58St2vXbnv8yWdt9px5VlhYYAP797OPXPghV9xGBKUJRRvD4NYn19rDL6yzLa7Mv/TmRldqC+wTpw/yUeeMYEjc9NBKe2POVst3herUaX3s+1eOCVNvUJpveXy1PfryBje+Cm1gvzz7rHtTznfPTGef0pbEgDLXzpVPPDClriXPX7bLNm4vdKW+1GYv32O/vmupzV20w6fqlFsXV64+efYQu+CkfvaL25fazLnbLN+Vs1sfWWErfRT8R58aExR0lL0KJbHc/uVeob88stJWrtlrKLTHHNHTrr5wmNevzH5+6yJbvHyX0M1N4AAAQABJREFU6437bfGqvRWKX2UTwQCj5wlP/9fK9Bhi3Vx5/cRZg+2sY/vYj26eH+p+3dePdKMpz+at2mM/+tN869Mzx37y2XE2a/FOu/nhlbbKyw5pXVG+yNNeeuaAYAy84/VCoZw2umswlqISvsMV3dvcC3Xvs+tsu7NApMEDO9mXPzHCpoypiEtfemPedrvjydW2cvUeGzowz772ydF2xpSeQRnF+AqGrNdjlxsH97+4wf7ubbLBR/57ukL8MW/Hy88eZL3dOEoGPAFzVuyxP9y33N7y/DFYjvQyv37JKBs7pJPd7h66J17ZaFPHd7d5y3fb/MU7rJsr6Z86f7idT7vcscSWe32/evFIO+eYXkFB/vp1c11ZL7NLve3mePw9+/Jsiyvav71nhcfdY+ee2N8efnGdG+HldvMPp9qbC3bYX5zb2o37vD+3txMn97Ivf3R4MCheeXeHXfePpTa4f15ot9dnbw331TknDbBvXDIieF9+dssi69fLp0q6kcF1DM2PnTkoGEd3P7PGp1Pm2xHu3fjep8balNFd3Igstfuczx1uSG/2aYS93YNykce/8pxBwbD64i9me9/JsKme5nHv0zt2FXk/6mX/+cmRNscZ/PmhFX6u0OYuKLPv3zjffviZsXaMM8MQ2OwGzX//bZGtd+7/6QzPmtrLDb4i+09ngiH206snhH5y62OrbJ17jvA09fLyL//gULv4jAH2irfB9Xcvs1FuILfzNqdNzjiun82avyPcS0UlZbZ5x3675YnV9qAz3O2GHZbyqOFdQxvgkaVfYcC8+PZW+8O9y0L9xwzvYt+4dLQdP5EBjwrvJfG4N1c495seXmXPztho+d53Rg/rYl/4yPAgO1NL73Fv5W0u7xY3XAmjPC/65vSjfKoteSQ7lI5FQAREoB4EZPjUA5KiiEDrIdDOR1h9NN6VgqRXpTHyd+3S2SaOH2sz3pxlO3bssEkTJ9joUSOsV88eNm3q5FAO637uuud+V7bL7eMf/bB7XUrsqWeec2PnGZ8O90F79rmXbO68eXbGaSdZ165d7MWXX7O77n7Avvj5T9uA/n1d+anwMjDK390V/Y0bMqyzj6gP6ZdrHXwkHSV+zdo9bqmUW56fX78h3x57dq0dO7GHnX9iP7vxgZV216MrrG+fXBszoqst9ulyP3WDoKuP3J81rVeNaxLwdmAkbNqyL3h9/vrYanvhtQ12/NQ+NtjL/vcbm+02VzLHDOrkiq2vV/CR5kIfpUaRZ7oPXhe0Lv8/eB1e8il6P7nhXR8lL7UJY7sHT9WTbsitcyX0ap9WN8jlm0Uadw2MHJTnnpyOwQiraJd2PipfYL92jxDGwhkn9bdcH4l/6Kk19icf3R/vimiJG2OL3Lh5de72sN7mxdnbw/fh0zsFj8m1nna9K5GkZcT+oafX2E13LXZlu6ttcoNmtRtKG1xBDdPiKNRFwdB4xacT/vX+FeH7mSf3d6W62J59eb39xutx3bcmB0UW78CTL62z8WO6W39fFzR3wXb7+V8XuCdpaoX4ZOf5MZ3wuVmb7Jd/WWC57u2aMKqrLfdyb7hzUWiHz3xoiK/74Ed1K5RfPEg/9rZa4PUaM7Kby1Nmr87cbFt3FNuvvnaErdtcaO+8u80WLNkZjIvOuR1s6YrddrNPV5wytlvwhCxcssOefnOznTipuy1cnW+z5251D2UXN17LvM67g1cQw3qZGz0zZ2+xFd7mGd6nBg7IdVm32nW3LgheH+q23Q2Hh53bFvca/fIrk9zoL7V57uV7Z942G9A715X/9rZ05S5vl9U2ZVw39yq2s/nOYo57moa7B69b5yxb5PJcf9tCv0eyQ5/EIHn9rU32V/8+2I2Ux9yree1f51s3N0zHO59lbsz84Y5Fob1PmNDdli7dEYzHlc6NOPS5l2ZssL69s0OZfTyf5St8fY8baYN9bRpTJWNgnRXfFyzcYc/M3OKGRndb4Eb2O85k4rgewcinj+W7J+0MN94waKnLTd7HjpnQLdR//sLtFQa63x8D3KCjj69Yvdt6eHvifZvt9bvlgeXWye/Fc04bGNb0vPDqBtvv9/81X5oQ+gte1ae9D43x+vXukW1vOPdfuPF/g09XDR3FBebZhKF2/b3L7YkX1tqwwZ19XVCOveuyX3NzgfXpfrTl+P3/q78tdE9kmV3gRvxO75uvzNxkN95nNs2Nve7u+aUvKYiACIhAQwjI8GkILcUVgTQnkOlTgSaOGhoUFo4b6/khXU52jn3qsktcSRxgM9+eHaa4lZWXheltZ595mk2dMtmWrVhpK1assssu+XjwBpW48rpj50574aVXbPKRR9jrb860Y4+ZYhMnjPWRbJ+m5Rsi3PTnW23lqlXWp3dPH4nOCKPlF03vH6YjrXGPwjSfgva9K8bYYl9Tg2emo4+iX/OVI2zSyC72vRvmGYrWHPeesBboCR95dm3Lvn3lWBvsi6/vcO/FPY+vtPueX2/TxnW1fj4NLEzBqqbdKtY2+FoVphj5yDzTcCb6iPM5J/QJU9GYftezWwf7Pz4CvXjlbnvLpxp94ozB9kn3onRzRZB8UeAwdu50I4UNBL5w8Wj7woVDg5L4pZ/PtHmuGOfnD7Ev+rmXX99gpfvb2f/10e/xQzsFHRDFjXwKfErRMT6lqH373nb5BwaFqVevuQdh/bq9YRrgcZN6BiUcw+e0o3vZjHe3u7fN7JSjYNjOprlXoP3RGXb5WQOtwBXU11zZ3Oij+sv8D28SZaRy4DsGyynH9rWR7kX6wNTetsrjv+h81/iUvBI3Ngl43aa7kfmjq8YF79zVXq+VzuPlOdvCFCfyYCSf6Wq3u6cn36fqfcvjYpzMmLfDfnbTu3aPGxQfP62/T+lyL6Fr03hlXnpnm81zRRej44efGeeegnL775sX2FJv2+fdY4CnDM128IA8u+l7U4I8l//XjKAAM6XtZPeo3etTI2e712ars/+3e+XcjrbjnSNT/WjfqjpTfzwcbrj+12fHh6l6/+MGGlP4/s8VY+2qDw32RfdF9kWv29tuKLy5cGeYGof3gql2v/2/k10Z72jfvn6uG1fb7F03WI4Y0SUY5l3d4PmtG4l5PiXtCz+bFeQ/1Zl+/ZKR9oIbVz/+3Rxb4rw2u3fyDveWMCXtK+4xm+jp/+0G7C9unmv3PLPWjnBvBoYp3qP/8OsfmNbb/vLoSrvVPWLLvT2+ftEIt1b3uyGzzUYO7WI/uHxMmMrn6EM9O+d0sNO9b9z/xCp7x/sdU9pgwiDINB8oYI3eCVN6h+l+l33AjRZf3/aSG42784ttxQbflMDLLvF+iC1x9SVj7DLvS3iobn94WQVLlzvTjaszTh5gk0b4Ojz3js31gYbn3MhZ5/2UNV+Ejh3b2wfdKPreFaPdoC+0L/7M+4sbT3jQ3JbxPse6n/0+FS7fnvT7t4cbRz/6/IRgHON9e+bf6+2e59e5R7GX7XSvEp7P6ZN7hsGCAT4owcYkLmr4qyhR/4uACIhA/QnI8Kk/K8UUgVZBoH1mxRx9FJimhGKf6pbt3qMLzjvbPnj26T41Z6stWLDYXn39Tbv19n8EI2bLth1W5L8b9MKLr9hbM98JhtbefJ/K5Wt61qxl+tQOV9gXuhK+yRWqdu65KPY45bZp89bgHWK6HBNWWI8Q1kq4Foenh3UNKNNMTevpC7nHuaHAupIxbuy85iPoO31dwCIfvd/to8sF7mm40b0zKIzbfWoQ6vpK9wyxPqGu4PpXWL9w4tG9g7fllgeW2YM+Aj3OvUfnHN/XhvnGCux8xmg6Cn62T0NiPQTHpMVzwtoMPBucO8unXA10DxG7V02e0COcX+oG3ASXP9THk7DbVZbnx/oSAueHudH2kVP6h80d/vToKlvtSuFaVybbeRSfPRgUvzsfXm5zFm23tb5z1pIVu6yzT/ua5p6HAb4e5yMn97NX3Cj60yMVaZli5TqmK9IoshXT8UJh8T/q7QbNsWO7Bm/dGwt32XU+NWkZ0/DcgOnhyqYnC3WE63Tn079nljPdb1Mn9LTVq/e6kVQQ1oe4+CGwa926dXvC1EQU10df3+RGWKlvNrDftrlHC88LNWbbA7xD89x7U+g7lK32tvrF7YvCta07K6Y0Lfa2xYjJ6pBpY91AGOzrcWjPAT6VcfHencEoOt6nwPV2r8Rm95ItWpVvr7khRt9hYwxkCe1TKRuKMutHLpw+0E5zY5H1M0xJpG3PPqZ3WP+CF+8oz/Mp57vQ6xd3qevjbUP/Y4e40e59m+NeoN0+PRJDCsO9l/fPEQN84w0vo5cr8RgBE3yzDNpltE8LZFpXoXvNmKbJNQzDu9zQYTpkvnt0YLLVp71hDCJzrhsOp7rxNqRvth3ha3kwbEnLZgM5lX2Pcxha5F1hwHvfzGoXjLGe7hXC6F3obTnDDR/KOdOnvR3hMpUU97dX3Wj+3X0+ZdONqS3u8WRdUylWtJfN/cbUvs+dNzhMJV3ga9Mw7pGLNT4nuWeNPjnLvXD/z6cBLqYNK+UmPQYN65Omu9GCFzfDO+HR43vYs27MrHKPJNPhuE9o/6Xr9lWsZ/M417rXCQNtsxtKGH+rPW4/Z3mUG2x4BL/1q4oNNI729jnTjbs856AgAiIgAo0hIMOnMdSURgTSmEDYVAD5kppfA+VlEfvSZSts4aIl9oEzTvVR2e7WybeyHjp4kE0+6gj72S9/41PYFoZzmR18m+Se3Y2pcawb6NGjm/Xv19enh+WGUrt36+prCXoiUBCJXeEGDewflMYoFqImxY0bI6Akde5UsVicCDmuCFeMGLvy5AYH+hoKF4vZc10R5JOtlwf1yQsbHPilWgNlZrtC99nzhlh/n8LGWpaFrtRhXM1yjwvhg8f18f+jeu9HCJUMngfrEZCjg1spXOaPhfgElLwgZ2WaUNfKY3JCYZ6zbLd997o57i0rskluWIzwKXZrN+bbNleIUXKH+QYFQwZ1diVwhz340kbb7R6Ok9yrgJI5e+lu+46n3elG3xGVadds2Gs73StSU0A+5Hr4lU32G5/uleUMUDLxDCzyMqhLDBgqKN38y3Ctt2IXc9+ly+sco1EnvHN4z/AW5rlcbELR1dsjzzer6OTrrTK8HijGbjaGtsaIIgPqh/KN4dF5dHc/td+GuvK9yg0ilOEenX1aIKA8sP6FY8ojz2N804Ynn1/rU8g22qKlO21Q/042fkhnm+seGeJUBT9m2tlQn3KI0YmxEA1PPFpeTFDwQ5t5QjYlID2GBf0vThulr4QQ8/Z0GMUE4lfkw7nKKX2VgsMETw9/BIwWPEnw6XRsv7Bgn35FHuTX0zc8oEw2cQi5+3mu8ReCnyR+ZfbhFNfYeOOYI3vZC6+st0d9fdQS5zDSBwtGuQH2pu/O953fvOMDDmXe1j1tlK+jWrXePTXuIaQdyJq2wAPDVMtkoBw2G3nEOd9wx2Lr4kb3UZN6+BQ5N0zca5f0LBM3bj5AHagPshV73aP8fNL/+CQOm07Q/sg/0A3Nse55xfD87y9MsMdf32yzfQreypV77B73gL3jXsQbvj/Fvaa+9kpBBERABBpIQIZPA4EpugikO4EC98CgYOZ09N2x0EIaGfbu22dPPfuCDRrU39f0HO3Kb3tXYtq78um7hWW5ouLH/X2dTrZPYTvxuGPsiEkTXKEsdy/Hal+7sMKGDhlknTt3snFjRtn0U0+2ju492rZtu702Y6ZPc/OpWZ4ehSkpouujYXrNZjcAGPklJK+HE54GhRQvCcZOaYG54TLUxruCx+/OMKI93KdHoVwmFbKQNvFfIOP/MVXt2Re2hrUE3/Updpz/4U3z7JU3NtlMn/J0qk+zQQaMly0+XYmdr9ilK6R3EVHshg7oZBtcUX/NDafB/bLDFKqFvnkC7cCaniz3mlTUJiEAh54J3gnWm7BG50Q3Zn7y+fHBgJjp61u2VBp2KKIsvJ/nCuB9T62yds7mdJ+ahqL67Myt7q3Kt5N8IfpPPjc+KO1v+Uj/9v0VmxWklBi+0i9Yu/PEaxvDLmf/+amRdqlPbWInrn8+sjzIHcRz+dgN7U1f4H6CK7rIOt+NNPR3dovDiKBe8Mn13bvwfrBj1/m+1ui0o3uEjSOem7Ut7OzFTmgww7DB2zTap9dhIAzwdUNf9w0KuruBgQHIFKjJ7ona4G2Z2j+C8OThXPGcMR3q8WfX2GPupStzRfrYI3uEPlFdu2O4BSXc0+MZos1Y0/KqtxnGMrvkLXJDAWOLNquQtZr+F4VowCe8MQZ74aHyzTE+eupA59nddvr0yeedDzvwMX0yBAcKz9TAKfLBxsaTxm5nMHCEIVBn1iHB5EnnARPW3hznhhBet+fe2mJbfb3XudMH2Y98vRFT+172c77HXVVRlEuf8ugHBIyTXb5j2xM+DRKD5aqPjvA69LO3F++y2x9cVmE1eQrkY4riG95fpnobbtxebAsDU3NvT24wbsgb79mwynV8XXzt1lc/PtLbICvsoDjL77nxPpVumd9PT7y22QcB8uwLHx5i7y7bY1/95Sxb5wMCS9bl+3RUz8/bKkXUA+TWFxEQARFIJSDDJ5WIvotAKybA1tLvLl3l61WKfYrJKFe2smtV/muqKr/LM3LYUF+g3dsefOQJn75UFLw9JSUlNuOtWeH3fCZNGBc2O/j3KzPshZdfNXZ+y/DF+888/6Ivfs6zaUdPtqMnH2FvzJzti719jr5vivDW2+/4jnDL7Phjp7iCxToMNPuKUV+mV6E4veYL5K91Q+FUn9KCksQ6i6jcMFLPqDnfUbxPcG/C467gXes7fB3pa0pm+6j2Flcsv+LrH9BcURZT02JQkS/5cIwIM135Zec21seM89+2YRttpkahALNZQPcuHX1KW5nd7TublXjir/hubd19lBpJcv36x04faIvd43DjvUt9t6/8sL5itq+zGDmsq09b6hHkYEocKmaUxw9DcN3NFVj/cVD/ZK0RO2KtcaV/jU+LKvFF+gU+Qs86p+nO4+/3+05ZPrVruC8GP258t6D4htF5TxzTrva0TJNjQwTWLcEv1jXyxDsTlXGYzl26K2yd/YozYCti1osUenr4sL32E77DGAbQdp9iOMt31xvkHpmT3Du00Y0F6sUfHpgLncOf/llgNziHOUt72ZpNPm3Mpyp9yHd286ycQ4XXhylbTL+658nONt/b7De+ox4bPvz77c3WxVlM8fVZtB1yI18MyBPq4qdQntl5rqunw9vDwv/TfUpervcd2jTEo6943JiOYwwEPEy02XLfrOD6u5b4tLA9zrXAFng+THc72Y08fqMIrxBpY4j9j09OR67xeiwHg5fAB3FYL8U22Bf6VuZ/u2+Z/f6fS+ythb1shSvwS3xN0yfOHWqTXdmPbRXzi+lZf4NB1rVz++B9wyv5S+/zX/UdziZ6f6UPEZdtvae4wdHF++tSnw450I3K033qH54j+jF1X+F94zk3luf5uqNN3peYYsqObbFuyfpSC+TnD+Mnz/sFdZntbUq653wzCqYgIl9hZR67ffOEh32q4y43gNf7BhWs45o4upsd7xsovOuGLelpW3buO87ba4avR/vpLQt9nVkne8MHLUp9+uO3P+MGfLZ7JH1KYAfvK9yXGFRw7e1rrfgxVXhUUI609CkCIiACdROQ4VM3I8UQgVZFAOOnxP+qG/VuSEW6d+9ql1/6CXv08afs7nsecEWjYrOELu7FufDDH7Ij3cPDGqCLPnaBPfTI42HTgsxM321q4AA77ZQTrbdvXnDeuWfbAw89Znfcfb9rvfuDp+fM6T51rrtPaUJT88AHngMMhBf9t1cW+M5WLJ4/wxdiowx186k3XEdbYkvmka7093cll+kx3/zkKDZK8x27ttrzvo6giytFF/oOUOf7j23yGzwopxgU/JF2lKdlVzaUtmE+/QevEOe/ctFI+50r7yysfvrliqlK5/p6kI/7pgv8Jsp5nt8K3yVsq08fW+67hzHqTZ4o2Mh2vm+IwG8C3eeG0Us+HYhpXUzD+o9PjLShPrK9wdcujPTpa2WeKHhJKjU26s76pvM8/evvbvVdwXban+9ZZn18bdFkn7a2Y7u7szwOayUmukdrim9ywO5h09z7w+/FsPPVeb519+tusCxxpf3mmNanMu10owRlld8SisxYrzPct6veszcr/H7Mpb7N9Ab3NM3xncuW+3qNYb4OZJLvANbewWHo9HcPxaRR3exo30hgjhsCTMUb47vDfd53qhvlI+54y0Z5G7EOhmlbnzp3sO1xQ+lpN5RedA557uWZ7j+c+oUPD/VpiLRHrLjZCDdcf+Aeqht8bdFCn16HIjvEvTAX+4+sjnOleIavkaH92VQAIw0v32CfqlbgnPGO+NfQB87w/Oke/Z0ZhhAGEdPImMo1xMuA7xC/tt8VZzwiSICBgMeC7bwfdo/Rc//eEDwdpxzT177i3qcBvk6LaVfUbbCnhT/lIQt9qG/of8nrLp/nyw+L7vHreK+Iz28iIUcflxuPFzvbwew5n4bGJh2dvC3P8s0CPufn2cFwhJeHZ4i60r/4LShkQH5+rBQup/uW3LO9r3CP8BtL3EfwoV789fA8YeLd34b69MjJvrtaDzeYPuxbgL/l65NW+w53N9291H8YOMemujeowPPg5mInRMpiB8JgVHhm9NVRngfr2vq4l/OKcwb7eq1Ce2PWlmBsDvH4R/rW292dK/2FtO3G9rAjfQrcW7O3+Rq8EjvS1/h82e+voV7eGt/Jb7RPRRzonAb5ffhd3+b7ty7oAt9ufa2vOcJjeLYbh2f7jowYYJ/xfnafb4zxFzekCcPd4L7It98e695C+MbuFC7qPxEQARGoBwF/dIQ1sPzAgu9daVl79+59OC8v77h6pFUUERCBBIFSNzbenLPAFZ0Bvr4hr0qxT0Q56IcYPW/NW+KjsMW+XmOMK4A5TZIDpaqwqCj8Hs/Onbvcq5NlvX09T66v32GqGgFltrCgwH/scp8rTJnhR0rZUhtljFDo3qJ9fr20pLTimnuh8PakBoyUfB/ZRXEmJbs3YWCg4KAM8sl3pltVLPSuWP+Q7wotvx/Djyf29tF/jBmU3dRQldYVSAwfyqJMfu8HT8QeV0g3+fSfPT4FjB+x5IcdyQtZGPFmO9+9Lhs7hvVwowtlOBnInzw3+m5weGGQn00aUGIxkPCkkBk/VolimQwocLv8OjttgYYfaWS9CaPwYeOHyvqwCxmysCgfTxPZUAfqz2+2sBEChlwyLeUU+ah8h0S9KQ/jgPbdvrs0eG5YH4Vy7peCBp3rW0+zIxzlwZv6b93ljH2nO7xdnOMadYYF641ocnaoY/H/tsq4eLPwwgSQ5J0IKLfkiyeJwI95wo4pTHic+FFapgmG9nTB+FFNvCI5LhvT5agHmyagdMMCwwYZ8NQgFyzhxA9hYliQN3LHQJuxEcUmn8JIW2E05OWw5sc3n/A88/3HWFl7wpQy5IcjHg6MK19uFq5TRievI4HpgzCJ8nFM/eATZPM4gY+3Fz/cyQYAyIRhQTuyMx7y0xYH1qNiq2rKgAH9kD7Vy9sCDskAE9bjsE6JaWudK+8d8sfQ27Ct2Jm6QeyGM32TdXls2kF5/PhsqG9lv6f/wSf0W5eJ9qJdN7kBzD3QzddxMfWOtHCGDWmYUkif3OFbgvdzg6mrxyNfPIPIzzG8PWr4zo/K7nNPD4Yl+WCg0xFpH/LZ5PcUoZ8bnBjY9H8FERABEaiNQHZ2tk+v3zajV69eF3g8Rnh8JNFKeHrw1JTh4xAURKApBNqi4QOPaMAwLY3j+D16bJJxIr/6Xovx4yfKK1oUyhuaTyjLv6AgEVCwOEf+FXEqRuK5gAEWFs57unitIlXF/6lpUW5R6FDUCHx3HS7kHa4l8qkQi/+Rqvb8yS9wqsyrUvQqYyeWFzJL/EfdgyguR4Uq6yn9uLq6UsHIhCxqS8v1JLNkvUONKsuokLmiTNKgEPulKhniNDXiBQpE5TKFJ+ThMnGoZ4XnoHpenrQivceNjCpzJrtQdlJu4r/XP97LM5ZHJtGjlCpXVTqXKZYVyk/IGusfub6X73us47nYvwOLRN2ryvFz1IEQjNykbIkyU/lEgzj2kdR6hPzCycp7hHJCKQf+F+VMtktF2or7BLipfYzrqfUJaUKlKu4T8qXVwr3mX0LLVZx8X3+hjIo+RKIKHjXVx3saMd53/4asK/MJsnBcmRffFURABESgJgI1GT6a6lYTMZ0XgVZKoEJRrk4dalyFDlDyPIv4PZlbdefi9dquxTjxMyidUWP0k6lpuZR6LpnmvX3GYo7vfaamDUpyAlNSaU4tg2ip597LueIomT9xE1mHCFGZTU0Xv0eF2wsKBlg4T6aJkKxr4vR7RlANaZOyJ+sdcq8so0rmRJnhMF6vrFEyr8ClSvAKiYge49RV55A+WV6iUsl84unq6l9dvFS5qktHnsm0VfWvLCx5LZafei7WM16vrpxUBsk8Uq+lfk+tB+VUV0YsP34my4jn+Ix9vKY+llqfkCYUWJEL+Tq1YLBW8ao4GSKEw/i98jOZZ431qexbqffvAfl5CVXyh9L0nwiIgAg0nIAMn4YzUwoRSGMCPgXKp5nx+yIVXos0FlWiiYAIiIAIiIAIiMAhJCDD5xDCVlEicLAJYPBMHDXMx099nr0vPkiOth7sspW/CIiACIiACIiACKQzARk+6dw6kk0EGkEA46diVn0jEiuJCIiACIiACIiACLRRAhXrG9to5VQtETgcCYQFymFV8OFYe9VZBERABERABERABKonII9P9Vx0VgRaLYF9BUU+xa3ct9R9b0vpVlsZCS4CIiACIiACIiACzURAHp9mAqlsRCAdCPA7PvOWrbS3Fy61Av/9nOD9SQfBJIMIiIAIiIAIiIAItDABGT4t3AAqXgSam0CZ/6Jgif+FnWebO3PlJwIiIAIiIAIiIAKtlIAMn1bacBJbBGojEH5nsLYIuiYCIiACIiACIiAChxkBGT6HWYOruiIgAiIgAiIgAiIgAiJwOBKQ4XM4trrq3KYJhF9Uj7+e3qZrqsqJgAiIgAiIgAiIQP0JaFe3+rNSTBFoBQTaWW5Otv94aYZlaEvrVtBeElEEREAEREAEROBQEZDhc6hIqxwROAQE+PHSiSOHekn7LTMz07e11hYHhwC7ihABERABERABEWgFBGT4tIJGkogi0BACGD8KIiACIiACIiACIiACBxKQhnQgD30TgVZPgN/u0e/3tPpmVAVEQAREQAREQASamYA8Ps0MVNmJQEsT2FdQaOU+xS2nY0fLyNDG1i3dHipfBERABERABEQgPQjI45Me7SApRKBZCJSVldm8pavs7QVLrbCoSJ6fZqGqTERABERABERABNoCAXl82kIrqg4ikCBQVl5u/B3MbQ3KPX+CNk9IgNehCIiACIiACIhAWhBgIJi/1CDDJ5WIvouACNRIAIOntLTUSkpKgtHDdxk/NeLSBREQAREQAREQgRYggJ6Sn5//vpJl+LwPiU6IgAikEsC44SFSXFwcRlBk7KQS0ncREAEREAEREIF0IYCeUp2uIsMnXVpIcohAMxGo6WZvbPbkV+TrhTB64hS3xualdCIgAiIgAiIgAiLQUgRk+LQUeZUrAgeFQDvLy8m29u0zm21HN4we/qobOTkoVVCmIiACIiACIiACInAQCMjwOQhQlaUItBQBfrx0wqihvuuAGcdNNVbw8vDX1HxaiofKFQEREAEREAEREIFIQIZPJKFPEWgjBDIzmmeXeowdTW9rI51C1RABERABERABEbDm0ZAEUgREIG0ItGvXrll+v4fNDLSmJ22aVYKIgAiIgAiIgAg0kYA8Pk0EqOQikG4E8gsKg8GSm53dpHU+bFutKW7p1rqSRwREQAREQAREoLEE5PFpLDmlE4E0JMCPdc1fuspmL1xmhb4hAd6fxgQMnvjXmPRKIwIiIAIiIAIiIALpRkCGT7q1iOQRgSYSKPMfFeXP9zdoUtA0tybhU2IREAEREAEREIE0IyDDJ80aROKIgAiIgAiIgAiIgAiIgAg0PwEZPs3PVDmKgAiIgAiIgAiIgAiIgAikGQEZPmnWIBJHBJpKQGtzmkpQ6UVABERABERABNoiAe3q1hZbVXU6jAm0s7zcHOvQPtN3dNO4xmHcEVR1ERABERABERCBFAIyfFKA6KsItGYCmZkZNnHkkLCxAT9kqu2oW3NrSnYREAEREAEREIHmJCDDpzlpKi8RSAMCh7Onh+27Zew1vBOKW8OZKYUIiIAIiEDrI6C5MK2vzSSxCNRKACW2sb/fU2vGzXwRGTHSmlNWfseI0Jx5Z2ZWP20wllGfOhCnPvGaGXG9szsY3GKdU4U4VNxi+c3Zv1Lrkvwey0ueO1jHkWFD6xbT1SVXbfnGPJJxOE5+ryv/+l6vrqz6pk2NV5/7L7Ue9U2TWpa+i0BLEkjtxy0pS2rZ6SCbDJ/UVtF3EWjlBPbuK7A9+fss3X+HZ9++fbZt2zYr8h9abY5QUlJis2fPtt27d1txcXHIe+/evU3yAMFw/fr1tn379gN44lXas2ePbd682bZs2VJrHYhL+q1btwa5mqOuzZUHLyFYvf322waryC0/P7/J3Kjvpk2bLBpVyAwL2ofzdfGAPf2DeLRtQwLl7Ny5M7QN7cT3gxmoI3Lu2rXroJcFFxhSXkFBQb2rhRKPnPRZAt9TQ1RKuDdLS0tTL4e6cY0+D9cY6DeFhYXV5hnjNOaTZwP1pMzGBupE+9M2NckY60158XkU2zRZz1QZaAtkI3/yaO5AntW1U33LqY/hVt+8UuM1VbbU/Jrz+8GU7WDm3VQGyEZfpE/Sj5vSd5oqS2p6ZGMQkedKvMdS4xyq75leEHcrnx34/MEPfnBpVlbWID9WEAERaACBcn/grN+01Xp07Wwds7IakLL5ovKynrN4pa1zOXp372pZWdzWjQsoMwdLYUTOBQsW2NNPP215eXnWs2fPJj+kV69ebX//+99tzJgxwUh5/PHHg/I7YMAA59Dw9uBBzQvk1ltvDZ+DBw8O+XAeRRxj4eWXX7Z33nnHunfvHv5SXzTE5SH/3HPP2SuvvGI9evQI8TifLmHZsmV2++2328SJE4OsTzzxRFBqBw4caB06NLz/UDcUzCeffDIYomPHjrXs7OygGNKnZs6caf/+979tzpw51qtXL+vWrdv7lMaYxzPPPGMzZsyw3r17VxuvOob0rYULF9pLL71kc+fODX1gyJAhjapLdfmnnkNWDJFHH33U1qxZYyNGjDioZcHwjTfeCH2P+7Nfv35BoUiVK/mdeBiz7777rt1zzz0W25b2TfZFlBLYzZs3z7p06RLuzXidT64vWbIk3LcYP8OHDw/p161bZ7NmzQpFdu3a9YA8k3I05BiZ4fmvf/0r3G/cxyhODQ30h5UrV4b2YQCic+fOlpube4CMxOH5QZ/EmOF5hKFEm1K3kSNHWvv2B64MgAdM33rrrWCckW/Hjh0bKl6t8WlrjP+cnJwD5K01UeVF6kS/5LMx93FdZUTZUlnWle5QXOeZu2PHjkZxq0s+6k3etHXq876utAfzOv0R2bh/33zzzTC4RL+hX7Z0QDbepbxr5s+fHwYTeSZz/mAG7ll/F6373e9+d5eXw3QQRnPK3z/kczClUN4iIAIHnQAv7jL/O7hj3PWrBg+2qKzwkkj+8VBGiUK5QeaappTVVRJl8KJD0R02bFhQknnRo+TwkMVI4TsPwfii4jP5nbKT3ymTfHm5odz16dOnqh4oZKTHiEFxpw6rVq0KSmHyQR7LIA/ixrqiiCTjpdaPa8gS5Un9Hq9xnjKSfDkX6xI/ic8x15KB73gMMEJQ7FD2iMsIO9xQchvLDUMTRXXo0KEhz1gu8lIOPBYvXhzaPpVH5IaxhFG0aNGioHymxot5Jj+RH6UEQw7FHOWdvkGbESKfmKY6LvFadZ/ERz7yi8fE4xz9DKMObnxvaN7VlZc8F7nQnzAuNm7cGNhQXm2BOuPNwxB97LHHgoJ/9913h/uFtLFfkD9KvisJIV++x2t88p2yYYqChaFDnaknPFC2/vCHPwSjmbhNDbFMPFQoc4TY9+uTP+mpH2kfeeSRYPRhSN92222BR6wb8mNc3HLLLVXGZCyLvoNhw/OpurKRg37GgMtrr70WjIyYbxC4Cf9RHt5m+jJ9n+/1qTdFUifanPpi/MdzSdk4Jl4MHCevUxbnkn09XkcWntt33HFHg2WL5dX0SRlJ1siALPzF8mtKy3nS8jy+8847q9otlVvMM1m3mCdlJFkkj3kect/de++94TkT86mPXDH/2j5j2eRLaEibE59nJf2bQUXeh//85z+DwdEc8kXZYBm5JdlQfk2BeNzH999/f+jPDEpyTzWHXDWVWdv5A4cwaoupayIgAiLQQAIo1kxrYuQxGjeM3mNIoBij2DKyysuZByqj11xLfVHVVSzKB6PZl112WcgTxQwPDaO4vAR5WZEnhgpKY5x6hhLOiNjatWvD6G1UyonLVCnSjRo1yvr37x9eQjzwCTzI8WRwHiOhugc4BgQKFfXGI0S55BvzqKlOjCKjgJIOHqSBIUocBgMsOUaxwTjgD4aRHSzIg/KIi3JKHbnOizQZyBf5r7rqqhCHFzvcNmzYELjBhbrSZii81Ic/vuOpQ/mhjZGLP2TlO9xp22FuiGIExTpT/oQJE6xv377h5ZyUJR4jP2UQaA/KrY5vjB8/4UW5eODI47zzzgvtTfooA54o2NL+BPLH+4FCX1cgf/oDTOFLXciX/oERj6cRxQODjkD965t3XWVznTaO/YA24T6pDxfYwwXD57Of/WzoBy+++GJoJ+oUA8o1fZbPiy66KOQf2402pe7wI9BHiMt1ZGBw4KMf/aj96le/CnJS96YG+lJkyHSz5cuXh3sC5tSdPh3lq64s5IIZXmXy+va3v20rVqwIhj73TzIwGk19rrzyytCepKVNuccZpaafw4V86Of0G8rmHjj11FOr7hfyTb3HkuXU95h2QR4GSzDcVrrHCnm4P7n3kKO2QDvR5vRFnhPcb3CDGX+E+JxhoID8YMrzjDKoa7zXicd17hG8mfQ9no1Lly6tko1nEPnzfK1Lttrkhjuyw5tjOHO/wQK54r1WUx7IHWVD+YcbckfZkJ024vmGIk6/5vlAvWlXAuVjcFJvnp3UjWcpz0/6E3nSJvyRHrl4vtfnGVKT3JynvsjGfQZ75KBc2o78a+vrMEc2pnrjgfv6178enusYf/SBo446qrai67yWlI1nUJStU6dOoY34rC1QL54ZX/va18LsB4yylgwHvgVbUhKVLQIi0GYI8KDkpRGn5PBS4IWEIn3WWWcFJYmXEC94pjLF0VJeQF/4whfCwz6plNUEhnIwckiPIYX7nHwJXKM8Hv68oHhxHHHEEUEh5qXNaOU555xjp59+uj311FP26quv2oknnmiXXHJJUDKIw8geL+GLL77Yzj777PASjC8gXjYoOdW96Hl5MbrFy5HAyzWpKIaT1fxH3ijmN910UzA8rnKDhBfyjTfeGBQW2D3//PNBcY+GDS8dZEAhgh2KHtPVeNlhAKDUoZB8+MMftqlTp4YXNUXD5PXXXw8vpEGDBlVx4xpKEyOHpIUjeZ177rnBWMFbcP7559vJJ58cyqGNUf5Qlnnp8tJmlJp6HHnkkUHZpv6xPWviRt1ROO67776g8BGPuqGY1RWQkZcxbGjHOLpI+hNOOMHOOOOMkAUK/7PPPhuOSYNM9IHTTjstKEexbVPLIy553uJegdjeKOIoPddcc02VcUa7x1Fw+iFMjjnmmNBPaso7lhX7bfweP5ERQw1vDd4HlDuUYAJGZF2BcqNnBiWYPvvxj388fHJfcp368Ul7cw5lj3MEzsGN6Zqkp41R+GN9+IQJ58kbhbEhgbSxrNR0XKP+GADcy1F+mH7oQx8KimFqmtTv8ELxQi54TZkyJcga5acM4vAcQcGM7YBMXOMeok3ph8TDGPrYxz4WnjfEgRd1R0GPdYl5p8qS/B7zT56LxzDnvkJBpHzuCdiifNN2lFdbGSinGLpwQ8nnO/fCcccdF+pP/jwn8PaSL/XCOGCwgGcgdcVbgDLNdfo68n7/+98PzyOe2fSJKBvMeP7Chb5Zm2zUMXKK9eWTNJRBX+c+416inXme8AzGCOb5hvFVXSBPDGTeBXDjfuX5jWw83zDMicNznemelANH+hTTfLlXYYTxwBRHyoMD7ODGoBrGFPcBzyneGRiRPFt5hlD/ukJNbU7d6aNMMUVm6gxHntH0V7jSN2sK5Etb8cylrtSL+NSHPsB7Dw61tUtdsjFAxrOfdiF/WPMc4H3Ju4D0tQXKJx33S11xa8unOa7J8GkOispDBNKIAA+32h5wh0pUlC1eIijkvEx5saJo82COL1tkQSn+9Kc/HV5Kv/71r8NLjpdJfR+OvJyYYnTBBReEl1Wsexw9+8hHPmInnXRSeOHxMueFdsoppwQFBqWKBzGGDQ9mlB/SId/kyZPDVK2//vWvQfkibmqIZcXzyMzLClc+o8vky3SvF154IbyAYFJbID3Tzr70pS/ZXXfdFV7elDtu3DijHhh2fGctAi8cXkS8fD74wQ/an/70p6DgohBiAKCIXXrppeHlx0ua/Bh1gz9y8+JnndInPvGJ8AKPdUFGXm6c54WPF4OXMQYY30ePHh0YoRwjA6xIg/JEQAH45je/GRQv8qkvN5QxFA4U3MsvvzyMwmKkIHtd3JAdRQHjjhFSjM7Pfe5zQSlBOaHvofCgQB599NHBEEIuDEQYjh8/PnCprm1oE+qGskN9rrjiisBipY/8MppK/SmffsMniikj09QFQwWlAwWktkD+5B0ZxrjIjfwomiiptAlKGtPKUN5oi7oC/Rp5jj32WHvwwQeD8oxCyR/5Uz9YoCDDiJF/0hA4j+L0wAMPhAEC7iOU4HgfkTYG8mKEHmOfPDiuK5A//RTlM/Y/0qCgYtgTmG6GIkifwJBmih33F/mfeeaZVfxD5MR/5Me9jtGLvH/+85/DPY+RHrlRPnlTR9oRZTFZJ9oU+fBo4S3De0y7PvTQQ+E7fS7WG88QfZf7C4O4rkB/59mVrDdlcz/zR5+Mg0UolpTFeZ5XyTSp5ZAHbBjkID1tQduTHtm4Tn2Z/gcL2hSjkO//+Mc/bNKkSeHZwH3P/Y2xRd/HKx8VVwxInh/0GWTjWUAfh0VtsiErTJGLdk0G+POMwUvKvcvgD30JpR8WPFe5t2sKlIsc3B+0KUYZ9UMm7iGucY4BBGT/1Kc+Fd491Iv2pJ68p6g3fY9nCc8dFP5YN/oBg0AYVRgkyAqT6C2qSTbOIx+cqXsy0NeRD8OFNkDe733veyFP7nPuWd6RPFe4L2vii6z8IQtx6CekS723kmXH45pko6/AAtngxvfvfOc74dnMmlWMQM7xV59AOTXJX5/0zRVHhk9zkVQ+IpAWBNpZp1x/GXfwdR3+QG3JwMuflwQji7woeIDyEo6KAQ9pXnYohijLKH1c5+WEAcKLqraHJA9b4vFyQMFBuaPMmIYXCkYHRg4KP0oNLzFebCgClB0DLwleOMgUAy8ZlIVkvHitpk9k4oVOOdSdlyMvNQwTjL76BOSmLhgt1157bfBkYAhh/KA0ICsseRmj4MCOulF3XnKcR26UQpR8zlOHn/70p2FEEK8a9UQp5yWJoZXkRr2HDRsWuKEM8PJkJJLRTuoTlWLqGrnRDjFwnraDJ8f1CcRDsaEMPDQYnSh5yEX71icf4lB36oRcKEkY3fQH6osXC6UDRi+4IRrPIyujlyjB5MEfx9STT+LBj34LZxQAZCNvFLLIjji0BUohzGhD+j5tRp6xX6byoL1RgPGwRa8BcSibtsLgpT/RTscff3zo65TJoEJsi9Q8k9+5r4jHiDf3AgoLChb3GYYUfYVyMSYYKb/wwgsDP/KgL2Pc0ZaMalNnGGDU8xfrxCf9HBlR1JCdgQjSxThJmTiGCf0menwjJ9KiTH7gAx8IBgp1hSUKNv2ePOknTG2lPjXdn7HcYd6XUdYYLHjB2/2GG26w7373u6Gt8BJSZwxlFH76TzKQB/cYgwn0JwZkGFWHIfIS4IcXAoOINmQQp7aF29SbtBgfKNwwoA9Qb+rGc4PyeHbRRvQ17gdkQ57YL5NyJo+JQxr6JnVGFu5b8qYc6rzSjXb6PP2OdUAE0hGHvkAbw5yNJWhXnq+0LXWlPciT63hXecbQXoRYj/Clmv+4jhJNvbkfY4jPfrwu3GfIgQzUgT7Pd+SrLXAd2eCGrDw3kI37m0A/oW4Y7jwfkB2WGCM8M7gGY6aswo1BEjhyT5MfcXk/cR1vHLJhQNOe1Ks2+WKbcx/z/IhxaXPkY0CJZy2DH3jdeF8hL0Ychj4GIHGRoaaADPxFg5L48R1L+TWFKBv3EwNBqbLxPOa+RzZmHFB/ysFLjveTvtHawntv/tYmueQVARF4H4HMzAybMHKon6+YfhIfYu+LeJBPUC4PVBQ3FHgUTkYNeYgzGseoOS8f4vAyjS8OXlwNCbyseAlNnz49vChjfcmXP5QKRlY5H495oVAeZfHSI/DiRQngWkzLS4Y/4vLHNb5HhYfjmFc85pP0BMqLcVG2OSafeD1Equa/KDcvGpQu0jESz8sXxY/r5EPgmHrEc3xSV156KDZRqULZ4Hwsn/ZAMUCZRUmviRtlkAdGCeVEDnCjLGSDGwoC3wkwiBxifDjxEqacyIpr8TjGJw9e3LQHcRvCLbVsyuSPvAgco0ChsKEcURZKINdRtpAHbvRPeMOeEV5ko558MvrMMW2DAoUXjXZBOeI6+ce6cEwg37oCaVAuogIZ46Nokz5yoS04pj3gxDF/NQWuUUfuEUa5MfgZBee+YfoQdSEOZUQFl3xjfyDfyIUyCbQj9xQhWTc4kpb+RH+oTyA9yiYKZWwn0qEMwiLWjzpQPv2fY/7ivVBTOeTNgAtGDQYSAyz0YTYi4DyKZiwfzrCl/WOIXJALXsgY604+MZCGtPQvlEA+SVtXoI7kSRvEQFr4xXrTL7hOGZQJ9zi4UVcZsW3ivUt87lvqQL6Uj+IKB9qbeJyHBXFgRhpYYaRh2HENYwI5q5ONdqEf1RZIi6GR7GeUz7n4jEF2jjmHnIRk/6gtf9ImZaM8uMX+y33JvYZHjGP40n7cw8hBm2C8wpl7BCOIe/0b3/hG1f0d2xwZSQtX5KSsmgIs6dPkn7y/kIE2R2b+yIv8qQd5w4l3ZW2B/Mgb9njhSEudeTZj9FJ2sszUvGqTjTxjeyMb7cB3yuDdHZ9zqXmmfqeMmE88Jo/6tmtqfk35XnMrNSVXpRUBEWgxAhkZvHTrfvEeTAF5sPGiueWWW4LyyIgWI+EolbxoeNhxjALOCCoPaR6qKGd8J2184VUnJ/nzcualxDGjb8Qn31g2c7NX+sgmc915eTNNhVFqRtRQUFB+8cJgjJGOvDDUMBh4oEcPAWl5wTEixigkSjJlkBd1YO0OeXMdZZk4KFlMv+OY6RAYGeSD8ceLjPyqC7ycYMIo+MMPPxymyvGiZJSa84y48WKjTL7DMnrIOEYhR1ngmFFpXpi8mJgmxSgideYaGwDwEsKLxHVetElu1I3RXkafmcIDCzwBKJvkQd3gRjsxVYRzKAq0Acx54TLthzrDBZkonxc7eXOeOhAXRnDjBcsIJ54oymGEnfn6MIZbVC6r48Y52pB4KCkYenipUNT4owxG5cmTOMhLGyAD+cOB8ikDVkwbxKBh/Q5paTP6Ct4BpsBgPNFHUAhR9rhOv6Vc2gO21J/v9EPyrinAnutM5UoNUTGgfzMCTZsw4gpTjDM4wb02xYj8keGFyumWGCXUO04/5TrnqBef9BuOaUvypTymG1I+hhP1Yook18kHhQs5uW/gwZScmHdtyhbX6HvkOW3atNSqB4b0kzgFj9FoRtgZNYcxa/Nquo/IjP5Me8KK+5P7kHaiHw4bNixcp3xGrmnjP/7xj6G9otFGXPoKMnAvMjWQ7+QXlWbK4R6gLehbV/maPJTY2gL15j6gD2FYpwZYch35I9t4/3J/08/xhlH32vjSdsiCbNzvyElfx9jhXuCepM+i8FMWxh3PYZ7TpOEeYKourOjPlE0elBllQ3Zkgy3txDVkI351stHXkIn+lXqdPKk77wC88rQxzwqe1aSh3YhTVyAObUj+yIZhR7vBC88Zzxjyp29w31Fn7g/6M3GYFokxTv+CBe8l0pMff9z3/PFMJyAnXOjz9KPqAuloU+5j7qfUAC/qTduQL8982of7jPx5Z8GGfKoLnIcTzzE8eDyfeQ5SJp7M2rhF2eBC+tSQKhvPat6TtA33Fe1dXZ2S+VA+zyneI6Th3cV9hAFKXQ91wG9GT+KTN7F+x8chKIhAYwikw+/4IDcPmdoedPWtGy+Gmh60deVB+bygUYp5ADNdBqUIpRvlnZcRhgbKKQ9BHrgowSg1KM08hGt6icQ68rJhFJIRSNLzgCYgMy9hpjLwYOWBi9LKS57pMkwB48XGy5EXPMo1ZfMAJm6casGCZvLgHC8lZCVfZKMMFvDzYuXFiXKE7Ci6XEdp5mVJuaSjLMrkOkZRdcpRZMY0HqYiEagbyi15kx8vMo55GaPQExiV5IXKCxJ2KDXUifUQTJGAMy8rlBimqFAfplugcPLCIk8CdUKpJS3tg6wco/CgHJ7hayWoB38oDlyjbLih9GJMcI0RdhY+kw45kRfOKBHUkelApKX9iMN1ZOIFPcyVLGSAOxzghPKHLNQHhtUF8iU/lGOY0/eQEfbwo01RcmCGwYYHhKlivIhR/JANRRHFDIbIRRuikEfDEOWIlzV9mfqQltFUONIHaDNkQGb6LrJwHplpk9g/a5Kf67RF8g9lB2UMxuQFF5QhjH7qBHfalH4Og+oC+dGeKCswRaHHOEGRJ28CaYmHYozixT2KckeIbcB5/rgXUNppW+qG8g4jzqN0Ma2zIcoMdUytO99pC+5LDGEUa+4x+g19AfnwSFBubc8o2hT2KLWsF8PDydRB+kQMMKD/0W9QjOkjsOB+YtCE+sOC3+yizbknmcZHv4z9jjZBFgZ4ItOYf02fpE2tN+Um25G8eA5zP1EG/RIDgL5J3JoCTKg7cvMMpm70XWSkr5MHDGKbYhjxbOMe5llKv+Ia/Onv1JtrPDthSUA2+lKUjfuDvghv2rSmEPsa8if/YMF9yz3LmjIMMeqLbLwjaJva6pwsD9m4F6Ns9B1k49nMfcAzhmd3fAfBiecyn7yn+OP5wX3OOwvlnvuNAFcC92I0MLj/eAbDt7ZQU5uThmdnUjbqDVMMsLiWrba8qTP3I3VljSf3MmnrMnxinvWRjT7CfUBf4n6HJ+1C29UWuI6hhLeVPkU7w5gyeQfV1l9qy7eua5TrA1Pv+x0fnpT0UJ5+POWy/AHwsDfAcX6sIAIi0AACpX4zvzlngY0aMsC6dHpv16MGZNHkqP6+s30+Ah1GcXOyG/1A4cWJMsADqrEh5sHLilFxvvNw5+XAg468UeAInON68nttD0MemLzYGIlmcS7KCuljoP7kRTyOiUsZvLSSD2mUChQ4XubISR5cp2yukZY8YuA4vtyqu046XkDE4zoKBOdQkmKgrNrqxosWhYIQ86IuyIaMsU1iPfhOPNKRLy++n/zkJ3b11VfbMDckKI+4xOE69UVBxZhhlLA+3CIfZCI+dUMRj+eT3JAVbjFwDR5RYSBtskziUS/kI3AdpYdzDeEW+1PkEzLz/8iXvAiUS18kf2TCGOJ6ZEkc0sOf81EmzlMv6kw6+hNp6QukJd9YL75TXvJ7Mn/yakygfNqOfFHGaUvKRcba+hNlcR2DDoMXuVN3KIzyoGxdd9119p5xRdMAAA5ISURBVK1vfSuMPke5YUKdKZ+yOU8bU0+OkQnl+pZbbrH//d//DUpiahvHMhrySRnUG+bIQNvRj/iLbVpXftQdr+XNN98cFo3T55P9k3wYnGFjFXYuxKDiORXbNOZPnyCveD9xnjjkzUYTKK3s/IVszVH3WC73NfWGMfcD7V3fuiMHctN2pKO/8glPGMR7gfzivcAxZdLWHNPnKZd6kTYZkrLBjL5QX9mS+SSPaWfaPBngHp+7yfO1HdcmG/nzfqP+GAuxbvCCFZ/EQRb6e2QWy4Md8Ugf2yTeKzFOYz9pZ5iTP8YpspF3ffsUMjE4AC9kb2p7JOsBE/oFbOkvDWlvmFG3ZCB9c3FL5huPYefPvRk+UHCBn6Nw5uuW1G6mxdT6FAERaBUEysvLbP6yVVboD5ip40dbnm90UN8HZnNXkJcrD15CVCQ4F+XhgRwfevFc6veaZCI+CgiLgEkT08f4UUGJ3xnJiyEZlwcjf8kQr5N/daG+16vLm4c/o5jRsEnNHz54C3gZJ1nVJAvpeSkjE3F4MaHE8cmILUYQazq4RtnEg0VTuCEX+aXKFLmk8ox1jNdT06VeJz0jqMmAAsJoY+qLM8ahveEWDet4ns9YLsfIjqLCH+f5TkjGoV+ST+p5FImofNGvk2kjk5CoMr9kPZP5xzgN/UyWn0xbn7yJQ7szOkvdYp9J5gNDlHdGthlQYKoN3wncYyg6/KUG2malj+Iyuo63AMOiuULqfUy7xVCfese41AVvDwxS0/Gd9mTkmXsG7xIj2allp7Yn11EwmZbKAAce0eqeRVGGxn7SVvwlQ2odkteSx/RL6sxfDDEt8tMX+ONcsj9Tj9iO8VlE+pg25tUU2WIeqZ/J90LyWmrZyWvVHdcmG/cSfSK13jCgvjHE66llw454qXFjuqZ8xvcG/JNtUt88aevYV0mfKnt986kuXnXPoPrmD7NkP4z51zd9jN8cnzJ8moOi8hCBNCJQXs7idp+PnAYypT7UGvq9rirwckvNM6ap6Xy8zmdtcWq7Vlfa6q7zEsLgYaoAxk9qoDxeLMwVZ9pEUtmpS5ZYHkooxgF5kIYpIhhByfTI0dq4MfqJYs30o9RA3XjR4/ljjnxdI5xJFsnjZL7VnU8919Dvyfwbc5xaXkPyIC19i35FiApVMg8MY6aosRU58/BRwEhXH+UJw4HpX0zBiop0Mu+mHDel3pRLvRg5x5OD8pWaH9cxmq+66qowpQv5Y0iNG8/zyTUMBKZIMaWINT7k39yhNhnqU1Zt6ZPXksfkm/yePE6WWdP5ZJzGHDdHvrXlkbyWPEbWur7H+qTGi+eb+pnMN3lc33yTaZLH9U1fW7ym5tfU9LXJ1pBrMnwaQktxRUAE0opAujxI6wMFWVE+8cDU5LlAyURJQ3lvaN1i/kxhowy+k191eTU07/rU72DFQVYMm+nTpwcjrrpyUDjhdjAUz+rKa63nqjN4UuuCEQDL+sQlLcxR+qPin659q66+gcGDx4pQn7pTT0awWUNRV94hU/0nAiKQFgRk+KRFM0gIERCBw4EAClJDFn43hgmGTlJxS1dFtCF1o04o1goHnwD9Jdl/6lNijN/a+1qsR33qHOPI6Ikk9CkCrYOADJ/W0U6SUgTqTQDlo7UrIPWurCJWS0DtXy0WnRQBERABETjMCcjwOcw7gKrftggwYtk5jx8V89113LugIAIiIAIiIAIiIAIiUEFAho96ggi0IQJMuxg/YqjXaH+Yd66R/zbUuKqKCIiACIiACIhAkwjI8GkSPiUWgfQjkJHBFr3v/fZM+kkoiURABERABERABETg0BPQXJhDz1wlisBBJcB0t8Ys0j2oQilzERABERABERABEWhhAvL4tHADqHgRaE4Cvq+B7fVffWaKW15OtrZZbU64yksEREAEREAERKBVE5DHp1U3n4QXgQMJlJeX2YJlq232wmVWWFQsz8+BePRNBERABERABETgMCYgw+cwbnxVvW0SKHdvD3/u/FEQAREQAREQAREQARGoJCDDR11BBERABERABERABERABESgzROQ4dPmm1gVFAEREAEREAEREAEREAERkOGjPiACbYwAGxvo93vaWKOqOiIgAiIgAiIgAk0moF3dmoxQGYhA+hBgG+vOebnWMauDZfqPmSqIgAiIgAiIgAiIgAhUEJDho54gAm2IQIYbOxNGDnGPj/lW1u3k+WlDbauqiIAIiIAIiIAINI2ADJ+m8VNqEUg7AhU/YJp2YkkgERABERABERABEWhRApoL06L4VbgIND8BDJ8M/1MQAREQAREQAREQARF4j4A8Pu+x0JEItHoCTHHbu2+flZeXW6fcHJ/uprGNVt+oqoAIiIAIiIAIiECzEJBW1CwYlYkIpAeB8vIym79stb2zaLkVFBUb3h8FERABERABERABERABX/8sCCIgAm2LAFtZl+P6URABERABERABERABEagiIMOnCoUOREAEREAEREAEREAEREAE2ioBGT5ttWVVLxEQAREQAREQAREQAREQgSoCMnyqUOhABNoGAU11axvtqFqIgAiIgAiIgAg0LwHt6ta8PJWbCLQoATYz6NIp17JLOlimdnRr0bZQ4SIgAiIgAiIgAulFQIZPerWHpBGBJhFg++rxI4aEPDCC8P4oiIAIiIAIiIAIiIAImMnwUS8QgTZGQFtYt7EGVXVEQAREQAREQASahYDW+DQLRmUiAulDAMMnQ7/fkz4NIklEQAREQAREQATSgoA8PmnRDBJCBJqHADPb9uTvs/Lycuucl2NMfVMQAREQAREQAREQARHQD5iqD4hAmyJQXl5mC5avtncWL7eComLTtLc21byqjAiIgAiIgAiIQBMIaDi4CfCUVATSkQAbGmhTg3RsGckkAiIgAiIgAiLQkgRk+LQkfZUtAiIgAiIgAiIgAiIgAiJwSAjI8DkkmFWICIiACIiACIiACIiACIhASxKQ4dOS9FW2CBwEAkxzK9fv9xwEsspSBERABERABESgNRPQrm6tufUkuwikEGAzgy6d8iy7JMsytaNbCh19FQEREAEREAEROJwJyPA5nFtfdW9zBNi+evyIwaFeGEHa5KDNNbEqJAIiIAIiIAIi0EgCMnwaCU7JRCBdCWgL63RtGcklAiIgAiIgAiLQkgS0xqcl6atsETgIBDB8MvxPQQREQAREQAREQARE4D0C8vi8x0JHItDqCbCnwe78fCsvL7cuebnG1DcFERABERABERABERABM2lF6gUi0IYIlJeX2cLla2zO4uVWUFRsmvbWhhpXVREBERABERABEWgSARk+TcKnxCKQfgTY0EC7Wadfu0giERABERABERCBliUgw6dl+at0ERABERABERABERABERCBQ0BAhs8hgKwiREAEREAEREAEREAEREAEWpaADJ+W5a/SRaDZCTDVrVxz3ZqdqzIUAREQAREQARFo3QS0q1vrbj9JLwIHEGAzg66d8yynJMsytaPbAWz0RQREQAREQARE4PAmIMPn8G5/1b6NEWD76nHDh3it9ocd3fD+KIiACIiACIiACIiACJjJ8FEvEIE2RqDC0ZPhO7vJ6GljTavqiIAIiIAIiIAINIGADJ8mwFNSEUhHAmVl5e7vMU11S8fGkUwiIAIiIAIiIAItRkCbG7QYehUsAs1PAC/P5u07bcOWbVZaWtr8BShHERABERABERABEWilBOTxaaUNJ7FFoDoC5eXltmrDZissKrbuXTpbhw4dNOWtOlA6JwIiIAIiIAIicNgRkMfnsGtyVbjNE9DSnjbfxKqgCIiACIiACIhAwwnI8Gk4M6UQAREQAREQAREQAREQARFoZQRk+LSyBpO4IiACIiACIiACIiACIiACDScgw6fhzJRCBNKaQGZGu4od3do1Xkx+CJXfBOJTQQREQAREQAREQATaAgFtbtAWWlF1EIFKAu3cWOnTs7uVlJRah8ym3d4YPgoiIAIiIAIiIAIi0FYINE0zaisUVA8RaCMEMtxDM6R/n6raNOVHTNkRrqSkRLvCVdHUgQiIgAiIgAiIQGsmoCHd1tx6kl0EqiHA5LTmmKHWvn1740/T3aqBrFMiIAIiIAIiIAKtjkDS8GETXG2E2+qaUAKLwIEEyvy3fErLyg882chvHTt2DGt9GplcyURABERABERABESgJQkcYN+kGj7Noy21ZPVUtggcxgSY2rZp205bv2WblZaWNplEZmamZWdnG58KIiACIiACIiACItDKCGDbVDl24hqfaA2V+rSWqoutrGISVwQOewLl7u1ZvWGzFRYXW48unY11Ok1Z5wNQ8iAUFRVZWVlZk/MLmek/ERABERABERABETiIBCptGkaBo51jGD58wRoq43Pv3r2zc3Nzj/djBREQgQYQaO9ekaysjsb0MP5aImCYZGVlhRu6OeXA65OTkxM2O8CThIGFQdVUo6olGKlMERABERABERCBtk0AXSg/P3+21zIaPsHzk/T4YPi0v+aaa/7fj3/84/15eXlHu1LTjr+2jUa1E4HmIVDqRseuXTtt+45sKy0uahGjAMNn165dweOzY/t2Ky7MaXY52OmNv+j9kfHTPP1HuYiACIiACIiACDSNAF4e/goKCt6+/vrrr63MDRsnzGgLG0D5Fz5Z74MhFCfzM7+F47gOSAaQw1AQAREQAREQAREQAREQARFIKwJxqU6cxVZSKR1GD16f4PGJxkw0gDByMHbiXzwf4/klBREQAREQAREQAREQAREQARFIKwJxLQ+fGDzxLxg9/v2AaWxJI4djjCAZPA5BQQREQAREQAREQAREQAREoFUQwPCpMnb8OBpE7zNskoZO8rhV1FJCioAIiIAIiIAIiIAIiIAIHPYEMHZiqDr+/wHbrI5wT6WGvwAAAABJRU5ErkJggg==;" vertex="1" parent="1">
          <mxGeometry x="365" y="440" width="614.1" height="256" as="geometry" />
        </mxCell>
      </root>
    </mxGraphModel>
  </diagram>
</mxfile>
